<svg xmlns="http://www.w3.org/2000/svg" width="71" height="75" fill="currentColor" viewBox="0 0 71 75">
  <path d="M26.39 68.615c-5.065-1.422-9.518-4.04-13.407-7.694-1.22.428-2.464.857-3.73 1.263-.588.18-1.176.113-1.786-.113-1.085-.406-1.74-1.195-2.215-2.166-.656-1.286-1.493-2.46-2.148-3.745-.588-1.196-1.447-2.234-1.944-3.475-.249-.61-.905-1.015-.905-1.782-.587-.948-.022-1.783.317-2.618.09-.225.203-.519.407-.609.814-.361 1.22-1.173 1.899-1.67.316-.225.655-.474 1.017-.744-.52-2.595-.972-5.19-.972-7.852 0-2.64.475-5.19.972-7.717-.882-.812-1.695-1.602-2.554-2.346-.882-.768-1.402-1.715-1.29-2.708.069-.541.227-1.128.498-1.58.837-1.33 1.605-2.73 2.42-4.083.655-1.083 1.22-2.212 1.943-3.272.385-.542.61-1.173.995-1.737.746-1.06 2.238-1.58 3.46-1.219 1.084.316 2.101.79 3.21.993.112.023.203.18.316.293 3.91-3.632 8.364-6.227 13.474-7.739.203-.61.248-1.263.497-1.895.18-.474.136-1.06.226-1.58.249-1.353 1.085-2.143 2.283-2.55.43-.135.86-.27 1.38-.27 3.164.045 6.33.045 9.495 0 .904 0 1.672.361 2.396.767.656.339 1.017 1.06 1.198 1.738.317 1.24.497 2.504.746 3.813 5.087 1.444 9.54 4.039 13.429 7.694 1.22-.429 2.464-.858 3.73-1.264.588-.18 1.176-.113 1.786.113 1.085.406 1.74 1.196 2.216 2.166.655 1.286 1.492 2.46 2.147 3.746.588 1.195 1.447 2.233 1.944 3.474.249.61.905 1.016.905 1.783.587.947.022 1.782-.317 2.617-.09.226-.203.52-.407.61-.814.36-1.22 1.173-1.899 1.669a54.11 54.11 0 0 0-1.017.745c.52 2.594.972 5.19.972 7.852 0 2.64-.407 5.19-.972 7.716.882.812 1.695 1.602 2.554 2.347.882.767 1.402 1.715 1.29 2.707-.069.542-.204 1.129-.498 1.58-.814 1.308-1.583 2.662-2.374 3.993-.995 1.648-1.809 3.43-2.962 4.987-.203.857-1.017.925-1.605 1.24-.633.34-1.266.25-1.966.046-1.04-.293-2.035-.812-3.12-.948-.113-.022-.204-.18-.317-.293-3.91 3.678-8.342 6.295-13.519 7.762-.249 1.218-.475 2.482-.746 3.723-.271 1.218-1.085 1.985-2.238 2.346-.43.136-.882.271-1.38.271-3.164-.045-6.33-.045-9.494 0-.904 0-1.673-.361-2.396-.767-.656-.339-1.04-1.06-1.176-1.737a195.86 195.86 0 0 0-.769-3.881Zm1.469-19.878c.452-.249.972-.407.994-.948.046-.813.159-1.647-.022-2.415-.317-1.308-.882-2.572-1.22-3.88-.227-.835-.724-1.625-.702-2.527-.723-1.783-1.175-3.656-1.786-5.46-.497-1.49-.859-3.024-1.401-4.49-.294-.813-.362-1.716-.905-2.438a1.165 1.165 0 0 1-.067-.112c-.61-.406-1.244-.271-1.786-.271-.317.293-.588.541-.837.767-.022.722-.543 1.286-.452 1.986-.791 1.76-1.13 3.655-1.786 5.46-.34.925-.543 1.873-.814 2.82-.249.948-.791 1.805-.791 2.82-.86 1.919-1.289 3.972-1.922 5.98-.158.496-.248.97.068 1.444.09.135.045.338.045.316.362.383.633.654.86.925h1.356c.316-.406.633-.79.927-1.173-.068-1.286.203-2.144.79-3.52h6.647c.181.722.272 1.421.52 2.076.114.27.227.541.181.812-.067.835.204 1.489 1.153 1.805.226.023.565.023.95.023Zm5.29 0c.61-.046 1.311.135 1.808-.361.181-.226.34-.452.566-.768v-6.994c1.65 0 3.278-.068 4.883.022.972.045 1.763-.248 2.532-.722.361-.225.678-.564.994-.88.837-.812 1.244-1.805 1.267-2.978v-5.528c0-.27-.068-.564-.136-.835-.249-.97-.769-1.692-1.47-2.324-.814-.744-1.763-1.196-2.893-1.196h-7.596c-.249.271-.498.542-.792.813v20.96c.294.249.566.52.837.79Zm16.277 0h4.702c.272-.271.543-.542.814-.79v-1.354c-.339-.632-.859-1.015-1.537-1.083V29.49a44.13 44.13 0 0 0 1.424-.744c.068-.587.113-1.196.158-1.625-.361-.406-.61-.7-.813-.925h-4.612c-.385.338-.656.586-.995.902.068.542.158 1.151.226 1.67.543.27.972.496 1.357.7v16.064c-.227.046-.475 0-.566.113-.316.316-.859.406-.972.925v1.354l.814.813Z"/>
  <path d="M23.857 40.568c-1.334.045-2.735.068-4.137.113-.045 0-.113.09-.249.203.023-1.399.814-2.527.905-3.813.678-1.128.746-2.46 1.198-3.723.136.136.339.27.339.384.023.97.588 1.805.769 2.73.135.632.497 1.24.587 1.872.09.813.633 1.422.588 2.234Zm18.199-4.376c-.158.248-.294.496-.474.722-.317.36-.724.564-1.244.541-1.582-.022-3.165 0-4.793 0v-8.122c1.65 0 3.346-.023 5.02 0 .79.022 1.469.834 1.491 1.692v5.167Z"/>
</svg>
