<svg xmlns="http://www.w3.org/2000/svg" width="66" height="75" fill="currentColor" viewBox="0 0 66 75">
  <path d="M.006.013c0 .291-.013.49 0 .687.5 5.498 1.002 10.996 1.49 16.507.685 7.797 1.357 15.594 2.042 23.379.778 8.748 1.569 17.484 2.32 26.233.053.634.277.912.87 1.07 8.435 2.326 16.844 4.665 25.28 6.978.567.159 1.252.185 1.819.026 8.462-2.326 16.91-4.691 25.372-7.03.646-.185.87-.476.923-1.137.263-3.304.58-6.62.87-9.925.487-5.471.962-10.943 1.45-16.414.566-6.423 1.146-12.832 1.713-19.255.421-4.784.87-9.555 1.291-14.34.198-2.246.37-4.492.554-6.792H.006v.013Zm53.262 19.084L51.963 33.62 50.46 50.299c-.145 1.6-.355 3.198-.395 4.81-.026.86-.395 1.084-1.107 1.282-5.088 1.375-10.162 2.789-15.237 4.19-.224.066-.435.145-.659.211-.079-.04-.158-.066-.25-.105-5.43-1.48-10.86-2.974-16.291-4.48-.224-.067-.514-.424-.54-.675-.383-4.123-.725-8.246-1.095-12.449h8.291c.145 1.652.303 3.33.435 5.022.119 1.56.105 1.56 1.568 1.956 2.623.7 5.26 1.388 7.882 2.075l-.026-.066c2.873-.767 5.746-1.52 8.62-2.34.264-.079.567-.502.606-.792.172-1.269.264-2.55.37-3.82.17-2.048.342-4.096.526-6.237H33.036l.026-.053H14.504c-.25-2.736-.487-5.445-.738-8.234h19.309l-.026-.053h10.848c.25-2.84.5-5.616.75-8.444h-11.61l.026-.053h-.21c-6.499.013-12.996.013-19.494.026-.093 0-.185-.04-.356-.092-.238-2.696-.488-5.392-.725-8.168h20.785l-.026-.052h20.667c-.145 1.85-.29 3.594-.435 5.339Z"/>
</svg>
