<svg xmlns="http://www.w3.org/2000/svg" width="75" height="75" fill="currentColor" viewBox="0 0 75 75">
  <path d="M73.603 34.197 40.809 1.407c-1.876-1.876-4.976-1.876-6.853 0l-6.77 6.77 8.647 8.646c2.04-.652 4.323-.245 5.873 1.387 1.632 1.63 2.04 3.915 1.387 5.954l8.32 8.32c2.04-.653 4.325-.245 5.956 1.386 2.284 2.203 2.284 5.873 0 8.157s-5.873 2.284-8.158 0c-1.713-1.713-2.12-4.16-1.223-6.28l-7.75-7.75V48.39c.57.245 1.06.653 1.55 1.06 2.284 2.203 2.284 5.873 0 8.157a5.862 5.862 0 0 1-8.158 0c-2.284-2.284-2.284-5.873 0-8.157a5.316 5.316 0 0 1 1.876-1.223V27.59c-.652-.245-1.305-.734-1.876-1.224-1.713-1.713-2.12-4.16-1.224-6.28l-8.565-8.483-22.434 22.43c-1.876 1.877-1.876 4.976 0 6.852L34.12 73.593c1.876 1.876 4.976 1.876 6.852 0l32.55-32.545c1.957-1.958 1.957-4.975.08-6.851Z"/>
</svg>
