<svg xmlns="http://www.w3.org/2000/svg" width="75" height="75" fill="currentColor" viewBox="0 0 75 75">
  <path d="M0 0h75v75H0V0Zm67.1 39.703c-1.52-2.735-3.596-4.609-6.583-5.267-2.127-.506-4.254-.506-6.381-.05-6.888 1.417-9.825 9.723-5.368 15.243 1.57 1.924 3.646 3.089 5.824 4.102 1.924.911 3.899 1.772 5.823 2.734 1.317.659 1.874 1.874 1.722 3.343-.152 1.468-1.165 2.278-2.43 2.734-2.837 1.013-6.128.102-8.053-2.279a44.957 44.957 0 0 1-1.215-1.62c-1.925 1.114-3.798 2.177-5.672 3.291 1.165 2.28 2.785 4.103 5.014 5.318 3.798 2.076 7.798 2.38 11.9 1.367 2.684-.658 4.963-2.025 6.381-4.507 2.633-4.71 1.114-10.584-3.545-13.47-2.076-1.267-4.406-2.128-6.583-3.242-1.064-.557-2.178-1.063-3.09-1.772-1.62-1.317-1.316-3.95.507-4.963 1.773-1.013 4.254-.405 5.621 1.367.304.355.507.76.81 1.165a242.553 242.553 0 0 1 5.318-3.494ZM19.75 62.694c1.013 2.178 2.482 3.9 4.558 5.014 2.684 1.468 5.621 1.721 8.609 1.266 2.684-.406 4.912-1.62 6.38-4.052 1.216-2.025 1.57-4.253 1.57-6.634V34.486H33.83v23.601c0 .709-.051 1.468-.152 2.177-.203 1.165-.81 2.026-1.975 2.38-2.178.659-3.95 0-5.217-1.873a24.553 24.553 0 0 0-.962-1.52 581.85 581.85 0 0 0-5.773 3.444Z"/>
</svg>
