<svg xmlns="http://www.w3.org/2000/svg" width="80" height="75" fill="currentColor" viewBox="0 0 80 75">
  <path fill-rule="evenodd" d="m78.301 19.705-7.09 9.93-7.09-9.93h3.866c-.295-7.379-6.38-13.281-13.816-13.281-6.275 0-11.597 4.218-13.278 9.965a28.855 28.855 0 0 0-6.31-1.268c.243-.92.555-1.84.936-2.725a20.267 20.267 0 0 1 4.334-6.441 19.95 19.95 0 0 1 6.431-4.34A19.791 19.791 0 0 1 54.171 0c2.74 0 5.391.538 7.888 1.597a20.232 20.232 0 0 1 6.43 4.34 20.265 20.265 0 0 1 4.334 6.442 19.702 19.702 0 0 1 1.578 7.326h3.9ZM68.386 75v-4.271H43.944c.173-.087.346-.156.52-.243a29.435 29.435 0 0 0 7.28-4.93c.295-.278.572-.539.833-.8.294-.294.606-.607.901-.937.347-.382.693-.78 1.005-1.18h13.903v-4.271L80 66.684 68.386 75Zm-9.014-30.85c0 3.697-.728 7.291-2.15 10.676a27.218 27.218 0 0 1-5.027 7.83l-.832.886c-.26.26-.52.503-.78.764a27.593 27.593 0 0 1-6.83 4.635c-.347.174-.71.33-1.075.486-.017 0-.017.017-.034.017a16.781 16.781 0 0 1-6.588 1.32H0V62.69h33.474c10.123 0 18.426-8.108 18.565-18.247v-.26c0-11.076-8.98-20.07-20.039-20.07-11.06-.034-20.039 8.942-20.039 20.035h4.646L8.303 55.781 0 44.15h4.646c0-3.698.728-7.291 2.15-10.677a27.45 27.45 0 0 1 5.858-8.715 27.123 27.123 0 0 1 8.702-5.868 27.332 27.332 0 0 1 10.661-2.153c.746 0 1.474.035 2.202.087 2.15.174 4.247.59 6.292 1.267.728.243 1.44.504 2.15.816a27.407 27.407 0 0 1 8.702 5.868 27.169 27.169 0 0 1 5.86 8.716 27.298 27.298 0 0 1 2.149 10.66Z" clip-rule="evenodd"/>
</svg>
