<svg xmlns="http://www.w3.org/2000/svg" width="75" height="75" fill="currentColor" viewBox="0 0 75 75">
  <path d="M74.932 5.969C74.385 3.104 72.167.784 69.333.17c-.136-.035-.273-.035-.444-.069-.034 0-.068-.068-.102-.102H6.179c-.034.034-.068.102-.137.102C3.21.58.82 2.831.171 5.696A3.321 3.321 0 0 1 0 6.07v62.722c.034.068.102.102.102.17.683 3.138 2.595 5.082 5.701 5.867.103.034.171.102.24.17h62.846c.069-.034.103-.102.171-.136 3.107-.717 5.018-2.593 5.803-5.696.035-.103 0-.239.035-.341 0-.034.068-.069.102-.103V6.174c0-.069-.068-.103-.068-.205ZM43.525 41.576h-9.32c0 .034-.033.034-.033.068v26.705h-7.476V41.61h-9.388v-5.968H43.49v5.935h.034ZM68.72 59.413c-.069 1.16-.24 2.286-.717 3.377-.137.341-.24.648-.41.989-.614 1.296-1.638 2.217-2.833 2.967-1.366.853-2.868 1.33-4.438 1.637-1.741.341-3.482.444-5.257.376-.854-.035-1.707-.035-2.56-.137-2.015-.239-3.995-.682-5.838-1.569-.102-.034-.24-.204-.24-.307V59.96c.547.375 1.093.75 1.64 1.057 1.33.785 2.799 1.33 4.3 1.672 1.298.306 2.595.34 3.892.272a6.981 6.981 0 0 0 2.868-.716c.785-.41 1.434-.955 1.605-1.876.17-.818.102-1.637-.376-2.353-.683-1.023-1.639-1.671-2.697-2.217-1.195-.58-2.39-1.091-3.618-1.637-1.81-.819-3.585-1.705-5.053-3.07-1.195-1.125-2.082-2.455-2.492-4.058-.239-.955-.307-1.91-.273-2.865.034-2.353.888-4.366 2.56-6.037 1.366-1.364 3.039-2.183 4.882-2.66 1.263-.307 2.526-.546 3.823-.58.922 0 1.844-.102 2.731-.068 1.4.034 2.766.102 4.131.443.888.239 1.81.477 2.697.682.17.034.239.137.239.341v6.378c0 .068 0 .136-.034.239-.273-.17-.512-.307-.751-.444-1.093-.613-2.253-1.023-3.448-1.33-1.331-.307-2.663-.511-4.028-.477-.922.034-1.878.17-2.731.477-1.059.376-1.912.99-2.288 2.115-.307.887-.068 1.637.478 2.353.683.887 1.605 1.501 2.595 1.978 1.331.648 2.697 1.194 3.994 1.808 1.502.716 3.004 1.433 4.267 2.49 1.093.92 2.082 1.944 2.629 3.308.307.819.58 1.671.58 2.592a5.35 5.35 0 0 1 .17 1.637Z"/>
</svg>
