<svg xmlns="http://www.w3.org/2000/svg" width="75" height="75" fill="currentColor" viewBox="0 0 75 75">
  <path fill-rule="evenodd" d="M44.99 8h-9.824v14.83c-1.467-.376-2.68-.502-4.274-.502C20.625 22.328 14 28.766 14 38.686c0 10.295 6.246 15.656 18.245 15.668 4.008 0 7.713-.374 12.745-1.326V8ZM32.197 30.443c1.214 0 2.162.125 3.313.5v15.62c-1.404.188-2.289.25-3.376.25-5.032 0-7.776-2.856-7.776-8.028 0-5.311 2.87-8.342 7.84-8.342Z" clip-rule="evenodd"/>
  <path d="M61.056 46.082V23.537h-9.811v19.188c0 8.467-.443 11.686-1.846 14.465-1.34 2.718-3.44 4.499-7.776 6.514L50.739 68c4.337-2.155 6.436-4.107 8.029-7.202 1.707-3.218 2.288-6.952 2.288-14.716ZM60.079 8h-9.824v9.982h9.824V8Z"/>
</svg>
