<svg xmlns="http://www.w3.org/2000/svg" width="75" height="75" fill="currentColor" viewBox="0 0 75 75">
  <path d="M74.271 30.427c-.209-.174-2.088-1.604-6.122-1.604-1.044 0-2.122.104-3.166.279-.765-5.34-5.183-7.922-5.357-8.062l-1.078-.629-.696 1.012a14.96 14.96 0 0 0-1.913 4.468c-.73 3.036-.278 5.898 1.253 8.341-1.844 1.046-4.835 1.291-5.461 1.325H2.336a2.335 2.335 0 0 0-2.331 2.34A35.429 35.429 0 0 0 2.16 50.635c1.704 4.468 4.244 7.783 7.513 9.807 3.687 2.269 9.705 3.56 16.488 3.56 3.06 0 6.122-.28 9.148-.838a37.67 37.67 0 0 0 11.965-4.361 32.766 32.766 0 0 0 8.14-6.7c3.93-4.433 6.262-9.388 7.966-13.786h.696c4.278 0 6.922-1.71 8.383-3.176.974-.908 1.704-2.024 2.227-3.281l.313-.908-.73-.524h.001Z"/>
  <path d="M6.958 34.154h6.61a.587.587 0 0 0 .59-.594v-5.943a.587.587 0 0 0-.59-.594h-6.61a.587.587 0 0 0-.591.594v5.943c.034.35.278.594.591.594Zm9.112 0h6.61a.587.587 0 0 0 .591-.594v-5.943a.587.587 0 0 0-.591-.594h-6.61a.587.587 0 0 0-.591.594v5.943c.034.35.278.594.591.594Zm9.289 0h6.609a.587.587 0 0 0 .591-.594v-5.943a.587.587 0 0 0-.591-.594h-6.61a.587.587 0 0 0-.59.594v5.943c0 .35.243.594.59.594Zm9.148 0h6.609a.587.587 0 0 0 .591-.594v-5.943a.587.587 0 0 0-.591-.594h-6.61a.587.587 0 0 0-.59.594v5.943c0 .35.277.594.59.594ZM16.07 25.661h6.61a.61.61 0 0 0 .591-.594v-5.943a.587.587 0 0 0-.591-.594h-6.61a.587.587 0 0 0-.591.594v5.943c.034.315.278.594.591.594Zm9.289 0h6.609a.61.61 0 0 0 .591-.594v-5.943a.587.587 0 0 0-.591-.594h-6.61a.587.587 0 0 0-.59.594v5.943c0 .315.243.594.59.594Zm9.148 0h6.609a.61.61 0 0 0 .591-.594v-5.943a.61.61 0 0 0-.591-.594h-6.61a.587.587 0 0 0-.59.594v5.943a.61.61 0 0 0 .59.594Zm0-8.53h6.609a.587.587 0 0 0 .591-.594v-5.943a.61.61 0 0 0-.591-.594h-6.61a.587.587 0 0 0-.59.594v5.943a.61.61 0 0 0 .59.594Zm9.217 17.023h6.609a.587.587 0 0 0 .591-.594v-5.943a.587.587 0 0 0-.591-.594h-6.61a.587.587 0 0 0-.59.594v5.943c.034.35.277.594.59.594Z"/>
</svg>
