<svg xmlns="http://www.w3.org/2000/svg" width="75" height="75" fill="currentColor" viewBox="0 0 75 75">
  <g clip-path="url(#a)">
    <path d="M62.19 57.182c-.19-.345-.396-.697-.665-.978-.874-.917-1.301-2.017-1.542-3.238-.258-1.316-.72-2.535-2.172-3.107 1.197-3.948.462-7.554-1.212-11.07-1.48-3.11-3.66-5.727-5.79-8.38-2-2.494-2.976-5.252-2.874-8.51.075-2.38-.128-4.81-.557-7.155-.611-3.342-2.437-5.877-5.994-6.543-1.464-.276-3.034-.238-4.525-.068-3.614.41-6.101 2.632-6.69 6.213-.364 2.194-.422 4.485-.267 6.708.297 4.26-.608 8.042-3.39 11.38-1.374 1.65-2.577 3.468-3.68 5.317-1.983 3.327-3.447 6.843-3.119 10.854.013.172.008.402-.09.517-1.09 1.27-1.906 2.76-3.746 3.294-2.181.634-2.831 1.946-2.448 4.206.214 1.27.236 2.487-.16 3.765-.747 2.398.056 3.603 2.53 4.121.295.062.596.11.897.145 2.422.264 4.797.64 7.016 1.786.92.475 2.015.698 3.056.83 2.106.264 4.004-.158 5.255-2.115.087-.136.248-.304.39-.319 2.408-.257 4.815-.578 7.233-.694 1.32-.063 2.654.27 3.987.35.529.03.779.18 1.005.678.924 2.046 2.714 3.034 4.938 2.796 2.078-.224 3.723-1.292 5.063-2.807 1.155-1.307 2.526-2.26 4.068-3.019.898-.443 1.807-.883 2.643-1.427 1.407-.91 1.652-2.057.84-3.53Zm-24.745-37.93a5.25 5.25 0 0 1 .515-1.447c1.13-2.09 3.594-2.13 4.817-.1.974 1.619.848 3.692-.364 5.163a587.36 587.36 0 0 1-1.226-.507c.075-.882.235-1.654.179-2.411-.05-.676-.387-1.366-1.203-1.37-.761-.005-1.051.65-1.228 1.278-.114.4-.11.833-.157 1.252-1.433-.286-1.605-.5-1.333-1.858Zm-5.572-1.965c.65-.617 1.447-.681 2.132-.113 1.018.846 1.361 2.007 1.212 3.26-.04.324-.632.581-1.114.992-.122-.737-.142-1.925-1.084-2.17-.703-.183-.834.924-.843 1.373-.006.262.48 1.825.347 1.93l-.413.338c-1.482-1.243-1.59-4.325-.237-5.61Zm.062 6.24c.58-.436 1.14-.902 1.694-1.373.81-.686 1.697-1.162 2.823-1.244.634.188 1.287.325 1.893.578 1.254.524 2.482 1.114 3.722 1.672 1.619.732 1.828 1.973.522 3.19a4.74 4.74 0 0 1-.959.687 141.317 141.317 0 0 1-3.221 1.668c-1.712.867-3.152.666-4.612-.578-.599-.51-1.267-.935-1.884-1.424-1.435-1.13-1.416-2.095.022-3.176Zm-.573 41.304c-.8 1.419-2.198 1.703-4.213 1.822-.783-.217-2.152-.387-3.318-.967-2.205-1.096-4.528-1.517-6.925-1.747a7.354 7.354 0 0 1-.72-.106c-2.333-.449-2.885-1.243-2.136-3.479.46-1.378.28-2.69.091-4.04-.248-1.771.217-2.66 1.918-3.202 1.468-.47 2.517-1.342 3.4-2.576 1.497-2.088 3.2-2.151 4.821-.153.796.98 1.352 2.15 2.035 3.225a316.595 316.595 0 0 0 3.04 4.73c.536.808 1.156 1.562 1.693 2.37.867 1.307 1.113 2.703.314 4.123Zm13.44-5.333c-3.632 2.377-7.452 3.284-11.657 1.54-1.493-.62-2.229-1.87-3.075-3.066.073-.078.105-.148.153-.16 1.754-.466 2.27-1.457 1.289-3.015-.73-1.16-1.756-2.152-2.744-3.125-.597-.59-1.358-1.02-2.07-1.484-2.876-1.882-3.809-3.986-3.192-7.378.486-2.674 1.796-4.984 3.19-7.253.075.035.148.067.221.102-.356.716-.702 1.437-1.07 2.147-1.08 2.082-1.872 4.249-1.549 6.636.126.942.533 1.845.813 2.767.087-.027.177-.055.264-.084.197-1.155.27-2.349.619-3.457a54.526 54.526 0 0 1 2.015-5.357c1.329-3.064 2.789-6.074 3.433-9.385.108-.56.183-1.126.303-1.874.668.503 1.236.89 1.756 1.334 1.634 1.396 3.172 1.648 5.038.682 1.655-.856 3.268-1.79 4.864-2.672.699 1.948 1.363 4.065 2.215 6.102 1.043 2.491 2.288 4.895 3.355 7.376.551 1.277.946 2.626 1.344 3.962.304 1.026.259 1.039 1.526 1.188 1.14-4.22-.576-7.496-3.145-10.584.131.068.292.108.388.21 2.713 2.873 4.481 6.125 4.012 10.24-.055.49.117.678.515.895.743.404 1.517.809 2.135 1.371.44.398.703 1.031.93 1.606.089.232-.132.586-.294.856-.767-2.06-3.162-3.716-5.414-3.703-1.018.005-1.6.462-1.922 1.473-.078.248-.159.599-.345.692-1.931.973-2.276 2.781-2.542 4.654a269.7 269.7 0 0 1-.895 5.926c-.049.302-.224.681-.463.838Zm9.331-9.938c-.635.874-1.517 1.466-2.588 1.487-.487.01-1.241-.33-1.424-.72-.376-.81-.578-1.758-.61-2.658-.09-2.625 6.066-.097 4.622 1.89Zm6.746 10.586c-.715.453-1.482.832-2.249 1.194-1.723.814-3.265 1.843-4.523 3.309-1.003 1.17-2.26 2.017-3.774 2.437-3.18.88-5.72-1.344-5.235-4.6.09-.6.19-1.21.387-1.778.884-2.55 1.236-5.183 1.415-7.86.055-.804.257-1.63.566-2.376.248-.602.757-1.095 1.237-1.757.352.967.518 1.655.84 2.263.618 1.174 1.646 1.656 2.898 1.243a9.24 9.24 0 0 0 2.563-1.316c1.297-.953 3.134-.599 3.82.862.027.054.067.105.08.164.418 2.08 1.278 3.928 2.594 5.625.82 1.057.53 1.864-.619 2.59Z"/>
    <path d="M42.167 24.801c-2.128 1.006-3.948 2.793-6.558 2.577-1.75-.144-2.988-1.204-4.069-2.453.055-.078.11-.159.167-.237.273.239.55.474.823.717 2.082 1.87 3.718 2.1 6.224.834.757-.381 1.473-.843 2.22-1.245.346-.188.724-.317 1.087-.472l.106.279Z"/>
  </g>
  <defs>
    <clipPath id="a">
      <path d="M13 8h49.651v60H13z"/>
    </clipPath>
  </defs>
</svg>
