<svg xmlns="http://www.w3.org/2000/svg" width="75" height="75" fill="currentColor" viewBox="0 0 75 75">
  <path fill-rule="evenodd" d="M39.372 66.63c1.092.902 2.372 1.287 3.754 1.359a7.51 7.51 0 0 0 1.722-.1 24.187 24.187 0 0 0 2.65-.628c1.766-.533 3.293-1.454 4.433-2.942.65-.849 1.183-1.766 1.526-2.78a31.67 31.67 0 0 0 .76-2.537c.166-.675.25-1.371.35-2.06.068-.456.109-.917.15-1.377.07-.746.14-1.492.19-2.24.035-.52.033-1.043.053-1.564.007-.159.033-.317.048-.475.013-.147.087-.197.237-.195.526.008 1.054.022 1.58-.002.59-.026 1.183-.052 1.763-.149a28.259 28.259 0 0 0 2.454-.524c.956-.25 1.832-.698 2.677-1.207.982-.595 1.88-1.291 2.605-2.189.633-.78.933-1.686.78-2.674-.222-1.435-1.428-2.375-2.83-2.44-.508-.022-1.024.031-1.53.095-.612.078-1.215.216-1.825.307-.422.063-.85.091-1.27.135l-.011-.055c.786-1.485 1.605-2.953 2.348-4.458.571-1.155 1.058-2.351 1.562-3.54.835-1.966 1.501-3.993 2.053-6.055.528-1.973.98-3.967 1.124-6.015.057-.817.097-1.637.091-2.456-.004-.653-.074-1.307-.14-1.957-.074-.746-.3-1.453-.611-2.133-.41-.897-1.049-1.632-1.72-2.33-.536-.56-1.127-1.07-1.713-1.579-.835-.726-1.775-1.307-2.75-1.822a15.85 15.85 0 0 0-3.488-1.353 43.571 43.571 0 0 0-2.229-.5c-.265-.054-.533-.19-.801-.19h-5.038c-.182 0-.362.12-.546.14a19.15 19.15 0 0 0-3.555.734c-.433.133-.828.055-1.24.017-.315-.03-.625-.11-.94-.126-1.202-.06-2.404-.147-3.605-.134-1.15.012-2.29.203-3.403.518-.932.266-1.844.588-2.68 1.079-.357.21-.64.17-1.01.064a63.673 63.673 0 0 0-3.758-.978c-.786-.176-1.596-.265-2.4-.348a28.128 28.128 0 0 0-2.32-.144 20.632 20.632 0 0 0-2.273.051c-1.2.107-2.377.35-3.52.744a11.73 11.73 0 0 0-3.486 1.902c-1.066.844-1.922 1.873-2.609 3.05a13.658 13.658 0 0 0-1.53 3.964c-.61 2.754-.563 5.846-.087 8.634.143.842.271 1.681.444 2.517.242 1.168.473 2.335.741 3.498a58.8 58.8 0 0 0 .639 2.524c.353 1.279.698 2.559 1.098 3.822.373 1.174.797 2.331 1.22 3.49.58 1.6 1.292 3.15 2.127 4.634.728 1.287 1.559 2.491 2.674 3.481.735.654 1.552 1.155 2.503 1.406a4.955 4.955 0 0 0 2.275.063 5.402 5.402 0 0 0 2.373-1.136c.08-.065.168-.116.264.005.362.458.845.764 1.352 1.028 1.366.713 2.854.927 4.366 1.013.367.02.736-.032 1.105-.041.72-.02 1.418-.16 2.105-.36.36-.103.712-.236 1.079-.36.019.391.043.767.055 1.143l.05 2.049c.01.312.023.624.051.934.075.801.147 1.602.243 2.4.066.55.135 1.104.264 1.642a18.81 18.81 0 0 0 1.062 3.16 6.78 6.78 0 0 0 1.918 2.55Zm-2.188-10.218a126.4 126.4 0 0 1-.097-2.888c-.026-1.183-.034-2.367-.05-3.55l-.004-.045c-.601.361-1.194.756-1.821 1.082a6.1 6.1 0 0 1-2.36.666c-.648.049-1.306.093-1.95.042-1.058-.086-2.116-.251-3.063-.773-.384-.211-.785-.469-1.05-.806-.634-.81-.33-1.833.627-2.325.66-.341 1.382-.483 2.099-.649a21.72 21.72 0 0 0 1.85-.506c.6-.196.98-.684 1.354-1.162l.594-.763-.714-.075a6.474 6.474 0 0 1-2.03-.547c-.552-.245-.56-.271-.966.168-.676.735-1.334 1.487-1.998 2.234-.488.55-.972 1.102-1.46 1.654-.48.545-.93 1.121-1.449 1.628-.769.753-1.696 1.206-2.803 1.155-.71-.033-1.36-.282-1.944-.688-1.206-.84-2.018-2.016-2.759-3.25-.947-1.582-1.675-3.266-2.297-4.997-.431-1.197-.864-2.394-1.24-3.608a98.056 98.056 0 0 1-1.12-3.989 76.391 76.391 0 0 1-.73-3.04 108.59 108.59 0 0 1-.72-3.483c-.146-.787-.23-1.585-.35-2.376a15.832 15.832 0 0 1-.13-3.217c.051-.966.19-1.928.327-2.888.19-1.327.628-2.579 1.257-3.762.388-.72.864-1.39 1.416-1.995.908-1.004 2.006-1.73 3.228-2.275.854-.381 1.757-.61 2.676-.79 1.365-.265 2.742-.254 4.12-.226.601.013 1.201.122 1.803.182 1.295.129 2.564.402 3.818.737.914.245 1.809.563 2.714.839.09.027.224.025.299-.023 1.228-.802 2.569-1.331 3.997-1.634a11.596 11.596 0 0 1 1.654-.2c.673-.043 1.353-.083 2.024-.043.807.046 1.612.165 2.415.275.39.053.77.188 1.16.225.188.017.386-.119.583-.165 1.008-.233 2.012-.492 3.029-.676.756-.136 1.53-.2 2.3-.245.858-.049 1.722-.085 2.58-.044 1.085.053 2.162.207 3.224.454 1.318.307 2.58.752 3.781 1.37.898.462 1.75.997 2.519 1.655.503.432 1.018.858 1.472 1.34.56.593 1.133 1.186 1.485 1.946.265.573.454 1.166.506 1.793.065.781.143 1.564.136 2.346-.006.747-.109 1.493-.18 2.24-.166 1.698-.534 3.36-.983 5a57.134 57.134 0 0 1-1.273 4.02c-.432 1.22-.931 2.418-1.435 3.612a39.744 39.744 0 0 1-1.21 2.608c-.824 1.616-1.682 3.216-2.675 4.74-.17.262-.334.531-.5.8.433.292.923.395 1.417.448.47.05.949.082 1.418.047.751-.056 1.5-.164 2.247-.268.74-.103 1.464-.314 2.225-.258.758.055 1.301.632 1.25 1.342-.034.45-.24.835-.539 1.165-1.41 1.556-3.181 2.5-5.207 2.965-.77.176-1.562.267-2.35.34-.673.06-1.349.076-2.024.048-.495-.018-.985-.131-1.49-.204-.052.462-.1.944-.159 1.424l-.236 1.842c-.07.584-.126 1.17-.2 1.754-.072.566-.162 1.13-.237 1.696-.07.527-.122 1.057-.201 1.584-.12.807-.235 1.615-.393 2.416-.189.957-.478 1.883-.951 2.746-.577 1.054-1.394 1.856-2.435 2.45-1.072.613-2.245.931-3.433 1.198a8.26 8.26 0 0 1-2.56.143c-1.478-.134-2.739-.766-3.693-1.912-.91-1.094-1.525-2.346-1.745-3.765a29.953 29.953 0 0 1-.241-2.035 52.52 52.52 0 0 1-.15-2.274Zm1.66-9.721c.01.505-.042 1.011-.04 1.517.01 2.354.027 4.708.047 7.063.004.384.023.77.05 1.154.058.804.116 1.61.194 2.41a29.5 29.5 0 0 0 .221 1.704c.128.8.493 1.513.906 2.195.356.586.82 1.083 1.43 1.427 1.036.583 2.152.632 3.277.417.76-.144 1.507-.377 2.244-.618a4.975 4.975 0 0 0 1.937-1.16c.517-.5.884-1.112 1.131-1.786.48-1.308.63-2.685.828-4.051.075-.512.14-1.025.207-1.538.077-.583.155-1.166.23-1.749.056-.435.105-.87.158-1.304.077-.624.157-1.247.229-1.87.056-.483.102-.968.152-1.452.063-.618.13-1.235.186-1.855.042-.469.025-.947.108-1.408.153-.845.553-1.564 1.302-2.03.313-.194.668-.322 1.015-.486l-.06-.091c-.32-.417-.65-.827-.964-1.248-.495-.662-.851-1.4-1.209-2.142-.339-.703-.753-1.368-1.11-2.063-.622-1.213-1.255-2.423-1.829-3.658-.72-1.553-1.288-3.161-1.467-4.882-.076-.727-.096-1.455.052-2.176.236-1.151.837-2.052 1.849-2.67.938-.572 1.983-.758 3.054-.816.664-.036 1.332-.006 2.021-.006l-.022-.117c-.43-.897-.83-1.809-1.3-2.684-.661-1.236-1.51-2.35-2.453-3.383a17.016 17.016 0 0 0-2.285-2.103 15.95 15.95 0 0 0-2.591-1.619 15.201 15.201 0 0 0-3.427-1.218 16.87 16.87 0 0 0-3.482-.424c-1.004-.01-2.002.036-2.98.262-1.477.341-2.828.95-4.003 1.934a10.361 10.361 0 0 0-1.73 1.855c-.589.807-1.063 1.681-1.468 2.596a18.085 18.085 0 0 0-1.201 3.904c-.13.67-.233 1.345-.337 2.02-.037.237-.04.477-.061.749l.446-.233.435-.195c1.473-.673 2.998-1.106 4.637-1.057.697.021 1.362.16 1.983.465 1.188.586 1.882 1.582 2.184 2.842.209.87.352 1.757.491 2.643.108.69.22 1.39.232 2.086.018 1.019-.033 2.04-.089 3.058a8.53 8.53 0 0 1-.531 2.532c-.55 1.472-1.165 2.92-1.739 4.384-.189.483-.335.984-.513 1.516h.724c.088.002.177.005.262.025.658.155 1.23.454 1.7.96.626.673.953 1.46.97 2.373Zm-12.58-6.98a8.645 8.645 0 0 1-.667-2.765c-.063-.898.044-1.792.136-2.686a35.85 35.85 0 0 0 .19-2.605c.044-1.43-.053-2.857-.12-4.286-.042-.85.057-1.711.133-2.564a22.7 22.7 0 0 1 .299-2.294c.243-1.27.566-2.521 1.026-3.734.436-1.15.938-2.27 1.645-3.279.486-.692 1.035-1.337 1.564-2.013l-.158-.056c-1.72-.546-3.469-.974-5.268-1.16-.85-.088-1.704-.14-2.556-.19-.262-.016-.528.02-.79.044-.65.063-1.31.088-1.949.21-1.089.207-2.134.555-3.1 1.122a7.698 7.698 0 0 0-2.21 1.957c-.675.872-1.13 1.858-1.456 2.908-.385 1.24-.57 2.517-.619 3.804-.043 1.13-.064 2.265.13 3.39.145.836.242 1.682.402 2.517.214 1.137.455 2.27.722 3.395.386 1.611.772 3.224 1.23 4.815a72.95 72.95 0 0 0 1.467 4.528 48.69 48.69 0 0 0 1.477 3.592 19.96 19.96 0 0 0 1.209 2.227c.468.764 1.002 1.49 1.725 2.044.913.7 1.62.809 2.548.04.397-.328.733-.735 1.08-1.122.548-.614 1.078-1.247 1.625-1.864.697-.785 1.402-1.563 2.102-2.346.148-.165.291-.336.435-.503l-.24-.209a8.73 8.73 0 0 1-2.012-2.917Zm26.409-23.4a30.01 30.01 0 0 1 1.628 2.068 18.666 18.666 0 0 1 2.35 4.47c.255.704.46 1.414.368 2.184-.063.539-.059 1.085-.106 1.628-.04.45-.111.9-.17 1.349-.087.677-.214 1.354-.251 2.034-.037.649.002 1.303.042 1.952.041.66.13 1.317.19 1.975.069.748.161 1.493.182 2.242.017.614-.038 1.232-.09 1.846a7.349 7.349 0 0 1-.53 2.14c-.198.484-.432.952-.654 1.436l.09.093.135.105.137-.244a46.052 46.052 0 0 0 3.06-5.652 89.804 89.804 0 0 0 1.616-3.82 42.561 42.561 0 0 0 1.92-6.151c.22-.941.388-1.897.537-2.852.116-.747.212-1.503.234-2.256.023-.8-.021-1.605-.095-2.402-.055-.602-.204-1.208-.58-1.699-.607-.788-1.262-1.54-2.067-2.137-.678-.502-1.354-1.018-2.081-1.44-1.154-.67-2.402-1.114-3.707-1.417-1.274-.297-2.563-.425-3.861-.453-.765-.016-1.534.066-2.298.139-.692.064-1.38.175-2.076.267.747.42 1.485.794 2.18 1.235a17.107 17.107 0 0 1 3.897 3.36ZM33.674 42.246c.472-1.512 1.116-2.956 1.74-4.407.506-1.178.782-2.418.874-3.693a15.59 15.59 0 0 0 .003-1.894c-.03-.701-.095-1.4-.193-2.095a29.994 29.994 0 0 0-.49-2.642c-.227-.94-.8-1.596-1.782-1.838-.597-.147-1.192-.141-1.797-.045-1.477.232-2.828.776-4.087 1.573-.253.16-.394.29-.35.653.094.77.114 1.552.11 2.329-.005 1.1-.052 2.2-.093 3.299-.014.358-.066.715-.105 1.071-.058.546-.172 1.091-.168 1.637a7.08 7.08 0 0 0 .197 1.68c.433 1.726 1.35 3.137 2.853 4.133.924.613 1.947.922 3.07.98.074-.257.143-.5.218-.741Zm-1.765-14.8c-.198-.415-.084-.76.374-.92.112-.038.227-.08.342-.091.16-.016.322-.005.484-.005.581.004 1.14.085 1.62.454.309.238.392.552.192.876-.284.459-.714.69-1.245.733-.834.069-1.42-.32-1.767-1.047Zm23.14-.152.19-1.66c.027-.222-.09-.283-.276-.289-.587-.016-1.173-.037-1.76-.047a4.771 4.771 0 0 0-1.916.345c-.679.28-1.196.727-1.407 1.466a4.428 4.428 0 0 0-.144 1.677c.083.871.28 1.728.587 2.547.41 1.093.84 2.185 1.353 3.231.695 1.417 1.481 2.79 2.22 4.185.197.372.364.761.569 1.196a6.769 6.769 0 0 0 .664-2.765c.02-.793-.042-1.588-.089-2.38-.028-.485-.097-.968-.144-1.452-.065-.674-.165-1.348-.181-2.024a19.28 19.28 0 0 1 .092-2.065c.055-.657.163-1.31.242-1.965Zm-1.322-.533c-.218.602-.683.942-1.288 1.041-.563.093-1.057-.114-1.423-.564-.262-.32-.162-.698.23-.915.45-.249.944-.312 1.527-.35.159.03.397.054.623.118.329.093.45.341.331.67ZM36.302 45.287c-.322-.263-.749-.279-1.055.01-.38.36-.714.77-1.049 1.175-.386.468-.749.954-1.246 1.317-.724.527-1.57.745-2.42.951-.675.165-1.354.318-2.031.475l-.009.088c.201.093.396.209.606.275 1.033.327 2.084.49 3.176.398.787-.068 1.538-.24 2.249-.577.979-.464 1.733-1.199 2.373-2.053.107-.143.156-.354.168-.538.044-.65-.286-1.132-.763-1.521Zm18.855-.282c-.506.17-.918.43-1.04.977-.084.37-.114.754-.147 1.133-.006.067.078.19.141.208.39.103.782.224 1.18.26.491.044.99.03 1.483.006a13.92 13.92 0 0 0 1.594-.15c1.237-.208 2.434-.545 3.497-1.247.384-.253.763-.511 1.144-.769l-.032-.054c-.406.06-.811.134-1.22.177-.83.09-1.662.183-2.496.231-.403.023-.812-.054-1.217-.087-.682-.055-1.347-.206-1.923-.57-.332-.21-.61-.233-.964-.115Z" clip-rule="evenodd"/>
</svg>
