<svg xmlns="http://www.w3.org/2000/svg" width="75" height="75" fill="currentColor" viewBox="0 0 75 75">
  <mask id="a" width="75" height="75" x="0" y="0" maskUnits="userSpaceOnUse" style="mask-type:luminance">
    <path d="M75 0H0v75h75V0Z"/>
  </mask>
  <g mask="url(#a)">
    <path fill-rule="evenodd" d="M8.152 19.565h29.347v-3.261H19.565V8.152S19.565 0 37.499 0c17.935 0 17.935 8.152 17.935 8.152s.135 14.518.068 19.486c-.068 4.97-3.329 8.23-8.23 8.23H27.718c-6.522 0-11.413 4.891-11.413 11.413v8.152H8.153S0 55.434 0 37.499c0-17.934 8.152-17.934 8.152-17.934ZM30.977 8.153a3.262 3.262 0 1 1-6.523-.001 3.262 3.262 0 0 1 6.523.001Z" clip-rule="evenodd"/>
    <path fill-rule="evenodd" d="M66.85 55.434H37.501v3.261h17.935v8.152s0 8.152-17.935 8.152-17.935-8.152-17.935-8.152V47.282c0-4.892 3.261-8.151 8.152-8.151h19.566c6.522 0 11.413-4.891 11.413-11.413v-8.152h8.151S75 19.566 75 37.501c0 17.934-8.152 17.934-8.152 17.934ZM50.542 66.848a3.262 3.262 0 1 1-6.523-.001 3.262 3.262 0 0 1 6.523.001Z" clip-rule="evenodd"/>
  </g>
</svg>
