<svg xmlns="http://www.w3.org/2000/svg" width="75" height="75" fill="currentColor" viewBox="0 0 75 75">
  <path d="M10.503 32.474c3.161 1.53 20.812 8.713 23.578 10.044 2.766 1.33 4.742 1.33 8.299-.466 3.49-1.862 20.088-8.714 23.249-10.377 1.646-.864 2.371-1.53 2.371-2.128v-6.053c0-.6-.79-1.131-2.371-1.73l-22.722-8.913c-3.162-1.198-4.413-1.131-8.101.2-3.754 1.33-21.274 8.314-24.37 9.511-1.514.599-2.37 1.198-2.37 1.796H8v6.053c0 .666.922 1.33 2.503 2.063Zm28.715.864-9.681-4.057 13.897-2.129-4.216 6.186Zm21.01-9.645-8.232 3.26-.857.332-8.166-3.26 9.089-3.658 8.166 3.326Zm-24.04-5.987-1.316-2.527 4.149 1.663 3.952-1.33-1.054 2.594 4.017 1.53-5.203.532-1.185 2.793-1.844-3.06-5.994-.532 4.479-1.663Zm-10.34 3.526c4.084 0 7.443 1.33 7.443 2.927 0 1.596-3.293 2.927-7.442 2.927-4.084 0-7.443-1.33-7.443-2.927s3.36-2.927 7.443-2.927ZM10.504 42.85c3.161 1.53 20.812 8.714 23.578 10.044 2.766 1.33 4.742 1.33 8.299-.465 3.49-1.863 20.088-8.714 23.249-10.377 1.646-.865 2.371-1.53 2.371-2.129V33.87c0 .599-.79 1.198-2.305 2.062-3.161 1.663-19.759 8.581-23.25 10.377-3.49 1.863-5.466 1.863-8.232.466-2.766-1.33-20.483-8.514-23.644-10.044-1.581-.732-2.503-1.397-2.503-1.996v6.12c-.066.598.856 1.197 2.437 1.995Zm0 9.978c3.161 1.53 20.812 8.714 23.578 10.044 2.766 1.33 4.742 1.33 8.299-.465 3.49-1.863 20.088-8.714 23.249-10.377C67.275 51.165 68 50.5 68 49.9v-6.053c0 .599-.79 1.197-2.305 2.062-3.161 1.663-19.759 8.58-23.25 10.377-3.49 1.862-5.466 1.862-8.232.465-2.766-1.33-20.483-8.514-23.644-10.044-1.581-.731-2.503-1.397-2.503-1.995v6.12c-.066.532.856 1.197 2.437 1.995Z"/>
</svg>
