<svg xmlns="http://www.w3.org/2000/svg" width="75" height="75" fill="currentColor" viewBox="0 0 75 75">
  <g clip-path="url(#a)">
    <path d="M66.1 24.5c.065-2.944-1.83-5.965-3.967-8.425-.15-.172-.303-.341-.454-.508a33.726 33.726 0 0 0-1.784-1.814c-1.913-1.812-3.524-2.962-3.524-2.962C45.555 2.653 35.375 2.718 29.108 3.99c-.18.038-.358.074-.53.112-.262.06-.515.119-.76.178a18.705 18.705 0 0 0-.48.125c-.704.186-1.339.381-1.893.57l-.334.116-.196.07-.284.106-.149.057a6.13 6.13 0 0 0-.462.18c-.043.02-.085.037-.127.054l-.184.078c-.148.061-.277.12-.392.172-.232.105-.395.186-.485.23l-.052.028-.007.004c-.012.004-.018.009-.023.01-.002.003-.004.003-.004.003C8.935 12.291 4.855 25.879 4.855 25.879c-.652 2.129-1.243 4.229-1.628 6.417-.037.227-.073.454-.106.68-.75 5.043-.286 9.927 1.187 14.571.286.913.614 1.816.98 2.708l-.11-.473s-1.24-6.06-.087-11.877c0 0 1.005-6.058 5.087-10.738 0 0 6.623-9.566 18.955-5.818 0 0 2.661.96 3.579 1.44.917.45 2.513 1.14 2.513 1.14 8.724 4.289 16.117 5.638 16.117 5.638C66.988 32.237 66.1 24.5 66.1 24.5ZM36.998 12.693 26.116 9.26c-.058 0-.353-.148-.886 0 0 0-5.943 1.53-4.91 4.83 0 0 .621 2.069 2.307 4.08l11.988-.477-.147.307a.834.834 0 0 1-.71.475l-11.091.54c-.013.002-.027.002-.04.002a.84.84 0 0 1-.637-.299c-1.776-2.119-2.442-4.29-2.47-4.381a3.224 3.224 0 0 1 .253-2.564c1.229-2.242 4.843-3.229 5.25-3.333a2.43 2.43 0 0 1 .66-.093c.28 0 .481.053.584.08.033.007.066.015.098.024l10.084 3.18a.844.844 0 0 1 .55 1.062Zm10.914 4.275a1.6 1.6 0 0 1-1.584 1.591h-.012a1.603 1.603 0 0 1-1.598-1.59v-.03a1.604 1.604 0 0 1 1.585-1.62h.013a1.6 1.6 0 0 1 1.596 1.607v.042ZM3.04 46.18c-.71-.849-1.373-1.739-1.941-2.697-.445-.809-.917-1.68-1.066-2.608-.148-.93.207-1.83.74-2.58.384-.57.859-1.02 1.095-1.71.035-.096.067-.191.094-.288A32.882 32.882 0 0 0 3.04 46.18Z"/>
    <path d="M4.322 47.562s-.01-.008-.014-.015C2.835 42.903 2.37 38.02 3.12 32.977c-.742 5.038-.27 9.936 1.201 14.585ZM23.317 5.808c.115-.051.244-.11.393-.172-.147.061-.278.12-.393.172Z"/>
    <path d="M33.794 2.55c-6.608.325-10.98 2.543-11.411 2.77-7.304 3.288-11.891 8.621-14.457 12.518-2.783 4.229-3.827 7.65-3.869 7.788-.618 2.02-1.245 4.206-1.652 6.526a32.356 32.356 0 0 0-.295 2.17c-.305-3.11-2.904-6.3-1.189-9.374.592-1.019 1.39-1.979 2.336-2.699 2.248-1.77 3.253-2.67 3.401-5.848.059-1.08.03-2.19.148-3.269.12-1.381.562-2.58 1.657-3.479 1.005-.812 2.277-1.26 3.518-1.47 1.212-.21 2.396-.121 3.579-.57 1.36-.511 2.542-1.41 3.518-2.49.859-.96 1.627-2.009 2.545-2.968 3.046-3.21 8.072-2.46 11.444-.18.217.146.478.36.727.576ZM2.11 34.322c-.071.659-.12 1.318-.149 1.975.16-.54.197-1.1.172-1.662a5.26 5.26 0 0 0-.023-.313Zm72.062 18.009s-2.335 9.359-13.957 17.457c0 0-12.627 9.356-31.112 2.998 0 0-12.48-4.02-20.168-15.656a42.639 42.639 0 0 1-1.047-1.67c-.117-.453-.298-.89-.484-1.317C5.287 49.27 4.882 43.26 5.91 38.073a.11.11 0 0 0 .004-.029c.01-.057 1.011-5.868 4.89-10.316a.81.81 0 0 0 .057-.074c.044-.061 4.508-6.329 12.675-6.329 1.726 0 3.52.28 5.338.829.741.269 2.749 1.019 3.453 1.388l.02.01c.488.24 1.15.538 1.678.774-2.922.883-10.02 3.745-12.758 11.21-3.489 9.507 1.33 17.844 1.33 17.844s3.283 6.509 10.44 9.51c0 0-5.707-5.16-5.559-10.71l.03.03c.206.301 1.272 1.441 1.272 1.441a39.11 39.11 0 0 0 3.783 3.6c7.07 5.967 15.675 9.058 24.842 6.867 0 0-7.01.45-11.68-4.858 0 0 11.11.54 21.37-10.698-.278.252-5.447 4.841-12.41 3.53 0 0 6.418-3.45 10.943-13.107 0 0 5.381-10.678 1.33-19.435 0 0 9.907 9.297-.058 24.681.113-.076 3.758-2.597 7.747-11.394 0 0 2.158 9.267-4.2 18.056 0 0-2.897 5.189-9.7 8.187 0 0 4.051.69 13.425-6.749Z"/>
  </g>
  <defs>
    <clipPath id="a">
      <path d="M0 0h75v75H0z"/>
    </clipPath>
  </defs>
</svg>
