<svg xmlns="http://www.w3.org/2000/svg" width="75" height="75" fill="currentColor" viewBox="0 0 75 75">
  <path fill-rule="evenodd" d="M19.806 17.415c-.78.73-.908 1.242-.908 1.512s.128.782.908 1.511c.784.733 2.05 1.506 3.82 2.206 3.526 1.395 8.563 2.312 14.252 2.312 5.688 0 10.726-.917 14.251-2.312 1.77-.7 3.037-1.473 3.82-2.206.78-.73.909-1.241.909-1.511 0-.27-.129-.782-.908-1.512-.784-.733-2.05-1.505-3.82-2.206-3.526-1.394-8.564-2.311-14.252-2.311-5.689 0-10.726.917-14.252 2.311-1.77.7-3.037 1.473-3.82 2.206Zm2.018-6.76C26.054 8.98 31.731 8 37.878 8c6.146 0 11.823.981 16.053 2.655 2.108.834 3.98 1.888 5.364 3.183 1.39 1.3 2.46 3.018 2.46 5.089 0 2.07-1.07 3.789-2.46 5.088-1.385 1.296-3.256 2.35-5.364 3.184-4.23 1.673-9.907 2.654-16.053 2.654-6.147 0-11.823-.98-16.054-2.654-2.108-.834-3.979-1.888-5.364-3.184-1.39-1.3-2.46-3.017-2.46-5.088s1.07-3.79 2.46-5.089c1.385-1.295 3.256-2.35 5.364-3.183Z" clip-rule="evenodd"/>
  <path fill-rule="evenodd" d="M16.449 16.478a2.449 2.449 0 0 1 2.449 2.449v12.717c0 .27.128.782.908 1.511.784.733 2.05 1.506 3.82 2.206 3.525 1.395 8.563 2.312 14.252 2.312 5.688 0 10.726-.917 14.251-2.312 1.77-.7 3.037-1.473 3.82-2.206.78-.729.909-1.241.909-1.511V18.927a2.449 2.449 0 0 1 4.898 0v12.717c0 2.071-1.071 3.789-2.46 5.088-1.386 1.296-3.257 2.35-5.365 3.184-4.23 1.674-9.907 2.655-16.053 2.655-6.147 0-11.823-.981-16.054-2.655-2.108-.834-3.979-1.888-5.364-3.184-1.39-1.299-2.46-3.017-2.46-5.088V18.927a2.449 2.449 0 0 1 2.449-2.449Z" clip-rule="evenodd"/>
  <path fill-rule="evenodd" d="M16.449 29.195a2.45 2.45 0 0 1 2.449 2.449V44.36c0 .27.128.783.908 1.512.784.733 2.05 1.506 3.82 2.206 3.525 1.395 8.563 2.311 14.252 2.311 5.688 0 10.726-.916 14.251-2.311 1.77-.7 3.037-1.473 3.82-2.206.78-.73.909-1.242.909-1.512V31.644a2.449 2.449 0 1 1 4.898 0V44.36c0 2.072-1.071 3.79-2.46 5.089-1.386 1.296-3.257 2.35-5.365 3.184-4.23 1.673-9.907 2.654-16.053 2.654-6.147 0-11.823-.981-16.054-2.654-2.108-.834-3.979-1.888-5.364-3.184-1.39-1.3-2.46-3.017-2.46-5.089V31.644a2.45 2.45 0 0 1 2.449-2.45Z" clip-rule="evenodd"/>
  <path fill-rule="evenodd" d="M16.449 41.908a2.449 2.449 0 0 1 2.449 2.449v12.716c0 .27.128.783.908 1.512.784.733 2.05 1.506 3.82 2.206 3.525 1.395 8.563 2.311 14.252 2.311 5.688 0 10.726-.916 14.251-2.311 1.77-.7 3.037-1.473 3.82-2.206.78-.73.909-1.242.909-1.512V44.357a2.449 2.449 0 1 1 4.898 0v12.716c0 2.072-1.071 3.79-2.46 5.089-1.386 1.296-3.257 2.35-5.365 3.183C49.701 67.02 44.024 68 37.878 68c-6.147 0-11.823-.981-16.054-2.655-2.108-.834-3.979-1.887-5.364-3.183-1.39-1.3-2.46-3.017-2.46-5.089V44.357a2.449 2.449 0 0 1 2.449-2.45Z" clip-rule="evenodd"/>
</svg>
