<svg width="166" height="199" viewBox="0 0 166 199" fill="none" xmlns="http://www.w3.org/2000/svg">
<path d="M73.0915 175.152C85.0096 119.944 70.8607 61.1391 76.7823 6.12142C70.9849 5.90677 72.2562 11.548 72.3391 15.7947C65.2012 51.7616 66.6598 88.6289 67.7961 124.89C69.3037 131.675 59.9058 184.939 73.1121 175.153" fill="#201F1D"/>
<path d="M112.588 106.361C101.741 127.936 92.9523 151.818 73.5709 173.563C51.1331 186.311 85.2916 145.13 90.2037 134.426C96.142 126.752 104.488 99.0534 112.553 106.394" fill="#201F1D"/>
<path d="M48.045 90.9875C51.3446 112.097 57.8052 124.42 63.4265 141.173C66.088 146.644 72.1925 153.745 72.4686 162.237C72.7677 171.661 68.8942 180.788 65.6424 173.725C67.8782 167.566 29.6527 84.6741 48.0663 90.986" fill="#201F1D"/>
</svg>
