<svg xmlns="http://www.w3.org/2000/svg" width="182" height="67" fill="currentColor" viewBox="0 0 182 67">
  <path d="M91.731 21.374c-.039.455.051.877.18 1.287.04.13.09.28.13.41.327.185.628.27.992.277.132-.01.215-.033.3-.055.043-.011.083-.022.126-.037.289-.081.507-.255.617-.48.086-.163.188-1.417.176-1.886.246-.61.129-1.18.168-1.767 4.032-2.4 1.168-7.018-3.482-5.065-.832.828-.383 3.338.637 4.71-.023.355.133 2.532.156 2.61v-.004ZM24.486 47.132c-1.18 4.074-7.272 4.233-9.8 7.48-1.024.447-2.212.221-3.295.598-.601-.306-1.027-1.06-1.348-1.63-.852-1.253 1.145-1.582 1.45-2.618.059-4.11.813-8.31.961-12.407-.066-.65.395-1.424-.383-1.849-.95-.547-1.793-2.007-.582-2.725.04-.68.918-.355 1.372-.69 1.348-.995 1.027-2.197 2.665-.37 1.871 1.937 5.959.325 8.58 1.582 4.94 3.216-2.235 5.579-4.478 7.479 2.568 1.36 5.577.895 4.862 5.15h-.004Zm-8.519-6.755c.739-.022 4.103-2.894 2.849-3.23-.961.276-2.357-.511-2.966.395.082.654-.543 2.436.117 2.835Zm3.689 5.731c-.782-1.287-2.982-1.845-4.072-1.834-.414.218-.289 1.716-.258 2.148-.914 5.258 2.685 1.882 4.33-.314Zm20.984-9.446c-2.052 1.183-4.62-.218-6.839.362-.527 1.505-.465 3.235-1.074 4.729 1.027 1.586 5.674-.289 5.275 2.499-.164 1.749-5.744-.189-6.22.965-.767 2.07-1.396 4.377-2.256 6.426 1.376 1.345 5.623-.359 5.389 2.865.07 2.38-7.886.466-8.69-1.017-1.505-2.983 2.297-6.381 1.844-9.239-1.075-.266-1.708-1.579-1.016-2.418 2.419.584 2.59-1.031 3.052-2.847.152-.954.336-1.615.445-2.44-.434-.743-1.668-2.27-.352-2.743 2.22 0 4.4.418 6.694.577 1.864.059 3.896.166 3.748 2.285v-.004Zm13 2.41c-.16 4.544-1.2 9.062-2.595 13.37-.656 1.789-.605 5.023-3.36 4.528-3.134-1.416-.125-4.972.152-7.331-4.88-2.17-4.458.34-5.713 4.03-.152 1.15-.957 3.67-2.235 1.715a23.07 23.07 0 0 1 1.415-6.614c-.872-.843-2.935-1.257-2.087-2.895.352-1.69 2.943.57 3.654-.736 1.66-3.823 9.695-16.452 10.773-6.06l-.004-.007Zm-3.818 1.468c-.011-.303.149-.673-.277-.713-.953 1.116-5.932 5.715-3.126 6.266.617-.074 2.298.422 2.458-.521.316-1.66.59-3.376.941-5.028l.004-.004Zm14.9 13.624c-7.87-5.217-4.416-7.501-7.272 2.884-.352 1.612-2.735.454-3.161-.518-.465-3.283 1.332-6.877 1.934-10.134.887-1.985.754-4.484 2.048-6.252 4.372-.036 13.668.544 12.547 6.74-.39 2.23-4.459 1.956-4.795 3.487.672 1.09 3.912 3.05 3.92 4.177-1.153 3.92-3.427 1.531-5.217-.388l-.004.004Zm1.766-8.082c-1.352-1.357-4.103-1.612-6.017-1.59-.407.474-.962 1.975-.36 2.47 1.887.558 4.803-.137 6.377-.88Z"/>
  <path d="M181.719 58.257c-29.182 2.776-52.193 4.24-72.493 4.743.254-.602.398-1.35.359-2.3-.094-2.27-1.258-2.869-2.544-3.549.797-1.16 1.298-2.529 1.54-3.294 1.997-6.43 1.844-8.636 1.231-17.61-.114-1.648-1.141-6.477-2.544-10.466-2.165-6.148.246-10.85-2.884-16.378-.309-.721-.59-1.368-.852-1.945 1.704-1.131 2.88-3.397 2.036-5.956-1.403-2.314-4.396-.133-6.463 1.139-1.286-.252-3.036-.24-5.709-.366-1.645-.078-3.306-.137-4.892.144C87.62.55 84.784-.468 81.587.212c-2.837.632-1.38 4.429.723 6.658-2.704 4.134-3.74 9.121-3.841 14.56-.016.935.274 1.523-.344 2.769-2.571 5.216-4.392 24.833-.953 31.625a9.975 9.975 0 0 0-2.595 1.656c-3.017 2.666-2.903 4.06-1.727 5.39-20.48-.654-40.307-2.247-64.37-4.28-16.853-.526-4.67 2.136 3.02 2.554 20.371 3.017 41.667 4.64 62.335 5.313 13.493.089 27.806 1.205 40.865-.14 12.649.41 26.877-1.272 39.392-2.396 3.724-.98 30.91-3.376 27.635-5.672l-.008.008ZM100.731 8.752c1.168 1.919-1.481 3.183-2.54 1.66-.743-1.712 1.516-3.571 2.54-1.66Zm-9.594 1.99c6.718-3.853 10.535 10.835 6.335 13.26-2.443 1.631-9.816 1.217-11.016-1.87-.254-3.142 1.88-9.923 4.681-11.39Zm-3.277-2.32c.727 1.083-.363 2.758-1.583 2.1-2.133-1.05.688-4.58 1.583-2.1Zm-2.071 32.054c.992-.54 2.298.359 2.505 1.346.23 2.65-4.729.107-2.505-1.346Zm-3.372 11.798c.316-2.13.863-9.92 4.548-6.322.77 1.453-.785 2.917-.805 4.421-.477 1.354.34 4.54-1.27 4.977-1.387-.758-2.907-1.08-2.473-3.072v-.004Zm.05 10.84c.786-.603 1.419-1.28 2.068-1.986a30.1 30.1 0 0 0 1.066-1.234c3.802.854 7.1.98 11.551.45.606.87 1.47 2.053 2.192 2.829a637.2 637.2 0 0 1-16.873-.06h-.004Zm20.597-12.304c-1.195 2.251-3.15 5.057-5.892 3.135-5.862-3.553-3.271-3.923-5.041 2.359-5.107 4.517-2.247-5.96-2.173-8.223-.355-3.153 1.653-6.296 4.252-2.695 2.22 4.865 5.228 8.677 5.928.67.289-2.581-.786-5.365.304-7.802.946-1.028 3.068-.806 3.4.618-.16 3.974.703 8.096-.77 11.934l-.008.004Z"/>
  <path d="M132.503 34.636c.16 7.53 1.688 15.106.141 22.604-.692.67-3.248.958-3.627-.214.208-5.28 1.044-11.107-.203-16.23-3.184 8.529-5.306 9.105-10.484 1.22-.422 3.245.313 6.57.254 9.79.465 1.988.868 4.229-.219 6.162-2.067 2.574-2.758-1.353-2.95-2.913-.547-6.052-.961-12.204-.719-18.275-.047-.78.426-1.76 1.364-1.283 4.142-1.039 5.107 5.413 7.37 7.528 1.778-2.452 4.587-13.82 9.069-8.393l.004.004Zm8.651 11.76c1.001 1.509-.527 3.254-.383 4.895-.371 1.52.876 4.91-.824 5.546-1.465-.673-3.275-.824-3.021-2.94.055-2.358-.211-11.068 4.228-7.497v-.004Zm.989-4.625c.414 2.296-2.907 1.261-3.474-.066.192-2.034 2.993-1.583 3.474.066Zm19.819-3.615c-.586 4.314-.074 8.887-2.075 12.928-1.535 2.34-3.954 5.217-6.744 2.873-6.069-4.407-3.107-4.684-5.737 2.104-6.037 4.451-1.824-6.718-1.516-9.158-.062-3.468 2.454-6.703 4.908-2.54 2.661 7.956 5.651 8.448 6.557-.377.282-2.263-.273-4.777.965-6.814 1.134-1.031 3.427-.595 3.638.987l.004-.003Zm18.69 4.644c-.945 3.73-4.107 6.336-6.893 8.954-1.965 2.332-8.018 6.436-10.351 2.987-.082-3.235.332-6.63.782-9.846.637-1.564.125-4.514 2.583-4.347 4.509.343 11.746-3.006 13.883 2.247l-.004.004Zm-4.728.535c-1.664-.78-4.802.359-6.83-.063-1.395.71-.837 3.206-1.184 4.496-2.146 8.85 6.76-2.04 8.014-4.43v-.003Z"/>
</svg>
