<svg width="559" height="91" viewBox="0 0 559 91" fill="currentColor" xmlns="http://www.w3.org/2000/svg">
<path d="M32.0398 48.7261C29.4472 44.2997 22.2032 42.3918 18.6956 42.4681C17.3231 43.2312 17.7806 48.4208 17.9331 49.8708C15.1117 68.1106 26.7784 56.2814 32.116 48.6497M19.7631 29.0363C22.2032 28.96 33.1073 18.8861 28.9897 17.7414C25.8633 18.7335 21.2882 16.0624 19.3056 19.1914C19.6106 21.4809 17.6281 27.6626 19.7631 28.96M47.8241 52.1603C44.0877 66.279 24.1858 67.0421 15.9505 78.3371C12.5954 79.9397 8.70652 79.1765 5.19891 80.4739C3.21634 79.4055 1.76755 76.8107 0.700011 74.9028C-2.12133 70.629 4.43638 69.408 5.35141 65.8211C5.35141 51.6261 7.79149 37.0496 8.0965 22.8546C7.86775 20.5651 9.31654 17.894 6.80021 16.444C3.67386 14.6124 0.852516 9.57544 4.81765 7.05698C4.8939 4.69115 7.79149 5.75959 9.31654 4.61484C13.6629 1.10426 12.5954 -3.01686 18.0093 3.24113C24.1858 9.88071 37.53 4.23325 46.1465 8.507C62.3883 19.4967 38.9788 27.8915 31.7348 34.5311C40.1988 39.1864 50.0354 37.4311 47.8241 52.2366" fill="currentColor"/>
<path d="M100.362 15.4519C93.6519 19.573 85.2641 14.8413 78.0201 16.9019C76.3425 22.0915 76.5713 28.1205 74.665 33.3101C78.0963 38.8049 93.1943 32.1653 91.9743 41.7812C91.5168 47.8103 73.2162 41.3233 71.6911 45.2918C69.2511 52.4656 67.2685 60.4789 64.5234 67.5764C69.0223 72.1554 82.9003 66.2027 82.214 77.345C82.519 85.5872 56.4406 79.1766 53.7718 74.0633C48.7391 63.7605 61.092 51.9314 59.567 42.0102C56.0594 41.0944 53.9243 36.5917 56.1356 33.6916C64.0659 35.6759 64.5997 30.0284 66.0485 23.7704C66.506 20.4888 67.116 18.1993 67.421 15.2992C65.9722 12.7808 61.9308 7.51491 66.201 5.83594C73.445 5.83594 80.6127 7.13333 88.0854 7.66755C94.1856 7.82018 100.82 8.12545 100.438 15.4519" fill="currentColor"/>
<path d="M130.558 28.6548C130.558 27.5864 131.016 26.289 129.643 26.2127C126.517 30.1049 110.427 46.1314 119.578 47.963C121.56 47.7341 127.127 49.3368 127.584 46.0551C128.575 40.3313 129.414 34.3786 130.558 28.6548ZM142.987 23.4653C142.606 39.1866 139.327 54.8316 134.904 69.7897C132.769 75.9714 133.074 87.19 124.077 85.5873C113.782 80.7794 123.543 68.416 124.382 60.1738C108.369 52.771 109.817 61.4712 105.776 74.2924C105.318 78.2609 102.726 87.0374 98.532 80.3215C98.9132 72.6134 100.438 64.6765 102.955 57.35C100.057 54.45 93.3468 53.0763 96.0156 47.4288C97.0832 41.5524 105.623 49.3368 107.911 44.7577C113.249 31.4786 139.175 -12.48 142.987 23.4653Z" fill="currentColor"/>
<path d="M185.231 47.3525C180.732 42.6972 171.734 41.8577 165.482 42.0103C164.185 43.6893 162.355 48.8788 164.414 50.5578C170.59 52.4657 180.122 49.9473 185.231 47.3525ZM179.741 75.3608C153.815 57.5027 165.1 49.4894 156.026 85.5873C154.959 91.1585 147.105 87.2663 145.656 83.9084C144.055 72.5371 149.774 60.0974 151.68 48.8025C154.501 41.934 154.044 33.2339 158.161 27.1285C172.497 26.8996 202.922 28.6548 199.414 50.0999C198.194 57.8079 184.926 56.9685 183.858 62.3106C186.07 66.0502 196.745 72.7661 196.821 76.6582C193.161 90.2427 185.688 82.0767 179.741 75.4372" fill="currentColor"/>
<path d="M400.873 5.83596C401.636 31.8601 406.821 58.0368 402.017 84.0609C399.806 86.4267 391.418 87.4951 390.122 83.4503C390.655 65.1343 393.172 44.9866 388.978 27.281C378.836 56.892 371.897 58.9526 354.74 31.7837C353.444 43.0023 355.96 54.5262 355.884 65.6685C357.485 72.537 358.858 80.245 355.35 87.0372C348.64 95.9663 346.276 82.4582 345.59 77.0397C343.608 56.1289 342.082 34.8364 342.692 13.8492C342.54 11.1781 344.065 7.74388 347.115 9.34654C360.612 5.60701 363.967 27.9679 371.44 35.218C377.159 26.6705 386.004 -12.7091 400.873 5.91228" fill="currentColor"/>
<path d="M432.671 30.2574C434.12 38.1943 423.216 34.6838 421.309 30.1047C421.843 23.0836 431.07 24.5336 432.671 30.2574ZM429.544 46.2839C432.9 51.4735 427.943 57.5789 428.477 63.2263C427.333 68.4922 431.527 80.1687 425.961 82.4582C421.157 80.1687 415.209 79.7108 415.972 72.3843C416.048 64.2184 414.98 34.0732 429.621 46.2839" fill="currentColor"/>
<path d="M497.333 17.2072C495.502 32.1653 497.333 47.9629 490.927 62.0052C485.971 70.1712 478.117 80.1687 468.967 72.1554C448.988 57.0446 458.673 56.0525 450.285 79.6345C430.688 95.2031 444.108 56.4341 445.023 47.9629C444.718 35.9811 452.877 24.6862 461.036 39.0338C469.958 66.5079 479.794 68.1106 482.463 37.5075C483.302 29.6468 481.396 20.9467 485.437 13.9255C489.097 10.3386 496.646 11.7887 497.333 17.2072Z" fill="currentColor"/>
<path d="M543.237 34.7601C537.747 32.089 527.529 36.1338 520.895 34.7601C516.32 37.2786 518.226 45.9024 517.158 50.3288C510.372 81.0082 539.195 43.0787 543.237 34.7601ZM558.64 32.7759C555.666 45.6735 545.372 54.8315 536.374 63.9895C530.045 72.1555 510.372 86.5031 502.594 74.5976C502.213 63.379 503.509 51.6262 504.882 40.4839C506.941 35.0654 505.187 24.8389 513.193 25.3731C527.986 26.4416 551.548 14.6125 558.64 32.7759Z" fill="currentColor"/>
<path d="M245.318 31.1732C248.521 29.2653 252.867 32.318 253.553 35.7522C254.392 44.9103 238.074 36.2864 245.318 31.1732Z" fill="currentColor"/>
<path d="M234.643 72.0793C235.634 64.6765 237.159 37.7366 249.36 50.1C251.952 55.1369 246.92 60.2501 246.843 65.4397C245.318 70.1714 248.063 81.161 242.878 82.6873C238.303 80.0926 233.347 79.0241 234.719 72.0793" fill="currentColor"/>
<path d="M302.202 66.4317C298.39 74.2924 292.061 83.9846 282.987 77.4214C263.695 65.2869 272.159 63.9132 266.592 85.7399C250.046 101.538 259.043 65.1343 259.272 57.35C258.052 46.4367 264.534 35.5233 273.074 47.8867C280.47 64.6764 290.459 77.8029 292.518 50.0236C293.357 41.0945 289.773 31.4785 293.281 23.0073C296.331 19.4204 303.27 20.1073 304.414 25.0679C304.032 38.805 306.93 53.0762 302.279 66.3554" fill="currentColor"/>
</svg>
