<svg width="561" height="218" viewBox="0 0 561 218" fill="none" xmlns="http://www.w3.org/2000/svg">
<path d="M282.274 69.5711C282.154 71.0513 282.43 72.4231 282.827 73.7589C282.947 74.1801 283.103 74.6735 283.224 75.0947C284.234 75.6963 285.16 75.9731 286.278 75.9972C286.687 75.9611 286.939 75.8889 287.204 75.8167C287.336 75.7806 287.456 75.7445 287.589 75.6963C288.478 75.4316 289.152 74.866 289.488 74.132C289.753 73.6025 290.066 69.523 290.029 67.9947C290.787 66.0091 290.426 64.1559 290.546 62.2426C302.956 54.4326 294.142 39.4024 279.833 45.7562C277.272 48.4518 278.654 56.6228 281.793 61.0873C281.721 62.2426 282.202 69.3305 282.274 69.5832V69.5711Z" fill="#201F1D"/>
<path d="M75.3467 153.411C71.7154 166.672 52.9694 167.189 45.1897 177.755C42.0393 179.211 38.3839 178.477 35.0532 179.705C33.2014 178.706 31.8908 176.251 30.9048 174.398C28.2835 170.318 34.4279 169.247 35.3658 165.878C35.5462 152.496 37.8669 138.826 38.3238 125.492C38.1194 123.374 39.5383 120.859 37.1454 119.475C34.2235 117.694 31.6263 112.941 35.3538 110.607C35.474 108.392 38.1795 109.451 39.5743 108.356C43.7227 105.119 42.7367 101.208 47.7749 107.153C53.5346 113.459 66.1121 108.212 74.1804 112.303C89.3791 122.773 67.3025 130.462 60.4005 136.648C68.3005 141.076 77.5592 139.56 75.3588 153.411H75.3467ZM49.1337 131.425C51.4063 131.353 61.7592 122.003 57.8994 120.907C54.9414 121.81 50.6488 119.247 48.773 122.195C49.0255 124.325 47.1016 130.125 49.1337 131.425ZM60.4847 150.077C58.0798 145.89 51.3101 144.073 47.9553 144.109C46.6807 144.819 47.0655 149.692 47.1617 151.1C44.348 168.212 55.4224 157.225 60.4847 150.077Z" fill="#201F1D"/>
<path d="M125.055 119.331C118.743 123.182 110.843 118.621 104.013 120.51C102.389 125.408 102.582 131.04 100.706 135.901C103.868 141.064 118.165 134.963 116.939 144.036C116.434 149.728 99.2632 143.423 97.7962 147.177C95.4394 153.916 93.5035 161.425 90.8581 168.092C95.0907 172.472 108.161 166.925 107.44 177.418C107.656 185.168 83.1746 178.934 80.6976 174.109C76.0682 164.398 87.7679 153.338 86.3731 144.036C83.0664 143.17 81.1184 138.898 83.2467 136.166C90.6898 138.068 91.2189 132.809 92.6377 126.9C93.1067 123.795 93.6718 121.641 94.0085 118.958C92.6738 116.539 88.8741 111.569 92.9263 110.029C99.7562 110.029 106.466 111.389 113.524 111.906C119.26 112.099 125.512 112.448 125.055 119.343V119.331Z" fill="#201F1D"/>
<path d="M165.06 127.177C164.567 141.966 161.369 156.672 157.076 170.691C155.056 176.516 155.212 187.045 146.735 185.433C137.092 180.824 146.35 169.247 147.204 161.57C132.186 154.506 133.484 162.677 129.625 174.686C129.156 178.429 126.679 186.636 122.747 180.27C123.192 173.002 124.646 165.589 127.099 158.742C124.418 155.998 118.069 154.65 120.678 149.319C121.761 143.82 129.733 151.172 131.921 146.924C137.032 134.481 161.754 93.374 165.072 127.201L165.06 127.177ZM153.312 131.954C153.276 130.968 153.769 129.764 152.459 129.632C149.525 133.266 134.206 148.236 142.839 150.029C144.739 149.788 149.91 151.401 150.403 148.332C151.377 142.929 152.218 137.346 153.3 131.966L153.312 131.954Z" fill="#201F1D"/>
<path d="M199.161 176.299C174.944 159.319 185.573 151.882 176.784 185.685C175.701 190.932 168.367 187.165 167.056 184.001C165.625 173.315 171.156 161.618 173.008 151.016C175.738 144.554 175.329 136.419 179.309 130.667C192.764 130.546 221.37 132.436 217.919 152.604C216.717 159.861 204.199 158.97 203.165 163.952C205.233 167.502 215.201 173.88 215.225 177.55C211.678 190.306 204.68 182.532 199.173 176.287L199.161 176.299ZM204.596 149.993C200.436 145.577 191.97 144.746 186.079 144.819C184.828 146.359 183.121 151.245 184.972 152.857C190.78 154.674 199.75 152.412 204.596 149.993Z" fill="#201F1D"/>
<path d="M559.182 189.62C469.384 198.658 398.573 203.423 336.107 205.06C336.888 203.098 337.333 200.667 337.213 197.575C336.924 190.186 333.341 188.236 329.385 186.022C331.838 182.244 333.377 177.791 334.123 175.3C340.267 154.373 339.798 147.189 337.91 117.983C337.562 112.616 334.399 96.8999 330.082 83.9154C323.421 63.9032 330.84 48.5962 321.208 30.6057C320.259 28.2591 319.393 26.1532 318.587 24.2759C323.83 20.5935 327.449 13.2168 324.852 4.88944C320.535 -2.64372 311.324 4.45622 304.964 8.59585C301.008 7.77755 295.621 7.81365 287.396 7.4045C282.334 7.15179 277.223 6.95925 272.342 7.87382C269.624 1.78472 260.894 -1.52458 251.059 0.689642C242.329 2.74742 246.814 15.1061 253.283 22.3625C244.962 35.8163 241.776 52.0499 241.463 69.7516C241.415 72.7962 242.305 74.7095 240.405 78.7649C232.493 95.7446 226.89 159.596 237.471 181.702C234.814 182.942 232.072 184.674 229.487 187.093C220.204 195.77 220.553 200.306 224.172 204.638C161.153 202.508 100.141 197.322 26.0951 190.703C-25.7658 188.995 11.7261 197.659 35.39 199.019C98.0728 208.838 163.605 214.121 227.202 216.311C268.722 216.6 312.767 220.234 352.953 215.854C391.876 217.19 435.656 211.714 474.17 208.056C485.629 204.867 569.283 197.069 559.206 189.596L559.182 189.62ZM309.966 28.4877C313.561 34.7333 305.409 38.8488 302.15 33.8909C299.865 28.3192 306.815 22.2662 309.966 28.4877ZM280.446 34.9619C301.116 22.4227 312.864 70.233 299.937 78.1271C292.422 83.4341 269.732 82.0863 266.041 72.038C265.259 61.8093 271.825 39.7393 280.446 34.9619ZM270.358 27.4167C272.594 30.9426 269.239 36.3939 265.488 34.2519C258.922 30.8343 267.604 19.342 270.358 27.4167ZM263.985 131.75C267.039 129.993 271.055 132.917 271.692 136.13C272.402 144.758 257.143 136.479 263.985 131.75ZM253.608 170.15C254.582 163.218 256.265 137.863 267.604 149.572C269.973 154.301 265.187 159.066 265.127 163.964C263.66 168.369 266.173 178.742 261.219 180.162C256.95 177.695 252.273 176.648 253.608 170.162V170.15ZM253.764 205.433C256.181 203.471 258.129 201.269 260.125 198.971C261.291 197.611 262.397 196.263 263.408 194.951C275.107 197.731 285.256 198.14 298.951 196.419C300.815 199.247 303.473 203.098 305.697 205.625C287.901 205.806 270.682 205.734 253.776 205.433H253.764ZM317.144 165.384C313.465 172.713 307.453 181.846 299.012 175.589C280.975 164.024 288.947 162.821 283.5 183.266C267.784 197.972 276.586 163.868 276.815 156.503C275.72 146.238 281.901 136.01 289.897 147.731C296.727 163.567 305.986 175.974 308.138 149.909C309.028 141.509 305.721 132.448 309.076 124.517C311.986 121.172 318.515 121.894 319.537 126.527C319.044 139.463 321.702 152.881 317.168 165.372L317.144 165.384Z" fill="#201F1D"/>
<path d="M407.735 112.737C408.228 137.249 412.93 161.907 408.168 186.311C406.04 188.489 398.176 189.428 397.01 185.613C397.647 168.429 400.22 149.464 396.384 132.785C386.585 160.547 380.055 162.424 364.123 136.756C362.824 147.322 365.085 158.14 364.905 168.621C366.336 175.096 367.574 182.388 364.231 188.682C357.87 197.057 355.742 184.277 355.153 179.199C353.47 159.5 352.195 139.476 352.94 119.716C352.796 117.177 354.251 113.988 357.137 115.54C369.883 112.159 372.853 133.158 379.815 140.041C385.286 132.063 393.931 95.0589 407.723 112.724L407.735 112.737Z" fill="#201F1D"/>
<path d="M434.357 151.016C437.436 155.926 432.734 161.606 433.179 166.949C432.037 171.895 435.872 182.93 430.642 184.999C426.133 182.809 420.565 182.316 421.347 175.433C421.515 167.755 420.698 139.403 434.357 151.028V151.016ZM437.399 135.962C438.674 143.435 428.453 140.065 426.71 135.745C427.299 129.127 435.92 130.595 437.399 135.962Z" fill="#201F1D"/>
<path d="M498.387 124.193C496.583 138.236 498.158 153.122 492.002 166.275C487.276 173.892 479.833 183.254 471.248 175.625C452.574 161.281 461.688 160.378 453.596 182.472C435.018 196.961 447.981 160.607 448.931 152.665C448.738 141.377 456.482 130.847 464.033 144.397C472.222 170.294 481.42 171.895 484.21 143.17C485.076 135.805 483.368 127.622 487.18 120.992C490.667 117.634 497.725 119.054 498.375 124.205L498.387 124.193Z" fill="#201F1D"/>
<path d="M555.899 139.307C552.989 151.449 543.262 159.933 534.688 168.453C528.64 176.046 510.014 189.404 502.836 178.176C502.583 167.647 503.858 156.6 505.241 146.13C507.201 141.04 505.626 131.437 513.189 131.979C527.065 133.098 549.334 122.195 555.911 139.295L555.899 139.307ZM541.35 141.052C536.227 138.513 526.572 142.219 520.331 140.847C516.039 143.158 517.758 151.281 516.688 155.481C510.087 184.29 537.49 148.838 541.35 141.064V141.052Z" fill="#201F1D"/>
</svg>
