<svg width="1440" height="246" viewBox="0 0 1440 246" fill="none" xmlns="http://www.w3.org/2000/svg">
<path d="M1073.5 143.178C1249.5 143.178 1330.5 245.335 1440 245.335H1228.96H121.845H-0.00012207C-0.00012207 245.335 152 224.178 572.5 226.178C764.85 227.093 887.051 143.178 1073.5 143.178Z" fill="#433838"/>
<g clip-path="url(#clip0_375_764)">
<path d="M101.554 211.602C112.223 211.249 122.731 209.634 133.326 209.237C135.095 208.077 152.543 209.854 148.108 205.551C137.482 177.63 127.211 149.651 113.844 123.258C99.2401 99.9787 98.4443 161.21 97.4864 169.787C96.7791 179.642 96.9854 189.262 97.3096 199.279C98.2233 203.759 95.1875 214.363 101.554 211.602Z" fill="#64524F"/>
<path d="M136.244 237.98C135.198 234.279 101.966 122.964 113.491 148.314C120.815 166.85 125.604 186.765 131.352 205.859C131.013 211.044 142.124 239.346 136.244 237.98Z" fill="#292424"/>
<path d="M104.59 177.689C109.379 180.949 114.64 184.504 120.329 186.031C122.171 186.971 125.663 186.692 125.796 189.409C127.299 197.473 96.2485 177.16 104.59 177.689Z" fill="#292424"/>
<path d="M128.08 198.089C132.707 206.373 114.891 200.704 112.238 197.414C109.6 196.65 108.524 191.568 110.985 193.683C110.808 193.507 112.15 194.197 112.046 194.124C116.055 198.633 122.613 198.882 128.08 198.075" fill="#292424"/>
<path d="M137.526 198.515C142.758 177.263 145.455 157.215 151.659 136.432C155.211 118.749 158.674 98.3482 167.56 81.8692C171.274 79.6661 177.994 95.587 179.335 98.2895C183.756 108.762 188.766 119.307 192.274 130.073C202.84 154.204 210.842 178.687 221.747 202.775C204.343 201.409 186.63 204.126 169.181 203.715C158.541 203.362 147.945 198.31 137.526 198.501" fill="#812B0E"/>
<path d="M188.722 234.382C191.154 196.709 175.695 158.977 174.103 121.965C170.183 122.347 171.613 125.96 172.084 128.78C170.92 153.264 175.636 177.571 180.057 201.526C181.752 205.888 180.823 242.048 188.707 234.382" fill="#292424"/>
<path d="M158.261 151.076C163.552 152.809 166.632 156.98 170.846 160.446C172.217 162.164 174 166.218 176.122 166.174C178.48 166.115 180.764 163.178 179.011 161.092C177.463 162.811 156.699 138.415 158.276 151.076" fill="#292424"/>
<path d="M158.541 167.789C165.246 173.782 171.907 181.977 180.632 183.901C188.368 179.627 172.408 174.751 169.196 171.535C166.322 170.418 159.027 160.005 158.541 167.775" fill="#292424"/>
<path d="M191.876 168.465C189.99 177.322 184.021 183.725 178.362 189.923C181.634 204.684 204.107 160.534 191.876 168.465Z" fill="#292424"/>
<path d="M332.126 205.683C344.004 206.755 355.897 206.402 367.701 207.416C369.823 206.373 388.937 210.735 384.604 205.359C376.676 172.945 369.16 140.501 357.975 109.378C344.992 81.5606 335.649 149.357 333.394 158.742C331.242 169.581 330.137 180.274 329.135 191.421C329.533 196.503 324.699 207.856 332.141 205.683" fill="#64524F"/>
<path d="M366.95 239.713C366.301 235.468 344.83 107.44 354.099 137.137C359.67 158.698 362.219 181.449 365.962 203.421C364.872 209.119 373.286 242.048 366.95 239.713Z" fill="#292424"/>
<path d="M340.173 168.495C345.036 172.769 350.385 177.424 356.472 179.907C358.387 181.199 362.307 181.361 362.072 184.416C362.617 193.566 330.992 166.776 340.173 168.495Z" fill="#292424"/>
<path d="M363.398 194.344C367.377 204.17 348.411 195.446 345.92 191.421C343.105 190.217 342.619 184.43 345.051 187.118C344.874 186.898 346.274 187.838 346.156 187.764C349.987 193.316 357.209 194.491 363.383 194.344" fill="#292424"/>
<path d="M188.973 199.646C197.137 176.059 202.295 153.573 211.476 130.631C217.371 110.921 223.413 88.1262 235.173 70.3399C239.594 68.2249 245.459 87.0099 246.682 90.2264C250.558 102.578 255.082 115.092 257.882 127.679C267.211 156.172 273.621 184.812 283.347 213.306C263.895 209.927 243.661 211.161 224.046 208.87C212.11 207.357 200.703 200.513 188.958 199.646" fill="#812B0E"/>
<path d="M244.884 242.43C251.516 200.763 238.238 157.185 240.316 115.826C235.924 115.826 237.133 120.012 237.368 123.199C233.522 150.327 236.234 177.865 238.68 204.978C240.109 210.015 235.305 250.141 244.884 242.43Z" fill="#292424"/>
<path d="M219.67 146.581C225.387 149.063 228.379 154.013 232.697 158.302C234.053 160.343 235.6 165.043 237.973 165.219C240.596 165.41 243.455 162.37 241.716 159.873C239.8 161.621 219.242 132.32 219.684 146.581" fill="#292424"/>
<path d="M218.24 165.205C225.078 172.563 231.636 182.374 241.156 185.429C250.204 181.464 232.962 174.399 229.705 170.492C226.625 168.965 219.596 156.613 218.24 165.219" fill="#292424"/>
<path d="M255.259 169.405C252.238 179.055 244.928 185.576 237.987 191.891C240.095 208.649 269.686 161.856 255.259 169.405Z" fill="#292424"/>
<path d="M326.187 216.39C310.684 218.666 295.122 219.386 279.722 221.589C276.893 220.634 252.091 227.185 257.528 220.899C266.518 184.651 274.977 148.432 288.27 113.3C304.067 81.6196 319.187 155.026 322.533 165.087C325.804 176.764 327.705 188.381 329.503 200.483C329.208 206.094 336.017 218.079 326.173 216.375" fill="#64524F"/>
<path d="M293.884 241.857C294.046 237.569 301.091 107.954 295.211 138.503C292.086 160.549 292.086 183.432 290.819 205.683C292.543 211.22 287.857 244.883 293.884 241.857Z" fill="#292424"/>
<path d="M312.541 168.113C308.179 172.901 303.39 178.13 297.613 181.258C295.859 182.756 291.983 183.358 292.558 186.355C293.044 195.505 321.472 165.381 312.541 168.113Z" fill="#292424"/>
<path d="M292.337 196.385C289.478 206.578 307.354 195.813 309.373 191.553C312.04 190.041 311.878 184.239 309.756 187.177C309.903 186.942 308.621 188.028 308.724 187.94C305.541 193.874 298.482 195.857 292.337 196.4" fill="#292424"/>
</g>
<g clip-path="url(#clip1_375_764)">
<path d="M468.37 188.864C458.881 163.468 452.7 139.211 442.097 114.54C435.185 93.3071 428.029 68.7223 414.709 49.718C409.816 47.5411 403.775 68.0485 402.504 71.573C398.534 85.0661 393.85 98.7319 391.047 112.467C381.454 143.617 375.046 174.836 365.017 205.968C386.294 201.839 408.563 202.668 430.048 199.731C443.124 197.796 455.486 190.091 468.388 188.882" fill="#812B0E"/>
<path d="M410.269 240.142C401.912 194.168 415.614 145.638 412.306 99.9069C417.199 99.8206 415.945 104.468 415.771 107.992C420.681 137.933 418.331 168.478 416.276 198.539C414.796 204.154 421.099 248.452 410.269 240.142Z" fill="#292424"/>
<path d="M436.02 133.458C429.735 136.343 426.514 141.889 421.83 146.744C420.385 149.042 418.766 154.276 416.137 154.518C413.212 154.795 409.973 151.495 411.854 148.696C414.013 150.596 436.177 117.684 436.038 133.458" fill="#292424"/>
<path d="M438.057 154.035C430.64 162.345 423.571 173.368 413.072 176.961C402.904 172.797 421.917 164.556 425.434 160.151C428.812 158.389 436.334 144.55 438.057 154.035Z" fill="#292424"/>
<path d="M397.002 159.581C400.589 170.189 408.876 177.238 416.746 184.062C414.796 202.651 380.775 151.582 397.002 159.581Z" fill="#292424"/>
<path d="M521.684 179.811C504.255 182.178 486.739 182.472 469.432 184.735C466.229 183.336 438.388 191.024 444.413 182.852C453.884 134.788 462.764 86.7247 477.128 40.3542C494.365 -1.2999 512.717 97.4708 516.669 111.085C520.569 126.824 522.92 142.442 525.166 158.717C524.939 166.197 532.827 182.524 521.701 179.811" fill="#64524F"/>
<path d="M472.688 232.022C473.35 225.75 496.315 36.6224 484.667 80.7816C477.929 112.761 475.7 146.277 471.678 178.758C473.663 187.033 463.513 235.874 472.671 232.022" fill="#292424"/>
<path d="M507.302 125.822C500.424 132.404 492.868 139.609 484.075 143.634C481.342 145.673 475.579 146.157 476.136 150.614C475.962 164.073 520.709 122.678 507.302 125.822Z" fill="#292424"/>
<path d="M474.848 165.282C469.642 179.949 496.995 165.886 500.39 159.839C504.447 157.887 504.777 149.37 501.365 153.464C501.609 153.136 499.624 154.605 499.78 154.484C494.522 162.863 483.954 165.092 474.848 165.282Z" fill="#292424"/>
<path d="M488.95 182.576C497.238 156.765 502.27 132.249 511.689 107.111C517.592 85.5846 523.581 60.689 535.996 41.0799C540.784 38.6785 547.783 58.8922 549.211 62.3302C553.825 75.616 559.135 89.0572 562.583 102.654C573.639 133.32 581.509 164.211 593.017 194.842C571.567 191.715 549.367 193.581 527.76 191.629C514.597 190.316 501.887 183.181 488.95 182.559" fill="#812B0E"/>
<path d="M549.402 231.089C555.583 184.787 539.583 136.931 540.732 91.1133C535.839 91.2515 537.302 95.8471 537.667 99.3543C534.168 129.485 537.963 159.892 541.446 189.815C543.187 195.343 538.991 239.9 549.42 231.089" fill="#292424"/>
<path d="M518.636 125.736C525.061 128.327 528.526 133.717 533.453 138.348C535.003 140.576 536.883 145.742 539.512 145.846C542.438 145.984 545.537 142.546 543.517 139.816C541.445 141.803 517.748 109.962 518.636 125.718" fill="#292424"/>
<path d="M517.574 146.381C525.392 154.328 532.949 165.005 543.622 168.115C553.581 163.485 534.202 156.142 530.476 151.892C527.011 150.286 518.845 136.827 517.574 146.381Z" fill="#292424"/>
<path d="M558.857 149.992C555.775 160.755 547.835 168.184 540.296 175.354C543.117 193.84 574.683 141.233 558.857 149.992Z" fill="#292424"/>
</g>
<path d="M1084.15 96.5599C1084.11 97.0781 1084.21 97.5585 1084.35 98.0262C1084.39 98.1736 1084.44 98.3464 1084.49 98.4939C1084.84 98.7047 1085.16 98.8018 1085.55 98.8105C1085.7 98.7979 1085.79 98.7727 1085.88 98.7474C1085.92 98.7348 1085.97 98.7222 1086.01 98.7054C1086.32 98.6129 1086.56 98.415 1086.68 98.1581C1086.77 97.9727 1086.88 96.5446 1086.87 96.0095C1087.14 95.3146 1087.01 94.6657 1087.05 93.9958C1091.4 91.264 1088.31 86.0003 1083.3 88.222C1082.41 89.1652 1082.89 92.0261 1083.99 93.5897C1083.96 93.9941 1084.13 96.4757 1084.15 96.5642L1084.15 96.5599Z" fill="#292424"/>
<path d="M1103.23 144.991C1103.5 144.304 1103.66 143.453 1103.62 142.371C1103.52 139.784 1102.27 139.101 1100.88 138.325C1101.74 137.002 1102.28 135.444 1102.54 134.572C1104.7 127.247 1104.53 124.731 1103.88 114.506C1103.76 112.627 1102.65 107.124 1101.14 102.578C1098.82 95.5702 1101.42 90.2127 1098.05 83.9124C1097.72 83.0907 1097.41 82.3533 1097.13 81.6959C1098.97 80.4077 1100.24 77.8259 1099.33 74.91C1097.82 72.2718 1094.59 74.7557 1092.36 76.2038C1090.98 75.9165 1089.09 75.9281 1086.21 75.7833C1084.44 75.6938 1082.65 75.6254 1080.94 75.9447C1079.99 73.8124 1076.94 72.6521 1073.49 73.4254C1070.43 74.1442 1072 78.4718 1074.27 81.0134C1071.35 85.7219 1070.23 91.4046 1070.12 97.6019C1070.1 98.6677 1070.41 99.3378 1069.75 100.757C1066.97 106.7 1065 129.053 1068.7 136.794C1067.77 137.228 1066.81 137.834 1065.9 138.68C1062.65 141.716 1062.29 143.593 1064.04 144.822C1062.73 146.687 1098.71 146.925 1103.23 144.991ZM1094.11 83.1688C1095.37 85.356 1092.51 86.7953 1091.37 85.0589C1090.57 83.1078 1093.01 80.9901 1094.11 83.1688ZM1083.77 85.4297C1091.01 81.0437 1095.12 97.7842 1090.59 100.545C1087.96 102.402 1080.01 101.926 1078.72 98.4071C1078.45 94.8259 1080.75 87.1005 1083.77 85.4297ZM1080.24 82.7862C1081.03 84.021 1079.85 85.9288 1078.54 85.1782C1076.24 83.9805 1079.28 79.9587 1080.24 82.7862ZM1074.4 145.106C1075.25 144.419 1075.93 143.649 1076.63 142.844C1077.04 142.369 1077.42 141.897 1077.78 141.438C1081.87 142.413 1085.43 142.559 1090.22 141.959C1090.87 142.949 1091.8 144.298 1092.58 145.183C1086.35 145.243 1080.32 145.214 1074.4 145.106L1074.4 145.106Z" fill="#292424"/>
<g clip-path="url(#clip2_375_764)">
<path d="M874.89 177.654C871.333 156.663 870.355 137.019 865.749 116.411C863.629 99.0094 861.886 78.9745 854.042 62.349C850.338 59.9481 841.784 74.9117 840.116 77.4348C834.485 87.2686 828.238 97.1554 823.537 107.342C810.183 129.986 799.493 153.174 785.772 175.758C804.22 175.683 822.632 179.565 841.048 180.425C852.288 180.836 863.918 176.69 874.873 177.627" fill="#812B0E"/>
<path d="M816.301 205.716C817.185 169.722 836.689 134.959 841.696 99.8831C845.741 100.518 843.929 103.861 843.175 106.504C842.168 129.859 835.064 152.64 828.287 175.099C826.126 179.136 823.828 213.559 816.301 205.716Z" fill="#292424"/>
<path d="M855.542 128.665C849.881 129.945 846.295 133.689 841.604 136.679C840.024 138.208 837.799 141.947 835.594 141.744C833.148 141.529 831.025 138.574 833.053 136.715C834.509 138.462 858.334 116.732 855.541 128.651" fill="#292424"/>
<path d="M853.741 144.531C846.215 149.761 838.55 157.074 829.288 158.295C821.619 153.674 838.67 150.172 842.313 147.345C845.402 146.489 853.933 137.103 853.741 144.531Z" fill="#292424"/>
<path d="M818.979 142.829C820.143 151.379 825.771 157.887 831.113 164.18C826.369 177.967 806.975 134.433 818.979 142.829Z" fill="#292424"/>
<path d="M697.127 192.687C711.756 191.99 726.18 189.959 740.701 189.214C743.129 187.947 767.059 189.24 760.965 184.903C746.378 156.114 732.285 127.252 713.951 100.13C693.906 76.3019 692.835 140.213 691.518 149.196C690.557 159.502 690.832 169.536 691.299 179.957C692.547 184.602 688.391 195.77 697.127 192.687Z" fill="#64524F"/>
<path d="M729.377 213.349C728.47 209.795 699.374 102.609 710.124 127.152C716.84 145.058 720.838 164.194 725.878 182.591C725.27 187.518 735.442 214.858 729.377 213.349Z" fill="#292424"/>
<path d="M699.373 154.835C704.205 158.098 709.524 161.659 715.373 163.32C717.247 164.285 720.909 164.121 720.909 166.73C722.067 174.47 690.695 154.069 699.373 154.849" fill="#292424"/>
<path d="M722.861 175.079C727.272 183.12 708.967 177.13 706.359 173.904C703.647 173.088 702.778 168.213 705.239 170.309C705.062 170.141 706.421 170.838 706.326 170.775C710.28 175.206 717.11 175.664 722.861 175.079Z" fill="#292424"/>
<path d="M801.291 204.475C790.367 206.639 779.29 207.605 768.438 209.71C766.355 209.046 749.068 214.774 752.527 209.761C756.47 181.482 760.022 153.228 767.127 125.708C776.24 100.78 792.1 157.174 795.175 164.874C798.313 173.821 800.469 182.761 802.588 192.074C802.758 196.416 808.445 205.516 801.306 204.46" fill="#64524F"/>
<path d="M772.53 236.97C772.675 233.307 779.1 122.68 773.629 148.805C770.732 167.638 770.766 187.164 769.617 206.16C771.231 210.864 766.895 239.621 772.531 236.983" fill="#292424"/>
<path d="M789.883 173.862C785.809 177.994 781.335 182.508 775.948 185.241C774.308 186.54 770.686 187.1 771.226 189.647C771.692 197.445 798.237 171.436 789.883 173.862Z" fill="#292424"/>
<path d="M771.045 198.201C768.381 206.926 785.088 197.541 786.97 193.878C789.455 192.552 789.307 187.604 787.322 190.134C787.46 189.933 786.265 190.874 786.366 190.799C783.397 195.904 776.799 197.67 771.06 198.2" fill="#292424"/>
</g>
<g clip-path="url(#clip3_375_764)">
<path d="M1056 118.197C1047.61 99.9368 1041.76 82.3742 1032.56 64.6979C1026.32 49.3915 1019.71 31.6341 1008.75 18.2592C1004.95 16.8795 1001.4 32.2671 1000.62 34.9129C998.273 45.0252 995.422 55.3161 993.989 65.5582C988.271 88.9318 984.981 112.224 978.938 135.63C994.787 131.589 1011.6 131.167 1027.66 127.985C1037.41 125.956 1046.36 119.691 1056.02 118.181" fill="#812B0E"/>
<path d="M1014.72 158.696C1006.17 125.242 1014.14 88.8509 1009.41 55.3488C1013.1 55.0567 1012.38 58.5302 1012.41 61.1435C1017.57 82.9589 1017.3 105.553 1017.22 127.791C1016.39 131.995 1023.29 164.312 1014.72 158.696Z" fill="#292424"/>
<path d="M1028.91 78.9331C1024.32 81.3516 1022.17 85.5881 1018.86 89.3863C1017.88 91.1393 1016.92 95.0836 1014.95 95.3758C1012.77 95.7166 1010.16 93.4442 1011.43 91.2854C1013.16 92.5839 1028.24 67.3112 1028.91 78.9331Z" fill="#292424"/>
<path d="M1031.45 93.9798C1026.26 100.44 1021.48 108.897 1013.73 112.029C1005.86 109.432 1019.79 102.485 1022.23 99.0766C1024.69 97.6157 1029.69 87.0814 1031.45 93.9798Z" fill="#292424"/>
<path d="M1000.78 99.9858C1004.01 107.631 1010.6 112.435 1016.86 117.078C1016.3 130.858 988.157 94.8404 1000.78 99.9858Z" fill="#292424"/>
<path d="M1000.13 181.03C994.819 157.316 992.343 135.013 985.942 111.802C982.424 92.097 979.101 69.3889 969.523 50.8686C965.385 48.3202 957.339 65.8017 955.742 68.7559C950.432 80.2317 944.471 91.8048 940.187 103.654C927.547 130.112 917.806 157.04 904.775 183.449C924.484 182.41 944.438 185.9 964.18 185.948C976.217 185.851 988.336 180.527 1000.11 181.046" fill="#812B0E"/>
<path d="M939.552 215.977C937.89 174.976 956.231 134.397 959.049 94.2236C963.415 94.743 961.721 98.6386 961.118 101.69C961.721 128.326 955.775 154.622 950.156 180.527C948.136 185.218 948.168 224.531 939.568 215.993" fill="#292424"/>
<path d="M975.924 126.281C969.963 128.018 966.396 132.465 961.607 136.118C960.027 137.935 957.925 142.302 955.547 142.204C952.908 142.091 950.433 138.828 952.469 136.621C954.146 138.536 978.042 112.582 975.924 126.297" fill="#292424"/>
<path d="M975.143 144.428C967.487 150.758 959.815 159.491 949.993 161.341C941.474 156.488 959.44 151.619 963.121 148.226C966.363 147.09 974.8 135.971 975.126 144.428" fill="#292424"/>
<path d="M937.89 144.266C939.747 153.94 946.246 161.066 952.387 167.948C948.315 183.887 924.452 135.322 937.89 144.266Z" fill="#292424"/>
<path d="M866.17 159.767C881.759 158.209 897.021 155.19 912.496 153.583C915.004 152.008 940.659 152.268 933.834 147.642C916.177 115.617 899.025 83.4781 877.475 53.547C854.329 27.4627 857.798 100.262 857.049 110.553C856.756 122.337 857.782 133.731 859.036 145.58C860.714 150.791 857.065 163.727 866.187 159.767" fill="#64524F"/>
<path d="M903.781 176.08C902.56 172.071 863.727 51.5668 876.986 78.9496C885.456 98.9795 891.109 120.568 897.82 141.247C897.526 146.879 910.378 177.492 903.781 176.08Z" fill="#292424"/>
<path d="M867.49 111.007C872.898 114.481 878.827 118.263 885.212 119.837C887.281 120.827 891.19 120.47 891.369 123.441C893.161 132.189 858.157 110.569 867.49 111.007Z" fill="#292424"/>
<path d="M894.041 132.839C899.335 141.766 879.332 135.874 876.319 132.335C873.37 131.54 872.083 126.037 874.869 128.294C874.673 128.099 876.172 128.829 876.058 128.764C880.602 133.601 887.932 133.78 894.041 132.822" fill="#292424"/>
</g>
<g clip-path="url(#clip4_375_764)">
<path d="M1113.59 134.005C1127.26 136.86 1141.05 138.355 1154.63 141.133C1157.18 140.463 1178.93 147.553 1174.37 141.785C1167.96 109.764 1162.03 77.7816 1151.75 46.4986C1139.1 18.0612 1122.47 81.0392 1119.07 89.6049C1115.66 99.5695 1113.46 109.563 1111.34 119.997C1111.36 124.893 1104.79 134.934 1113.6 134.005" fill="#64524F"/>
<path d="M1141.18 157.967C1141.21 154.221 1140.61 41.1231 1144.51 68.0178C1146.33 87.3625 1145.33 107.263 1145.48 126.694C1143.71 131.417 1146.41 160.937 1141.18 157.977" fill="#292424"/>
<path d="M1127.83 92.7954C1131.49 97.2028 1135.52 102.013 1140.51 105.069C1142.01 106.478 1145.42 107.206 1144.78 109.783C1143.96 117.716 1120.01 89.921 1127.83 92.7954Z" fill="#292424"/>
<path d="M1144.52 118.512C1146.62 127.537 1131.21 117.17 1129.6 113.347C1127.3 111.881 1127.69 106.851 1129.46 109.515C1129.34 109.304 1130.42 110.329 1130.34 110.233C1132.91 115.58 1139.08 117.688 1144.53 118.502" fill="#292424"/>
</g>
<g clip-path="url(#clip5_375_764)">
<path d="M1409.7 219.695C1397.65 220.7 1385.69 220.401 1373.73 221.344C1371.64 220.391 1352.12 224.404 1356.81 219.505C1366.7 189.954 1376.18 160.379 1389.27 132.009C1403.99 106.631 1409.46 168.39 1411.18 176.932C1412.71 186.801 1413.2 196.546 1413.56 206.699C1412.87 211.337 1417.08 221.672 1409.69 219.694" fill="#64524F"/>
<path d="M1382.87 238.974C1383.36 235.419 1399.52 128.302 1392.47 153.307C1388.25 171.415 1386.34 190.401 1383.52 208.798C1384.38 213.496 1377.99 241.138 1382.86 238.982" fill="#292424"/>
<path d="M1403.27 178.867C1399.54 182.588 1395.44 186.646 1390.75 188.921C1389.28 190.069 1386.27 190.335 1386.46 192.857C1386.07 200.479 1410.33 177.115 1403.27 178.867Z" fill="#292424"/>
<path d="M1385.47 201.162C1382.43 209.455 1397.01 201.547 1398.91 198.125C1401.08 197.022 1401.44 192.205 1399.57 194.51C1399.69 194.325 1398.63 195.161 1398.71 195.081C1395.78 199.829 1390.22 201.058 1385.47 201.152" fill="#292424"/>
</g>
<g clip-path="url(#clip6_375_764)">
<path d="M572.594 210.005C586.26 212.86 600.051 214.355 613.63 217.133C616.181 216.463 637.932 223.553 633.367 217.785C626.961 185.764 621.034 153.782 610.753 122.499C598.104 94.0612 581.474 157.039 578.07 165.605C574.656 175.569 572.459 185.563 570.34 195.997C570.359 200.893 563.79 210.934 572.603 210.005" fill="#64524F"/>
<path d="M600.175 233.967C600.214 230.221 599.609 117.123 603.513 144.018C605.325 163.363 604.328 183.263 604.481 202.694C602.707 207.417 605.412 236.937 600.185 233.977" fill="#292424"/>
<path d="M586.826 168.795C590.489 173.203 594.517 178.013 599.514 181.069C601.01 182.478 604.424 183.206 603.781 185.783C602.956 193.716 579.01 165.921 586.826 168.795Z" fill="#292424"/>
<path d="M603.522 194.512C605.623 203.537 590.211 193.17 588.6 189.347C586.298 187.881 586.691 182.851 588.456 185.515C588.341 185.304 589.425 186.329 589.338 186.233C591.909 191.58 598.085 193.688 603.532 194.502" fill="#292424"/>
</g>
<g clip-path="url(#clip7_375_764)">
<path d="M1253.02 159.731C1252.23 136.124 1253.85 114.377 1251.95 91.0602C1252.13 71.6069 1253.04 49.3178 1247.32 29.9276C1243.88 26.7725 1233.2 42.0328 1231.18 44.591C1224.16 54.6332 1216.5 64.6201 1210.37 75.1858C1193.81 98.2501 1179.85 122.255 1162.93 145.185C1181.65 147.677 1199.8 154.54 1218.36 158.075C1229.69 160.104 1242.04 157.17 1253.03 159.75" fill="#812B0E"/>
<path d="M1190.81 185.961C1196.67 145.675 1221.45 109.397 1231.41 70.7106C1235.47 71.9965 1233.15 75.4869 1232.03 78.3494C1227.77 104.438 1217.36 129.013 1207.32 153.27C1204.54 157.496 1197.45 195.829 1190.81 185.961Z" fill="#292424"/>
<path d="M1241.68 104.998C1235.69 105.637 1231.49 109.324 1226.28 112.034C1224.44 113.531 1221.66 117.405 1219.42 116.875C1216.93 116.292 1215.17 112.668 1217.5 110.879C1218.75 113.047 1246.19 92.0148 1241.69 105.003" fill="#292424"/>
<path d="M1237.65 122.557C1229.22 127.362 1220.33 134.505 1210.66 134.56C1203.42 128.3 1221.4 126.769 1225.53 124.106C1228.81 123.588 1238.86 114.246 1237.65 122.557Z" fill="#292424"/>
<path d="M1202.21 115.747C1202.23 125.503 1207.12 133.624 1211.72 141.443C1204.95 156.255 1191.03 104.639 1202.21 115.747Z" fill="#292424"/>
<path d="M1299.55 167.045C1284.5 164.165 1269.96 159.548 1255.04 156.616C1252.78 154.572 1227.66 153.198 1234.9 148.12C1256.06 111.053 1276.73 73.8222 1301.46 39.511C1327.25 9.89204 1314.99 96.555 1314.48 108.895C1313.33 122.975 1310.94 136.526 1308.28 150.59C1306.01 156.705 1308 172.377 1299.56 167.05" fill="#64524F"/>
<path d="M1244.61 196.572C1246.89 191.576 1318.33 41.752 1296.46 74.9904C1282.03 99.5317 1270.89 126.594 1258.55 152.303C1257.89 159.688 1235.96 197.208 1244.59 196.567" fill="#292424"/>
<path d="M1302.65 118.467C1295.15 121.995 1286.91 125.849 1278.53 126.734C1275.71 127.659 1270.82 126.46 1270.04 130.296C1266.16 141.362 1314.6 119.589 1302.65 118.467Z" fill="#292424"/>
<path d="M1264.91 142.052C1256.54 152.722 1283.03 148.696 1287.51 144.644C1291.4 144.157 1294.04 137.215 1290.08 139.649C1290.37 139.446 1288.33 140.108 1288.49 140.052C1281.82 145.513 1272.48 144.422 1264.91 142.052Z" fill="#292424"/>
<path d="M1271.75 160.247C1285.76 141.23 1296.72 122.379 1311.47 104.232C1322.32 88.0907 1334.17 69.1916 1349.86 56.4411C1354.48 55.7861 1354.65 74.4218 1354.88 77.6572C1355 89.9096 1355.65 102.484 1354.73 114.669C1355.35 143.063 1353.27 170.758 1354.28 199.248C1337.43 190.715 1318.58 186.097 1301.29 178.49C1290.78 173.754 1282.27 164.335 1271.76 160.233" fill="#812B0E"/>
<path d="M1308.21 217.083C1326.16 180.559 1326.22 136.597 1339.89 99.0758C1335.81 97.8327 1335.74 102.034 1335.07 105.032C1323.82 128.945 1318.52 155.11 1313.09 180.789C1312.99 185.838 1297.16 221.471 1308.22 217.088" fill="#292424"/>
<path d="M1312.04 121.54C1316.62 125.463 1317.99 130.876 1320.77 136.067C1321.43 138.337 1321.55 143.125 1323.69 143.94C1326.07 144.866 1329.58 142.886 1328.67 140.071C1326.41 141.137 1315.68 108.267 1312.04 121.526" fill="#292424"/>
<path d="M1305.43 138.296C1309.68 147.028 1312.96 157.942 1320.91 163.472C1330.41 162.411 1316.45 150.971 1314.55 146.427C1312.14 144.139 1309.13 130.758 1305.43 138.296Z" fill="#292424"/>
<path d="M1338.51 152.73C1332.98 160.765 1324.37 164.697 1316.15 168.527C1313.35 184.577 1354.01 149.887 1338.51 152.73Z" fill="#292424"/>
</g>
<g clip-path="url(#clip8_375_764)">
<path d="M101 198.007C91.7423 177.971 85.2883 158.674 75.1464 139.264C68.2631 122.461 60.9882 102.952 48.8886 88.2786C44.6955 86.775 40.7928 103.666 39.9213 106.573C37.3448 117.687 34.1873 128.977 32.5959 140.229C26.2935 165.904 22.6561 191.478 15.9874 217.178C33.4547 212.742 52.0082 212.266 69.7155 208.77C80.4889 206.54 90.3403 199.661 101 198.019" fill="#812B0E"/>
<path d="M55.4814 242.464C46.0468 205.737 54.8373 165.778 49.6211 128.989C53.6753 128.663 52.8923 132.485 52.9302 135.355C58.6263 159.3 58.3232 184.123 58.2348 208.532C57.3128 213.143 64.9413 248.629 55.4814 242.476" fill="#292424"/>
<path d="M71.13 154.889C66.0527 157.546 63.6909 162.195 60.0408 166.367C58.9547 168.297 57.8937 172.62 55.7214 172.946C53.309 173.309 50.4294 170.828 51.844 168.447C53.7385 169.863 70.3848 142.121 71.1174 154.889" fill="#292424"/>
<path d="M73.9338 171.417C68.2124 178.522 62.9457 187.794 54.3952 191.24C45.7184 188.395 61.0765 180.752 63.7667 177.018C66.4821 175.414 71.9888 163.849 73.9338 171.417Z" fill="#292424"/>
<path d="M40.0981 178.008C43.6598 186.403 50.922 191.666 57.8306 196.778C57.2118 211.915 26.1798 172.369 40.0981 178.008Z" fill="#292424"/>
</g>
<g clip-path="url(#clip9_375_764)">
<path d="M699 191.007C689.742 170.971 683.288 151.674 673.146 132.264C666.263 115.461 658.988 95.9516 646.888 81.2786C642.695 79.775 638.793 96.6658 637.921 99.5729C635.345 110.687 632.187 121.977 630.596 133.229C624.293 158.904 620.656 184.478 613.987 210.178C631.455 205.742 650.008 205.266 667.715 201.77C678.489 199.54 688.34 192.661 699 191.019" fill="#812B0E"/>
<path d="M653.481 235.464C644.047 198.737 652.837 158.778 647.621 121.989C651.675 121.663 650.892 125.485 650.93 128.355C656.626 152.3 656.323 177.123 656.235 201.532C655.313 206.143 662.941 241.629 653.481 235.476" fill="#292424"/>
<path d="M669.13 147.889C664.053 150.546 661.691 155.195 658.041 159.367C656.955 161.297 655.894 165.62 653.721 165.946C651.309 166.309 648.43 163.828 649.844 161.447C651.739 162.863 668.385 135.121 669.117 147.889" fill="#292424"/>
<path d="M671.934 164.417C666.212 171.522 660.946 180.794 652.395 184.24C643.718 181.395 659.076 173.752 661.767 170.018C664.482 168.414 669.989 156.849 671.934 164.417Z" fill="#292424"/>
<path d="M638.098 171.008C641.66 179.403 648.922 184.666 655.831 189.778C655.212 204.915 624.18 165.369 638.098 171.008Z" fill="#292424"/>
</g>
<defs>
<clipPath id="clip0_375_764">
<rect width="288.223" height="173.221" fill="white" transform="matrix(-1 8.74228e-08 8.74228e-08 1 385.223 70.1782)"/>
</clipPath>
<clipPath id="clip1_375_764">
<rect width="228" height="211" fill="white" transform="translate(365 30.1782)"/>
</clipPath>
<clipPath id="clip2_375_764">
<rect width="183.849" height="169.544" fill="white" transform="translate(684 72.854) rotate(-3.64115)"/>
</clipPath>
<clipPath id="clip3_375_764">
<rect width="199" height="199" fill="white" transform="translate(857 18.1782)"/>
</clipPath>
<clipPath id="clip4_375_764">
<rect width="66" height="119" fill="white" transform="translate(1109 39.1782)"/>
</clipPath>
<clipPath id="clip5_375_764">
<rect width="56.8714" height="113.981" fill="white" transform="matrix(-0.989514 -0.144436 -0.144436 0.989514 1426.74 130.393)"/>
</clipPath>
<clipPath id="clip6_375_764">
<rect width="66" height="119" fill="white" transform="translate(568 115.178)"/>
</clipPath>
<clipPath id="clip7_375_764">
<rect width="198.597" height="183.832" fill="white" transform="translate(1211.7) rotate(18.5718)"/>
</clipPath>
<clipPath id="clip8_375_764">
<rect width="85" height="155" fill="white" transform="translate(16 88.1782)"/>
</clipPath>
<clipPath id="clip9_375_764">
<rect width="85" height="155" fill="white" transform="translate(614 81.1782)"/>
</clipPath>
</defs>
</svg>
