<svg width="138" height="252" viewBox="0 0 138 252" fill="none" xmlns="http://www.w3.org/2000/svg">
<g clip-path="url(#clip0_26_44)">
<path d="M138 178.559C122.97 145.985 112.492 114.612 96.0258 83.0561C84.8505 55.7375 73.0395 24.0185 53.3955 0.163017C46.5878 -2.28161 40.2517 25.1797 38.8368 29.9059C34.6538 47.9758 29.5275 66.3308 26.9438 84.6248C16.7117 126.367 10.8062 167.946 -0.0205078 209.728C28.3382 202.517 58.4603 201.743 87.2086 196.059C104.7 192.433 120.694 181.249 138 178.58" fill="#812B0E"/>
<path d="M64.0994 250.839C48.782 191.129 63.0536 126.163 54.585 66.3512C61.1671 65.8215 59.8958 72.0349 59.9573 76.7001C69.2052 115.631 68.713 155.987 68.5695 195.672C67.0726 203.169 79.4578 260.862 64.0994 250.859" fill="#201F1D"/>
<path d="M89.5051 108.46C81.2621 112.779 77.4276 120.337 71.5016 127.12C69.7381 130.258 68.0157 137.286 64.4888 137.816C60.5723 138.406 55.8971 134.373 58.1937 130.502C61.2695 132.804 88.2953 87.7009 89.4846 108.46" fill="#201F1D"/>
<path d="M94.0576 135.33C84.7687 146.881 76.2181 161.956 62.336 167.559C48.249 162.934 73.1833 150.507 77.5509 144.437C81.9595 141.829 90.8998 123.026 94.0576 135.33Z" fill="#201F1D"/>
<path d="M39.1239 146.046C44.9063 159.695 56.6968 168.251 67.9132 176.563C66.9084 201.172 16.5271 136.879 39.1239 146.046Z" fill="#201F1D"/>
</g>
<defs>
<clipPath id="clip0_26_44">
<rect width="138" height="252" fill="white"/>
</clipPath>
</defs>
</svg>
