<svg width="269" height="249" viewBox="0 0 269 249" fill="none" xmlns="http://www.w3.org/2000/svg">
<g clip-path="url(#clip0_26_40)">
<path d="M121.959 187.265C110.763 157.294 103.471 128.669 90.9608 99.5552C82.8055 74.4982 74.3627 45.4859 58.6479 23.0589C52.8756 20.49 45.7474 44.6907 44.2478 48.8499C39.5642 64.773 34.0384 80.9 30.7311 97.1086C19.4123 133.868 11.8528 170.71 0.0205078 207.449C25.1231 202.576 51.3965 203.555 76.7456 200.089C92.1728 197.805 106.758 188.712 121.98 187.285" fill="#812B0E"/>
<path d="M53.4096 247.777C43.5493 193.524 59.7161 136.254 55.813 82.2864C61.5854 82.1845 60.1064 87.6689 59.9009 91.8281C65.6938 127.161 62.9206 163.207 60.4967 198.682C58.7506 205.308 66.1868 257.583 53.4096 247.777Z" fill="#201F1D"/>
<path d="M83.7914 121.88C76.3757 125.285 72.5754 131.83 67.0495 137.559C65.3445 140.27 63.4341 146.448 60.3322 146.733C56.8811 147.059 53.0603 143.165 55.2788 139.862C57.8261 142.105 83.9763 103.266 83.8119 121.88" fill="#201F1D"/>
<path d="M86.1949 146.162C77.4439 155.969 69.1038 168.977 56.7168 173.217C44.7202 168.304 67.1523 158.579 71.3018 153.38C75.287 151.3 84.1612 134.969 86.1949 146.162Z" fill="#201F1D"/>
<path d="M37.7564 152.707C41.9881 165.225 51.7662 173.544 61.0512 181.597C58.7505 203.534 18.6111 143.267 37.7564 152.707Z" fill="#201F1D"/>
<path d="M184.859 176.581C164.296 179.375 143.631 179.721 123.212 182.392C119.432 180.741 86.5854 189.813 93.693 180.17C104.868 123.45 115.344 66.7303 132.292 12.0086C152.629 -37.1472 174.28 79.4117 178.943 95.4775C183.545 114.051 186.318 132.482 188.968 151.688C188.701 160.516 198.006 179.782 184.88 176.581" fill="#433838"/>
<path d="M127.054 238.194C127.834 230.793 154.929 7.60479 141.187 59.7168C133.237 97.4552 130.607 137.008 125.862 175.338C128.204 185.104 116.228 242.741 127.033 238.194" fill="#201F1D"/>
<path d="M167.891 112.869C159.777 120.636 150.862 129.138 140.488 133.889C137.263 136.295 130.463 136.865 131.121 142.126C130.915 158.008 183.709 109.158 167.891 112.869Z" fill="#201F1D"/>
<path d="M129.601 159.435C123.459 176.745 155.731 160.149 159.736 153.013C164.523 150.709 164.913 140.658 160.887 145.49C161.174 145.102 158.832 146.835 159.017 146.692C152.814 156.581 140.345 159.211 129.601 159.435Z" fill="#201F1D"/>
<path d="M146.24 179.844C156.018 149.384 161.955 120.453 173.068 90.7883C180.032 65.3847 187.098 36.0054 201.745 12.8649C207.394 10.031 215.652 33.885 217.336 37.9423C222.78 53.6207 229.045 69.4827 233.113 85.5281C246.157 121.717 255.442 158.171 269.02 194.319C243.712 190.629 217.521 192.831 192.028 190.527C176.498 188.977 161.503 180.557 146.24 179.823" fill="#812B0E"/>
<path d="M217.562 237.093C224.855 182.453 205.976 125.978 207.332 71.9089C201.56 72.072 203.285 77.4952 203.717 81.634C199.588 117.191 204.066 153.074 208.174 188.386C210.229 194.91 205.278 247.491 217.583 237.093" fill="#201F1D"/>
<path d="M181.264 112.767C188.844 115.825 192.932 122.186 198.745 127.65C200.574 130.28 202.792 136.376 205.894 136.498C209.345 136.662 213.002 132.604 210.619 129.383C208.174 131.728 180.216 94.1523 181.264 112.746" fill="#201F1D"/>
<path d="M180.011 137.13C189.235 146.509 198.15 159.109 210.742 162.779C222.492 157.315 199.629 148.65 195.233 143.634C191.145 141.738 181.511 125.856 180.011 137.13Z" fill="#201F1D"/>
<path d="M228.717 141.392C225.081 154.093 215.714 162.86 206.819 171.321C210.147 193.137 247.39 131.055 228.717 141.392Z" fill="#201F1D"/>
</g>
<defs>
<clipPath id="clip0_26_40">
<rect width="269" height="249" fill="white"/>
</clipPath>
</defs>
</svg>
