<svg width="338" height="242" viewBox="0 0 338 242" fill="none" xmlns="http://www.w3.org/2000/svg">
<g clip-path="url(#clip0_26_39)">
<path d="M164.456 181.658C148.728 181.74 133.185 179.961 117.56 179.982C114.887 178.366 89.3109 181.965 95.6022 175.422C109.644 133.831 123.152 92.1788 141.306 52.6532C161.475 17.6465 166.142 107.515 168.034 120.049C169.637 134.485 169.884 148.615 169.966 163.337C168.877 169.962 173.955 185.36 164.415 181.679" fill="#433838"/>
<path d="M114.928 222.37C116.244 216.87 158.782 51.549 143.28 89.4183C133.555 117.043 127.655 146.57 120.294 174.931C121.096 182.517 106.355 224.722 114.928 222.37Z" fill="#201F1D"/>
<path d="M158.042 132.052C151.175 137.103 143.629 142.624 135.364 145.2C132.712 146.693 127.552 146.468 127.511 150.476C125.763 162.417 170.295 130.825 158.042 132.052Z" fill="#201F1D"/>
<path d="M124.653 163.337C118.321 175.749 144.205 166.445 147.926 161.456C151.751 160.188 153.046 152.663 149.551 155.915C149.797 155.649 147.865 156.733 148.029 156.63C142.375 163.48 132.753 164.217 124.674 163.337" fill="#201F1D"/>
<path d="M328.584 214.273C330.085 181.495 334.69 151.539 334.628 119.047C337.013 92.1175 340.693 61.323 334.957 33.923C330.578 29.22 314.233 49.3406 311.17 52.6736C300.417 65.9034 288.78 79.0104 279.22 93.0376C253.911 123.362 232.118 155.281 206.336 185.421C231.81 190.696 255.988 201.943 281.132 208.629C296.49 212.535 313.781 209.672 328.604 214.293" fill="#812B0E"/>
<path d="M239.273 239.567C251.444 185.421 288.924 138.575 306.503 87.0259C311.89 89.173 308.374 93.6919 306.523 97.4748C298.012 132.481 281.297 164.85 265.116 196.81C260.902 202.27 247.25 253.635 239.273 239.587" fill="#201F1D"/>
<path d="M316.824 134.588C308.621 134.853 302.535 139.475 295.154 142.644C292.502 144.484 288.308 149.494 285.327 148.553C282.016 147.511 280.002 142.44 283.353 140.211C284.833 143.278 324.287 117.391 316.824 134.588Z" fill="#201F1D"/>
<path d="M309.525 158.041C297.559 163.746 284.751 172.58 271.613 171.7C262.443 162.499 287.033 162.172 292.913 158.961C297.436 158.573 312.054 146.877 309.525 158.041Z" fill="#201F1D"/>
<path d="M262.115 145.323C261.107 158.573 266.905 170.085 272.333 181.147C261.601 200.614 248.114 129.128 262.115 145.323Z" fill="#201F1D"/>
<path d="M158.597 206.196C178.992 209.406 199.47 210.572 219.721 213.68C223.463 212.473 256.05 221.429 248.977 213.087C237.649 165.321 226.999 117.575 209.975 71.2198C189.601 29.3631 168.671 125.631 164.128 138.82C159.666 154.115 156.993 169.369 154.444 185.257C154.752 192.618 145.624 208.302 158.597 206.196Z" fill="#433838"/>
<path d="M200.785 240.139C200.621 234.496 193.158 64.0017 200.477 104.243C204.28 133.279 203.972 163.358 205.329 192.639C202.985 199.898 208.68 244.208 200.785 240.16" fill="#201F1D"/>
<path d="M177.244 142.93C182.919 149.29 189.148 156.221 196.735 160.413C199.038 162.417 204.136 163.255 203.334 167.181C202.574 179.205 165.525 139.209 177.265 142.93" fill="#201F1D"/>
<path d="M203.458 180.37C207.097 193.825 183.68 179.409 181.069 173.766C177.574 171.741 177.861 164.114 180.637 167.999C180.452 167.693 182.117 169.144 181.994 169.022C186.106 176.874 195.378 179.573 203.479 180.37" fill="#201F1D"/>
<path d="M123.666 169.84C114.743 138.923 109.624 109.641 99.344 79.4808C93.0939 53.7165 86.8438 23.965 72.8427 0.265929C67.2505 -2.7399 58.2659 21 56.4567 25.0487C50.5355 40.6708 43.7714 56.4566 39.2277 72.4468C25.0622 108.476 14.6796 144.873 0 180.861C25.5145 177.876 51.7485 180.861 77.3864 179.266C93.0117 178.142 108.308 170.126 123.666 169.819" fill="#812B0E"/>
<path d="M50.4121 225.376C44.6759 170.187 65.2767 113.935 65.5028 59.5032C71.2801 59.8303 69.3886 65.2286 68.854 69.3999C71.9585 105.286 66.428 141.254 61.2675 176.669C59.0265 183.172 62.46 236.213 50.4121 225.396" fill="#201F1D"/>
<path d="M90.4625 101.36C82.7732 104.202 78.4762 110.5 72.4933 115.837C70.5813 118.434 68.1758 124.486 65.0508 124.548C61.5762 124.609 58.0399 120.417 60.5071 117.268C62.892 119.702 92.0455 82.7115 90.4419 101.38" fill="#201F1D"/>
<path d="M90.9968 125.897C81.4777 135.078 72.1436 147.49 59.3966 150.803C47.7599 144.955 70.9717 136.898 75.5154 132.011C79.6684 130.212 89.8043 114.508 90.9762 125.897" fill="#201F1D"/>
<path d="M42.0035 128.78C45.293 141.663 54.442 150.741 63.1182 159.534C59.1296 181.372 23.5615 117.861 42.0035 128.78Z" fill="#201F1D"/>
</g>
<defs>
<clipPath id="clip0_26_39">
<rect width="338" height="242" fill="white"/>
</clipPath>
</defs>
</svg>
