<svg width="140" height="253" viewBox="0 0 140 253" fill="none" xmlns="http://www.w3.org/2000/svg">
<g clip-path="url(#clip0_26_43)">
<path d="M9.74455 201.606C38.7332 207.676 67.9863 210.854 96.7919 216.761C102.203 215.335 148.341 230.409 138.658 218.146C125.069 150.068 112.497 82.0722 90.689 15.5629C63.8567 -44.8963 28.5821 88.9981 21.3604 107.209C14.1183 128.394 9.45975 149.641 4.96396 171.824C5.00465 182.233 -8.93025 203.581 9.76489 201.606" fill="#433838"/>
<path d="M68.2506 252.552C68.332 244.587 67.0504 4.13521 75.33 61.3148C79.1748 102.443 77.0591 144.752 77.3846 186.063C73.6212 196.106 79.3579 258.867 68.271 252.572" fill="#201F1D"/>
<path d="M39.933 113.993C47.704 123.363 56.248 133.589 66.8467 140.087C70.0202 143.081 77.2622 144.63 75.8993 150.109C74.1498 166.976 23.3535 107.882 39.933 113.993Z" fill="#201F1D"/>
<path d="M75.3504 168.667C79.8055 187.856 47.1144 165.815 43.6968 157.687C38.8145 154.57 39.6485 143.876 43.3916 149.539C43.1475 149.091 45.4463 151.27 45.2632 151.067C50.7151 162.433 63.8159 166.915 75.3707 168.646" fill="#201F1D"/>
</g>
<defs>
<clipPath id="clip0_26_43">
<rect width="140" height="253" fill="white"/>
</clipPath>
</defs>
</svg>
