<svg width="401" height="241" viewBox="0 0 401 241" fill="none" xmlns="http://www.w3.org/2000/svg">
<g clip-path="url(#clip0_26_38)">
<path d="M394.665 196.76C379.82 196.27 365.202 194.022 350.46 193.47C348 191.856 323.724 194.329 329.895 188.341C344.678 149.496 358.969 110.569 377.565 73.8489C397.884 41.4609 398.991 126.651 400.324 138.584C401.308 152.296 401.021 165.68 400.57 179.616C399.298 185.848 403.522 200.602 394.665 196.76Z" fill="#433838"/>
<path d="M346.4 233.46C347.856 228.31 394.09 73.4402 378.057 108.71C367.867 134.497 361.203 162.206 353.207 188.77C353.679 195.984 338.219 235.36 346.4 233.46Z" fill="#201F1D"/>
<path d="M390.441 149.578C383.777 154.114 376.458 159.059 368.544 161.184C365.981 162.492 361.122 162.104 360.937 165.884C358.846 177.103 402.046 148.842 390.441 149.578Z" fill="#201F1D"/>
<path d="M357.759 177.961C351.321 189.486 376.109 181.598 379.8 177.021C383.47 175.958 384.967 168.888 381.543 171.83C381.789 171.585 379.923 172.546 380.066 172.444C374.49 178.717 365.366 179.064 357.759 177.94" fill="#201F1D"/>
<path d="M344.616 178.553C337.338 148.985 333.586 121.093 324.954 92.1783C320.013 67.5756 315.194 39.1926 302.831 16.2656C297.664 13.2004 288.315 35.351 286.449 39.1109C280.298 53.6804 273.327 68.3521 268.447 83.3303C253.746 116.904 242.613 150.967 227.441 184.479C251.655 182.579 276.3 186.359 300.576 185.787C315.379 185.297 330.121 178.267 344.616 178.533" fill="#812B0E"/>
<path d="M273.388 228.453C270.005 176.04 291.513 123.545 293.728 72.0507C299.181 72.582 297.193 77.6088 296.537 81.5322C298.156 115.596 291.595 149.414 285.444 182.742C283.086 188.811 284.378 239.12 273.409 228.453" fill="#201F1D"/>
<path d="M315.768 112.551C308.408 114.962 304.123 120.766 298.259 125.588C296.352 127.979 293.871 133.619 290.919 133.557C287.638 133.476 284.46 129.389 286.9 126.487C289.053 128.878 317.942 94.9369 315.748 112.551" fill="#201F1D"/>
<path d="M315.379 135.805C306.05 144.142 296.783 155.545 284.645 158.221C273.881 152.275 296.086 145.491 300.555 141.016C304.553 139.463 314.702 124.975 315.379 135.785" fill="#201F1D"/>
<path d="M269.001 136.745C271.625 149.067 279.929 157.976 287.802 166.599C283.25 187.136 251.983 125.711 269.001 136.745Z" fill="#201F1D"/>
<path d="M73.8728 188.525C57.3473 190.017 40.8013 189.526 24.3783 190.936C21.4259 189.486 -5.16667 195.555 0.861242 188.076C11.8919 142.978 22.3485 97.8386 37.9104 54.5387C55.9736 15.8364 68.9726 110.16 72.1096 123.218C75.103 138.298 76.6408 153.174 78.035 168.684C77.4814 175.754 84.2064 191.549 73.8523 188.525" fill="#433838"/>
<path d="M25.424 235.871C26.3261 229.966 56.1992 51.8414 43.3027 93.1592C35.5525 123.156 32.0055 154.809 26.7977 185.378C28.3149 193.307 16.6076 239.12 25.424 235.871Z" fill="#201F1D"/>
<path d="M62.6781 136.786C55.9121 142.732 48.4694 149.21 40.0016 152.663C37.3362 154.461 31.8824 154.686 32.2105 158.937C31.4518 171.667 75.4515 134.395 62.6781 136.786Z" fill="#201F1D"/>
<path d="M30.3652 172.75C24.8293 186.42 51.2169 174.283 54.6819 168.684C58.598 167.008 59.2746 158.957 55.8916 162.696C56.1376 162.39 54.1898 163.698 54.3538 163.596C49.023 171.32 38.9765 172.954 30.3857 172.75" fill="#201F1D"/>
<path d="M273.04 180.127C261.681 147.31 254.505 116.025 241.732 84.1068C233.531 56.6842 225.124 24.9705 208.763 0.22476C202.612 -2.71775 194.452 23.4175 192.75 27.8926C187.357 45.0777 181.063 62.4875 177.167 79.9996C164.189 119.642 155.27 159.488 141.738 199.13C168.802 194.431 196.953 196.147 224.243 192.959C240.85 190.855 256.72 181.332 273.061 180.127" fill="#812B0E"/>
<path d="M195.251 239.651C186.025 181.68 204.498 121.052 201.607 63.5092C207.717 63.5092 206.036 69.3329 205.708 73.7671C211.059 111.509 207.287 149.823 203.883 187.544C201.894 194.553 208.578 250.379 195.251 239.651Z" fill="#201F1D"/>
<path d="M230.332 106.298C222.377 109.752 218.215 116.638 212.207 122.605C210.321 125.445 208.168 131.984 204.867 132.229C201.217 132.495 197.24 128.265 199.659 124.791C202.325 127.223 230.927 86.4567 230.311 106.298" fill="#201F1D"/>
<path d="M232.321 132.209C222.808 142.446 213.684 156.096 200.439 160.347C187.85 154.829 211.838 145 216.37 139.565C220.655 137.44 230.435 120.255 232.321 132.229" fill="#201F1D"/>
<path d="M180.817 138.053C185.02 151.478 195.19 160.551 204.847 169.338C201.915 192.653 160.745 127.55 180.817 138.053Z" fill="#201F1D"/>
<path d="M82.1355 203.422C103.705 206.589 125.356 207.59 146.782 210.655C150.718 209.327 185.225 218.441 177.66 209.695C165.153 159.264 153.384 108.873 134.89 59.9946C112.911 15.9182 91.8745 118.048 87.2203 132.045C82.6686 148.29 80.0237 164.454 77.5223 181.291C77.9324 189.097 68.4599 205.772 82.156 203.401" fill="#433838"/>
<path d="M127.078 238.854C126.853 232.888 117.052 52.5565 125.233 95.0595C129.58 125.731 129.58 157.567 131.343 188.525C128.944 196.229 135.464 243.064 127.078 238.854Z" fill="#201F1D"/>
<path d="M101.121 136.255C107.19 142.916 113.854 150.191 121.891 154.543C124.331 156.628 129.723 157.465 128.924 161.634C128.247 174.364 88.6965 132.454 101.121 136.255Z" fill="#201F1D"/>
<path d="M129.231 175.59C133.209 189.772 108.339 174.793 105.53 168.868C101.819 166.763 102.044 158.691 104.997 162.778C104.792 162.451 106.575 163.963 106.432 163.841C110.86 172.096 120.681 174.855 129.231 175.611" fill="#201F1D"/>
</g>
<defs>
<clipPath id="clip0_26_38">
<rect width="401" height="241" fill="white"/>
</clipPath>
</defs>
</svg>
