<svg width="249" height="253" viewBox="0 0 249 253" fill="none" xmlns="http://www.w3.org/2000/svg">
<g clip-path="url(#clip0_26_41)">
<path d="M249 174.161C245.997 142.564 246.365 113.217 241.912 82.0905C240.544 55.9745 239.91 25.9728 230.739 0.470383C225.939 -3.45622 213.09 18.0174 210.619 21.6168C202.162 35.728 192.868 49.8597 185.637 64.5844C165.639 97.0403 149.196 130.56 128.708 162.893C153.649 164.529 178.202 172.055 203.02 175.081C218.176 176.758 234.252 171.687 248.98 174.12" fill="#812B0E"/>
<path d="M167.396 210.4C171.686 156.88 201.039 106.959 210.823 55.1974C216.236 56.5267 213.499 61.3327 212.253 65.198C208.882 99.8829 197.321 133.136 186.229 165.94C182.961 171.748 176.894 222.794 167.396 210.4Z" fill="#201F1D"/>
<path d="M227.062 99.3717C219.3 100.742 214.132 105.977 207.534 109.986C205.267 112.113 201.937 117.471 198.975 116.96C195.687 116.407 193.072 111.806 195.972 109.229C197.79 111.97 231.862 81.8656 227.062 99.3512" fill="#201F1D"/>
<path d="M223.262 122.829C212.641 129.905 201.651 140.069 189.027 141.01C179.059 133.402 202.407 129.803 207.575 125.938C211.823 124.956 224.161 111.785 223.262 122.829Z" fill="#201F1D"/>
<path d="M176.424 117.001C177.262 129.844 184.309 140.069 190.989 149.947C183.39 170.03 160.921 103.36 176.424 117.001Z" fill="#201F1D"/>
<path d="M7.43515 179.703C27.2694 180.051 46.9402 178.395 66.6314 178.66C70.0222 177.004 102.255 181.196 94.3911 174.161C77.1511 129.905 60.5851 85.5876 38.1363 43.4585C13.0933 6.07393 6.14828 101.151 3.59495 114.403C1.40931 129.66 0.919073 144.63 0.653528 160.193C1.9404 167.228 -4.63696 183.466 7.43515 179.703Z" fill="#433838"/>
<path d="M49.2483 213.529C48.3291 208.151 18.2203 45.7695 30.6397 83.3381C38.1771 110.64 41.9356 139.517 47.1648 167.392C45.9188 174.672 57.3168 216.352 49.2483 213.529Z" fill="#201F1D"/>
<path d="M13.7266 123.545C19.9772 128.862 26.8609 134.67 34.623 137.697C37.0742 139.313 42.0379 139.415 41.8132 143.301C42.712 154.937 2.06307 121.581 13.7266 123.565" fill="#201F1D"/>
<path d="M43.7333 155.919C49.0034 168.312 24.7775 157.657 21.5296 152.606C17.9346 151.133 17.1788 143.791 20.3245 147.145C20.0998 146.879 21.8769 148.045 21.7543 147.943C26.718 154.917 35.91 156.246 43.7333 155.919Z" fill="#201F1D"/>
<path d="M147.214 207.128C132.262 209.317 117.208 209.705 102.358 211.812C99.6001 210.625 75.7418 217.517 80.8485 210.38C88.6106 168.639 95.8416 126.899 107.812 86.5898C122.274 50.33 138.86 135.815 142.353 147.575C145.825 161.195 147.97 174.713 150.033 188.784C149.89 195.267 156.794 209.357 147.235 207.108" fill="#433838"/>
<path d="M105.544 252.795C106.055 247.356 124.255 83.2153 114.613 121.602C109.078 149.375 107.444 178.456 104.257 206.637C106.034 213.795 97.7002 256.211 105.544 252.816" fill="#201F1D"/>
<path d="M134.427 160.459C128.565 166.226 122.13 172.525 114.613 176.084C112.285 177.863 107.342 178.354 107.852 182.198C107.811 193.856 145.927 157.637 134.427 160.459Z" fill="#201F1D"/>
<path d="M106.872 194.919C102.521 207.66 125.909 195.267 128.769 189.99C132.242 188.252 132.466 180.869 129.566 184.448C129.77 184.162 128.075 185.45 128.218 185.348C123.765 192.669 114.695 194.674 106.892 194.919" fill="#201F1D"/>
</g>
<defs>
<clipPath id="clip0_26_41">
<rect width="249" height="253" fill="white"/>
</clipPath>
</defs>
</svg>
