<svg width="295" height="295" viewBox="0 0 295 295" fill="none" xmlns="http://www.w3.org/2000/svg">
<g clip-path="url(#clip0_26_42)">
<path d="M295 148.27C282.565 121.2 273.896 95.1652 260.253 68.9617C251.005 46.2712 241.201 19.9474 224.951 0.12029C219.324 -1.92498 214.06 20.8858 212.901 24.8079C209.424 39.7985 205.199 55.0538 203.074 70.2369C194.598 104.886 189.721 139.415 180.762 174.113C204.257 168.121 229.176 167.496 252.985 162.779C267.449 159.772 280.705 150.484 295.024 148.246" fill="#812B0E"/>
<path d="M233.812 208.305C221.135 158.713 232.943 104.766 225.94 55.102C231.398 54.6689 230.335 59.8181 230.383 63.6921C238.038 96.0314 237.627 129.526 237.507 162.491C236.275 168.723 246.513 216.63 233.812 208.305Z" fill="#201F1D"/>
<path d="M254.844 90.064C248.035 93.6492 244.847 99.9294 239.946 105.56C238.497 108.159 237.072 114.006 234.15 114.439C230.915 114.944 227.051 111.575 228.935 108.375C231.494 110.3 253.854 72.8356 254.844 90.064Z" fill="#201F1D"/>
<path d="M258.611 112.369C250.908 121.946 243.833 134.482 232.339 139.126C220.676 135.276 241.322 124.978 244.944 119.925C248.59 117.759 256.003 102.143 258.611 112.369Z" fill="#201F1D"/>
<path d="M213.143 121.272C217.924 132.606 227.703 139.728 236.975 146.61C236.154 167.038 194.429 113.645 213.143 121.272Z" fill="#201F1D"/>
<path d="M212.177 241.414C204.305 206.259 200.635 173.198 191.145 138.79C185.929 109.578 181.004 75.9156 166.805 48.4608C160.672 44.6831 148.744 70.5979 146.377 74.9771C138.505 91.989 129.668 109.145 123.317 126.71C104.579 165.931 90.1396 205.85 70.8223 244.999C100.04 243.459 129.619 248.633 158.885 248.705C176.73 248.56 194.695 240.668 212.153 241.438" fill="#812B0E"/>
<path d="M122.375 293.219C119.912 232.439 147.101 172.284 151.279 112.73C157.75 113.5 155.239 119.275 154.345 123.799C155.239 163.285 146.425 202.265 138.095 240.668C135.101 247.622 135.149 305.9 122.399 293.243" fill="#201F1D"/>
<path d="M176.295 160.253C167.457 162.827 162.169 169.42 155.07 174.834C152.728 177.529 149.613 184.002 146.088 183.858C142.176 183.689 138.506 178.853 141.524 175.58C144.011 178.42 179.434 139.944 176.295 160.277" fill="#201F1D"/>
<path d="M175.136 187.154C163.787 196.538 152.414 209.484 137.853 212.227C125.225 205.032 151.858 197.814 157.316 192.785C162.121 191.1 174.629 174.618 175.112 187.154" fill="#201F1D"/>
<path d="M119.912 186.914C122.665 201.254 132.299 211.818 141.403 222.02C135.366 245.649 99.9912 173.655 119.912 186.914Z" fill="#201F1D"/>
<path d="M13.5945 209.893C36.7029 207.583 59.3283 203.107 82.2677 200.725C85.9863 198.391 124.017 198.776 113.9 191.918C87.7248 144.444 62.2984 96.8014 30.3523 52.4311C-3.96011 13.7635 1.18313 121.681 0.0723866 136.937C-0.362254 154.406 1.15899 171.297 3.01828 188.863C5.50539 196.586 0.0965332 215.764 13.6187 209.893" fill="#433838"/>
<path d="M69.3491 234.075C67.5381 228.132 9.97238 49.4955 29.6278 90.0881C42.1841 119.781 50.563 151.783 60.5114 182.438C60.0767 190.787 79.1285 236.168 69.3491 234.075Z" fill="#201F1D"/>
<path d="M15.5507 137.611C23.5674 142.76 32.3568 148.366 41.8223 150.7C44.8889 152.168 50.6841 151.639 50.9497 156.042C53.6059 169.011 1.71465 136.961 15.5507 137.611Z" fill="#201F1D"/>
<path d="M54.9095 169.974C62.7572 183.208 33.1051 174.473 28.6379 169.228C24.2674 168.049 22.3598 159.892 26.4889 163.237C26.1991 162.948 28.4206 164.031 28.2516 163.934C34.9885 171.105 45.8545 171.369 54.9095 169.95" fill="#201F1D"/>
</g>
<defs>
<clipPath id="clip0_26_42">
<rect width="295" height="295" fill="white"/>
</clipPath>
</defs>
</svg>
