<svg width="34" height="23" viewBox="0 0 34 23" fill="currentColor" xmlns="http://www.w3.org/2000/svg">
<path d="M3.18,22.32c-.04.08-.2.03-.13,0,.02,0,.1,0,.13,0ZM3.32,22.11c-.25.05-.12.03,0,0-.14-.02-.46.34,0,0ZM9.37,16.32c1.74.3,3.49.35,5.02.27.16-.06.06.18-.22.17.25.22.36.11.62-.09-.33.44.14.25.14-.05.17.02.31.2.21.02,1.33.47,3.31.36,5.35.17,3.46-.08,3.34.54,8.52.14.96.25-.42.42.88.32.33.35.56.15,1.24-.04-.22-1.02.61.86.41,1.31.39.25.18,1.03.45,1.05.64,1.77-.32,1.73-3.61,1.85.58.18-.49.13-1.11.37.18.22.12-.06.45,0-.32.14-.43.22.01.06,1.85.13-3.15.31-3.27.23.04-.21-.42.09.16.05-.35.18-1.02-.15-.85,0-.27-.18-.61.22-.81-.21.37-.11.51.05.36-.2-1.26-.19-2.69.24-4.09-.19-.89.47-.77.11-1.1,0-1.64.17-2.2.34-4.57,0-.95.32-1.28-.15-1.86.17.08-.58-.68-.59-.73-.38.39.05.17,0,.46.09-.48.31-1.23-.03-1.55.23-.81-.31-1.27.22-.81.21-1.71.64-4.25-.21-5.12.19-.14.15-.47-.34-.85-.17-.14,0-1.94.08-1.15-.31-.74-.04-.57-.87-.48-1.08-.27.21-.4-.7-.1-.64-.61-.44-.27-.2,0-.59-1.32.11.53-.22-.19-.41.67-.62-.59.48-.35,0-.3-.24.02-.04.38-.2.22-.18-.89-.07-.2-.39,1.13-2.19,4.29-1.77,8.37-1.97ZM22.89,22.09c.13.28-.08-.14-.16.07-.04-.1.08-.11.16-.07ZM24.73,22.08s-.07.08-.06.08c.03.03.1-.04.06-.08ZM25.97,22.07s.1.06.08.08c-.37.07-.43-.15-.08-.08ZM5.19,22.02s.07.18-.05.13c-.08-.04-.02-.19.05-.13ZM24.09,22.11s-.12,0-.13.03c-.01.04.12.03.13-.03ZM4.35,22.11c.07.06-.15.05-.08,0,0,0,.08,0,.08,0ZM25.11,22.03c.11.08-.01,0,0,.09.23.03.21-.11,0-.09ZM25.01,22s-.09.11-.02.11c.03,0,.08-.1.02-.11ZM3.56,22.05s-.08.08-.13.04c0-.04.13-.04.13-.04ZM4.98,22.08s-.1.01-.13.02c0-.05.09-.03.13-.02ZM21.87,22.03c.07,0,0,.1-.04.06-.01-.01.03-.06.04-.06ZM21.49,22.03c-.24-.22.22-.08.35-.11-.25.23-.17.15-.35.11ZM22.59,21.94c.18.18.14,0-.1.08-.17.26-.35-.21.1-.08ZM22.13,22.02s.12.04.16.03c-.05.08-.25.01-.16-.03ZM24.95,22.02s-.43-.05-.4.05c.03-.01.5.03.4-.05ZM23.76,21.99s-.33,0-.22.06c.04.02.32,0,.22-.06ZM7.03,22.03s-.29-.03-.31.02c.05-.02.31.01.31-.02ZM8.39,21.93c-.07-.12-.2.13-.09.1,0,0,.1-.1.09-.1ZM10.14,21.84c.05.11.03-.04.2.11-.17.15-.55-.18-.2-.11ZM5.93,22.02s-.02-.04-.01-.04c0,0,0,.02.01.04ZM25.37,21.98s-.12.01-.13.03c.01.07.35-.06.13-.03ZM7.78,21.96s-.11,0-.11.04c.05.04.14,0,.11-.04ZM6.22,22.01c.1-.07-.11-.06-.1-.01,0,.02.1.02.1.01ZM9.21,21.97c-.1-.17.21-.13.05,0,.09.09-.3,0-.05,0ZM9.41,21.9c.12.03.03.07-.08.09.03-.02.04-.1.08-.09ZM11.42,21.95c-.03.05-.11.03-.16.03.03-.05.11-.03.16-.03ZM24.78,21.78c-.08.34.68.06,1.23.07-.36-.14-.96-.03-1.23-.07ZM8.56,21.94c.08-.13-.03-.16-.07,0,.08.09.39-.05.07,0ZM16.74,21.89s-.19.07-.2.02c0-.08.16-.02.2-.02ZM22.8,21.9s-.12.03-.16.04c.03-.05.11-.04.16-.04ZM11.45,21.89s-.12.04-.14.03c-.02-.02.1-.05.14-.03ZM29.19,21.82c.26-.13.02.27.08.01-.01,0-.1.06-.08-.01ZM16.04,21.86c.09.08-.25.02-.09-.01.03,0,.08,0,.09.01ZM21.23,21.89c-.08-.07.24-.16.3-.12,0,.05-.29.12-.3.12ZM21.69,21.81s.1.04.08.07c-.03.04-.08-.06-.08-.07ZM19.46,21.85c.07-.02.15,0,.21,0-.03.03-.19.04-.21,0ZM29.95,21.82c.09.06-.2.06-.11,0,0,0,.11,0,.11,0ZM9.68,21.84c-.04.05-.15.02-.2,0,.04-.06.15-.01.2,0ZM27.23,21.82s-.12-.01-.13,0c0,.03.13.04.13,0ZM30.41,21.79c.41.02-.32.11-.41.05-.11-.06.39-.06.41-.05ZM24.33,21.73c-.11-.05-.18.23-.04.06.02,0,.29.09.04-.06ZM3.23,21.81c-.06,0-.17-.02-.13.04,0,0,.13,0,.13-.04ZM9.13,21.82s.14-.07.15.02c-.03,0-.14,0-.15-.02ZM14.08,21.8c.06,0,.11-.03.13.04-.04-.01-.14,0-.13-.04ZM30.96,21.72s-.14.14-.22.12c-.14-.04.21-.13.22-.12ZM19.68,21.8s.11,0,.16,0c0,.04-.14.04-.16,0ZM28.78,21.78s-.13.05-.14.04c-.07-.04.09-.06.14-.04ZM2.94,21.76s-.18.01-.16.04c.04.05.19-.02.16-.04ZM26.29,21.75c-.06-.01-.04.06-.04.06.05.02.11-.05.04-.06ZM10.59,21.73c.07.02,0,.09-.05.06,0,0-.01-.08.05-.06ZM16.87,21.73c.19.04.16-.04.32,0-.09.19-.5-.12-.32,0ZM28.49,21.59s.06.26-.06.17c0-.05-.08-.19.06-.17ZM3.08,21.74c.02.07.12,0,.18.02-.03-.07-.12-.02-.18-.02ZM13.51,21.68s.27,0,.31.06c-.05.07-.36,0-.31-.06ZM27.92,21.71c.07,0,.14,0,.21.02-.01.04-.2,0-.21-.02ZM12.41,21.71c.06.06-.16.04-.08,0,0,0,.08,0,.08,0ZM2.63,21.71c-.05-.07-.27,0-.21.04,0,0,.18-.04.21-.04ZM10.84,21.61c.52.18-.02.12-.23.08.04-.1.19.06.23-.08ZM27.05,21.67s.13.03.13.02c.02-.04-.1-.04-.13-.02ZM14.91,21.61s-.14.02-.14.05c.07.03.2,0,.14-.05ZM3.19,21.65c-.02-.07-.12-.01-.18-.02.02.05.14.03.18.02ZM15.15,21.61s-.1,0-.11.03c.04.02.17,0,.11-.03ZM9.74,21.6c.09-.06-.09-.08-.15-.03.03,0,.14.03.15.03ZM13.2,21.56c-.04-.06-.17,0-.14.03.02.02.18.03.14-.03ZM28.12,21.43c.05.04-1.41.06-.63.14.1-.08.6.15.63-.14ZM12.87,21.48s-.07.08-.06.08c.03.03.11-.03.06-.08ZM9.96,21.49s-.43-.05-.2.02c.01,0,.24.04.2-.02ZM9.47,21.49c0-.05-.13,0-.11.03.02.02.11,0,.11-.03ZM13.14,21.46s.14.06.15.06c.09-.07-.09-.06-.15-.06ZM14.25,21.46s.04.08.06.06c.04-.07.02-.08-.06-.06ZM28.25,21.45s-.13-.02-.11.03c.03.08.14,0,.11-.03ZM29.48,21.5s0-.12.06-.06c.02.02-.03.07-.06.06ZM12.6,21.48c-.03-.06-.13-.06-.11,0,0,0,.09.04.11,0ZM2.07,21.41s.09.1.1.04c0-.03-.08-.06-.1-.04ZM30.13,21.39c-.03.07-.05.08-.14.07.14-.03,0-.08.14-.07ZM12.29,21.39c-.07.03.1.09.13.04-.03,0-.1-.05-.13-.04ZM13.06,21.41s-.16-.03-.16,0c.04.03.24.05.16,0ZM11.66,21.15c.22.24.39.02.11.18.7.25.43-.15-.11-.18ZM9.95,21.34s-.17.02-.14.05c.02.02.19-.01.14-.05ZM30.45,21.33c.05,0,.13-.01.15.04-.04,0-.14,0-.15-.04ZM11.53,21.31s-.13.08-.16.03c-.04-.07.15-.03.16-.03ZM8.99,21.26s.04.11.07.07c.02-.03-.04-.09-.07-.07ZM9.21,21.32c.05-.03-.06-.15-.12-.06-.03.04.11.07.12.06ZM31.7,21.16c-.06.07-.23.1-.33.11-.01-.07.27-.07.33-.11ZM9.39,21.15c-.09-.13-.05.03.03.08.03-.06-.02-.06-.03-.08ZM9.08,21.05c-.17-.07-.42.14-.08.04-.03.14.08.02.08-.04ZM9.31,21.07c-.09-.1-.12.08-.05.08.03,0,.06-.07.05-.08ZM9.7,21.09s-.13-.05-.19.01c.07,0,.36.04.19-.01ZM32.58,20.37c.05.02-.09.13-.16.12-.14,0,.14-.12.16-.12ZM1.3,19.75c.05.12.28.14.09.05-.02-.02-.04-.09-.09-.05ZM1.18,19.39s-.04-.18.06-.06c0,.21-.64.06-.06.06ZM.71,18.63c.08.05-.11.1-.13.03,0-.01.12-.04.13-.03ZM1.08,18.64s-.1.05-.11.04c-.06-.03.07-.06.11-.04ZM.69,18.48c.06.03-.07.06-.11.04,0-.03.1-.05.11-.04ZM30.71,18.19s-.12,0-.14,0c-.07.04.12.07.14,0ZM30.88,17.98c-.13.05.04.38.17.09-.18.07-.13-.06-.17-.09ZM30.12,18.15s-.16-.02-.17.03c.04-.01.16.02.17-.03ZM.49,17.96c.13.16.37-.03.38.12-.04.07-.64.07-.38-.12ZM29.67,17.99c-.05-.07-.08.11-.01.11.02,0,.02-.1.01-.11ZM.93,17.9s-.3.09-.3.03c0-.05.26-.03.3-.03ZM30.75,17.69c-.18.37.15-.11.13.25.59-.35,0-.09-.13-.25ZM30.28,17.6c.1.15-.29.06-.34.06.09.14.47.39.32.08.17,0,.34-.27.02-.14ZM30.55,17.81s-.18.04-.16.07c.03.02.27-.03.16-.07ZM31.21,17.66s-.13,0-.14.06c.05,0,.13,0,.14-.06ZM29.09,17.67s-.15-.03-.15.02c.04,0,.15.03.15-.02ZM31.23,17.46c-.15-.21-.22.25-.22-.01-.45.17.17.17.22.01ZM30.69,17.52s-.15,0-.15.05c.07.06.19-.03.15-.05ZM30.98,17.52s-.06.06-.1.05c-.07-.03.09-.06.1-.05ZM1.59,17.46s-.13.04-.13.04c-.07-.03.09-.06.13-.04ZM29.85,17.32s-.48.06-.55.08c.09.01.62.05.55-.08ZM30.43,17.23c-.12.09-.4.11-.54.06.03-.06.47-.05.54-.06ZM29.05,17.26s-.18-.02-.18.02c.03.01.27.01.18-.02ZM30.75,17.2s.17,0,.17.04c-.07-.01-.22.1-.17-.04ZM17.17,17.26c.07-.05-.09-.11-.12-.07-.01.02.09.09.12.07ZM28.28,17.21s.22.05.23.04c.1-.07-.22-.06-.23-.04ZM1.6,17.03c.24.16.24-.08.35.15-.04.14-.84-.09-.35-.15ZM29.13,17.13c.02.15-.04-.02-.16.02-.18.24.45-.05.16-.02ZM18.19,17.18s-.11,0-.11.04c.04.02.16,0,.11-.04ZM21.58,17.16c-.09-.08-.08.07-.02.06.02,0,.02-.06.02-.06ZM29.85,17.21c.04-.12.27-.06.12,0-.01,0-.08-.04-.12,0ZM21.61,17.14c-.05.03.04.13.1.03-.03,0-.1-.03-.1-.03ZM21,17.15s-.17,0-.19.03c.06,0,.2.05.19-.03ZM16.06,17c-.09,0-.19.22-.08.19.01,0,.09-.16.08-.19ZM19.13,17.15s-.12-.03-.1,0c0,0,.11.03.1,0ZM21.9,17.05s-.06.1-.06.1c.04.05.1-.06.06-.1ZM25.29,17.12s-.24,0-.16.04c.01,0,.16,0,.16-.04ZM30.99,17.06c.08.06-.2.1-.22.09.02-.04.22-.09.22-.09ZM16.75,17.11c-.07-.09-.18-.08-.15.03.12,0-.01-.1.15-.03ZM22.93,17.06c0-.07-.18-.03-.11.03.02.01.11,0,.11-.03ZM30.79,17s0,.08-.03.09c-.02-.03,0-.13.03-.09ZM24.71,16.96c-.12.08.4.13.26.03,0,0-.25-.04-.26-.03ZM30.81,16.98c.02-.06.21-.04.17.01,0,0-.2.08-.17-.01ZM1.94,16.93s-.1.15-.14.05c-.03-.08.12-.06.14-.05ZM25.56,16.84c.11.27,1.16-.17,1.63.08-.35-.13-1.78.34-1.63-.08ZM25.31,16.99h-.04s.03-.01.04,0ZM29.65,16.91c-.04.06-.15.05-.22.07-.01-.07.17-.05.22-.07ZM28.16,16.97c-.06-.04.11-.09.16-.04.03.07-.14.05-.16.04ZM16.93,16.78c.04-.2.29-.03.2.08-.15-.13-.23-.12-.17.05.57,0-.15.06-.31-.08-.28.06.32-.14.28-.05ZM15.73,16.93c.06-.07-.21-.07-.24.02.03.01.23-.01.24-.02ZM17.38,16.71c-.03.06.51.11.58.02.37.17-1.12.18-.58-.02ZM19.66,16.82c.06.08-.25.03-.1-.02,0,0,.1.01.1.02ZM23.87,16.84s-.12,0-.16.01c0-.04.12,0,.16-.01ZM22.14,16.73c.01.08-.15.02-.21.03-.01-.08.15-.02.21-.03ZM20.86,16.71c.71-.07.55.11-.04.04,0-.05,0-.04.04-.04ZM21.77,16.72c-.03.05-.11.04-.16.04,0-.04.12-.03.16-.04ZM19.62,16.73c-.02-.08.2-.05.21-.03.06.07-.19.01-.21.03ZM23.15,16.65c-.03.05-.16.03-.21.03.04-.06.15-.03.21-.03ZM22.54,16.65c.08.06-.19.05-.1,0,0,0,.1,0,.1,0ZM6.91,16.47c-.03.07.23.09.16.03-.02-.01-.13-.03-.16-.03ZM8.11,16.49s-.11-.07-.11-.02c0,.02.1.02.11.02ZM1.53,16.42c.07.06-.15.05-.08,0,0,0,.08,0,.08,0ZM10,16.42s.15.07.17,0c-.03,0-.16-.03-.17,0ZM6.59,16.36c.05-.07.25.01.21.04,0,0-.23,0-.21-.04ZM25.41,14.13s.1.06.08.08c-.38.05-.42-.17-.08-.08ZM6.34,7.88c5.33.12,9.02.6,10.42.96,4.97-.23,8.12.1,13.66.78.65.09.43-.21.81-.4.1-.33.3.42-.25.41.74-.11.27,1.21.1,1.31.36.4.25.7.08,1.09.45.1,0,.44.07.69.7,1.34-3.43.69-3.97,1.05.1.17-.32-.05-.55.14.01.21.24.03.25-.03.3.23-.31.14.4.19.71.23-6.19,0-4.38-.14-.94-.71-2.81.12-4.18-.5-.9.44-.74.08-1.07-.04-.42.05.28.19-.47.17.52-.35-2.08-.07-1.07.16-.61.12-.14-.16-.45-.12.5-.38-.02-.05-.15-.15-.64.39-2.48-.35-3.35-.23-.41-.11-.32-.05-.71-.13-.11.13.91.12.15.16-.42.2-.33-.88-.69-.38-.49-.2-.1.02-.04.06.07,0,.09-.07.22.05-.05.31-.72-.14-.76.26-.21-.43-1,.24-1.1-.12-.88.07-.47-.06-.62.39.71-.19-.45.32-.69.02-1.83.58-3.26-.62-3.96.02-.5.04-.73-.33-1.43-.31-1.17.24-1.33-.58-1.25-1.16-.37.21,0-.04-.15-.44-.17-.19.06-.4-.23-.79.22-.02.63-.43-.11-.18-.24-.23.38-.07.39-.2-.08-.69.18-.36-.51-.16.03-.39-.08-.15.56-.39-1.19-.11.06-.27-.1-.39,0-.25.43-.39.98-1.05.35-.9,3.41-.39,4.14-.6ZM22.43,14.06c.12.27-.07-.12-.16.07-.03-.1.08-.11.16-.07ZM24.26,14.09s-.07.07-.06.08c.03.03.1-.03.06-.08ZM23.62,14.11s-.12-.01-.13.02c-.01.04.12.03.13-.02ZM24.63,14.05c.11.08-.01,0,0,.09.22.03.21-.1,0-.09ZM24.53,14.02s-.09.11-.02.11c.03,0,.08-.1.02-.11ZM30.23,13.99s-.13.13-.19.1c-.12-.05.19-.11.19-.1ZM28.61,13.99c.25-.13,0,.28.08.01,0-.01-.1.05-.08-.01ZM24.48,14.04s-.42-.06-.4.04c.04-.01.5.04.4-.04ZM29.38,14.05c-.05-.08.5-.06.5.02-.11,0-.4.03-.5-.02ZM29.33,14.03c.08.06-.19.05-.11,0,0,0,.1,0,.11,0ZM24.9,14s-.13.01-.13.02c0,.05.12.02.13-.02ZM22.14,13.9c.17.18.14,0-.1.08-.15.25-.36-.21.1-.08ZM21.44,13.98c.07,0,0,.1-.04.06-.01-.01.03-.06.04-.06ZM23.29,13.98s-.32-.02-.22.05c.03.02.31.01.22-.05ZM21.69,13.97s.12.04.15.03c-.05.07-.25,0-.15-.03ZM21.06,13.96c-.23-.22.22-.07.35-.1-.24.25-.18.15-.35.1ZM24.31,13.79c-.09.34.62.06,1.15.12-.32-.16-.9-.08-1.15-.12ZM28.22,13.94s-.12.04-.13.04c-.07-.04.09-.05.13-.04ZM26.55,13.93s.13.05.13,0c-.03,0-.12-.02-.13,0ZM27.94,13.73s.05.26-.07.17c0-.05-.07-.2.07-.17ZM22.35,13.87s-.12.03-.16.03c.03-.05.11-.04.16-.03ZM27.38,13.84c.07,0,.14.01.21.03-.01.04-.2,0-.21-.03ZM25.75,13.81c-.06-.02-.05.06-.04.06.05.02.11-.04.04-.06ZM23.87,13.74c-.11-.05-.18.22-.05.06.01,0,.29.1.05-.06ZM21.26,13.75s.09.04.07.07c-.03.04-.08-.06-.07-.07ZM20.81,13.82c-.07-.08.24-.16.3-.11,0,.05-.29.12-.3.11ZM26.51,13.77s.13.03.13.03c.02-.04-.1-.05-.13-.03ZM19.04,13.73c.07-.02.14,0,.21,0-.03.03-.18.03-.21,0ZM2.89,13.72s.1.01.13,0c-.04.08-.2.02-.13,0ZM16.41,13.69s-.18.07-.18.01c0-.08.15-.02.18-.01ZM27.58,13.57c.05.04-1.4,0-.63.12.1-.08.59.17.63-.12ZM19.26,13.69s.11,0,.16,0c0,.04-.14.03-.16,0ZM3.17,13.52c-.25.04-.12.02,0,0-.14-.03-.46.32,0,0ZM28.9,13.69s0-.12.06-.06c.02.02-.03.07-.06.06ZM15.77,13.65c.07.07-.19.04-.1,0,0,0,.09,0,.1,0ZM29.51,13.6c-.03.07-.05.07-.14.06.13-.02,0-.08.14-.06ZM27.71,13.6s-.12-.03-.11.03c.02.08.14,0,.11-.03ZM5.03,13.5s.06.18-.05.13c-.08-.04-.02-.19.05-.13ZM29.81,13.57s.12,0,.13.05c-.03,0-.13-.01-.13-.05ZM4.19,13.56c.06.06-.15.05-.08,0,0,0,.08,0,.08,0ZM8.3,13.49c-.09,0-.03.14.03.09,0,0-.02-.09-.03-.09ZM30.87,13.53c-.05.06-.19.07-.27.06,0-.08.22-.04.27-.06ZM8.24,13.49c-.07-.12-.21.12-.1.1.01,0,.1-.09.1-.1ZM16.53,13.53c.18.04.15-.03.31,0-.07.18-.5-.13-.31,0ZM6.85,13.56s-.29-.04-.31.01c.05-.02.31.02.31-.01ZM4.81,13.55s-.1,0-.13.01c0-.05.09-.03.13-.01ZM10.02,13.38c.03.13.04-.04.18.11-.16.15-.51-.17-.18-.11ZM9.12,13.52s-.07-.22.11-.08c.02.16-.33.11-.11.08ZM7.61,13.51s-.11,0-.11.04c.05.04.14,0,.11-.04ZM9.33,13.45c.14.04-.02.08-.08.09.04-.02.04-.1.08-.09ZM13.63,13.49c.06,0,.12-.02.12.05-.03-.01-.14,0-.12-.05ZM8.42,13.5c.09-.15-.03-.13-.08,0,.08.09.42-.05.08,0ZM5.76,13.53s-.02-.04,0-.05c0,0,0,.02,0,.05ZM6.04,13.52c.1-.07-.1-.06-.1-.02,0,.02.1.02.1.02ZM3.41,13.47s-.08.08-.13.04c0-.04.12-.04.13-.04ZM11.18,13.49c-.03.05-.1.03-.15.02.03-.05.1-.03.15-.02ZM11.21,13.43s-.11.04-.12.03c-.02-.02.09-.05.12-.03ZM14.73,13.4s-.1-.01-.12.02c.04.02.17.02.12-.02ZM14.48,13.38s-.14,0-.15.04c.07.04.2.01.15-.04ZM13.09,13.32s.25.03.3.08c-.06.06-.35-.03-.3-.08ZM9.59,13.38c-.04.05-.14.03-.19,0,.04-.06.14-.02.19,0ZM9.03,13.38s.15-.07.16.02c-.03,0-.15,0-.16-.02ZM10.43,13.27c.06.02,0,.09-.04.06,0,0-.01-.08.04-.06ZM12.07,13.28c.05.07-.14.03-.07-.01,0,0,.06,0,.07.01ZM10.69,13.17c.46.13-.07.1-.23.05.04-.04.2-.06.23-.05ZM3.09,13.21c-.05,0-.17-.03-.13.04,0,0,.13,0,.13-.04ZM13.83,13.17s.04.08.05.07c.04-.06.03-.08-.05-.07ZM12.81,13.18c-.03-.06-.16,0-.13.02.02.02.16.04.13-.02ZM2.81,13.15s-.18,0-.16.03c.04.05.18-.01.16-.03ZM2.95,13.14c.02.07.12.02.18.03-.03-.08-.12-.03-.18-.03ZM12.51,13.07s-.07.07-.07.08c.02.03.1-.02.07-.08ZM9.63,13.15c.09-.06-.09-.08-.14-.02.02,0,.14.03.14.02ZM12.76,13.08s.13.08.14.07c.09-.06-.08-.07-.14-.07ZM2.51,13.09c-.04-.08-.27-.02-.21.03,0,0,.18-.03.21-.03ZM9.33,13.03s-.08.04-.06.05c.04.04.17-.06.06-.05ZM9.84,13.04s-.41-.04-.19.03c.01,0,.23.04.19-.03ZM12.26,13.06c-.03-.06-.12-.06-.1,0,0,0,.08.05.1,0ZM3.06,13.06c-.02-.07-.12-.02-.18-.03.02.05.14.04.18.03ZM12.69,13.02s-.14-.04-.15,0c.04.03.22.06.15,0ZM31.56,12.98s-.07.08-.11.06c-.08-.05.1-.07.11-.06ZM11.99,12.96c-.07.02.09.09.11.04-.03,0-.09-.05-.11-.04ZM11.42,12.69c.19.25.32,0,.09.19.62.27.4-.14-.09-.19ZM9.83,12.88s-.16.02-.13.05c.02.02.18-.02.13-.05ZM11.3,12.85s-.12.08-.15.02c-.04-.07.14-.03.15-.02ZM8.87,12.82s.04.11.07.07c.02-.03-.04-.08-.07-.07ZM9.1,12.88c.05-.04-.07-.15-.12-.06-.03.04.11.07.12.06ZM1.96,12.77s.08.1.1.05c0-.03-.08-.06-.1-.05ZM9.29,12.71c-.1-.13-.05.03.04.08.03-.06-.02-.05-.04-.08ZM8.97,12.61c-.18-.07-.43.15-.08.04-.03.14.09.02.08-.04ZM9.21,12.62c-.1-.1-.12.08-.05.08.03,0,.06-.07.05-.08ZM9.56,12.63c-.27-.01-.02.06.1.05.01-.04-.07-.02-.1-.05ZM1.27,11.08c.06.13.27.15.09.05-.02-.02-.04-.09-.09-.05ZM1.17,10.72s-.03-.18.06-.06c0,.21-.64.03-.06.06ZM30.15,10.45c-.07.03.12.09.15,0-.04,0-.13-.01-.15,0ZM30.51,10.27c-.16.06.02.36.18.11-.21.05-.14-.07-.18-.11ZM29.68,10.37s-.16-.03-.18.02c.04,0,.17.03.18-.02ZM29.23,10.18c-.04-.07-.09.1-.02.11.02,0,.02-.1.02-.11ZM30.4,9.96c-.25.2.11.19.53.14-.14-.09-.55-.05-.53-.14ZM29.9,9.83c-.02.18-.76-.05-.01.25-.4.22.63-.39.01-.25ZM30.17,10.06s-.2.03-.18.06c.03.02.29-.01.18-.06ZM30.99,10c-.07,0-.17-.03-.21.04.07,0,.17.03.21-.04ZM.74,9.94c.07.05-.11.1-.13.02,0-.01.12-.03.13-.02ZM1.11,9.96s-.1.04-.11.04c-.06-.03.07-.06.11-.04ZM31.1,9.81c-.34-.11-.27.01-.56-.03-.03.27.49.05.56.03ZM30.72,9.82c.05.04-.09.06-.13.04-.08-.04.12-.05.13-.04ZM28.66,9.84s-.15-.03-.15.01c.04,0,.15.03.15-.01ZM30.36,9.79s-.17-.01-.18.04c.07.06.22-.01.18-.04ZM.73,9.78c.06.03-.07.06-.11.04,0-.03.1-.04.11-.04ZM29.45,9.52s-.5.03-.57.05c.09.01.63.08.57-.05ZM30.09,9.48c-.14.07-.45.08-.59.02.03-.05.51-.02.59-.02ZM30.48,9.47s.23.01.22.07c-.1-.02-.31.07-.22-.07ZM.57,9.26c.11.17.35-.01.35.14-.04.07-.62.05-.35-.14ZM28.64,9.43s-.18-.02-.18.01c.02.01.27.02.18-.01ZM30.84,9.37c.09.07-.31.07-.33.06.03-.04.32-.07.33-.06ZM29.46,9.42c.05-.12.29-.04.13.02-.02,0-.08-.04-.13-.02ZM28.72,9.3c.02.15-.04-.02-.16.01-.19.23.45-.03.16-.01ZM27.87,9.35s.22.06.23.05c.1-.06-.21-.07-.23-.05ZM30.57,9.28s-.01.08-.05.08c-.02-.03.02-.13.05-.08ZM30.59,9.27c.04-.06.33-.01.25.04-.01,0-.31.05-.25-.04ZM.99,9.22s-.3.07-.29.01c0-.05.25-.01.29-.01ZM24.9,9.14s-.23-.01-.16.03c.01,0,.15,0,.16-.03ZM21.27,9.1c-.09-.08-.08.06-.02.06.02,0,.02-.06.02-.06ZM29.27,9.11c-.04.06-.16.04-.23.06,0-.07.18-.04.23-.06ZM21.3,9.08c-.05.02.04.13.1.03-.03,0-.09-.03-.1-.03ZM20.69,9.08s-.16-.01-.18.03c.05,0,.2.05.18-.03ZM27.76,9.11c-.05-.04.11-.08.16-.04.02.07-.15.04-.16.04ZM21.59,8.99s-.07.1-.06.1c.04.05.1-.06.06-.1ZM22.6,9.04c0-.07-.18-.03-.11.02.02.01.1,0,.11-.02ZM24.34,8.97c-.12.08.39.14.25.04,0,0-.24-.05-.25-.04ZM16.94,9.06c.07-.05-.09-.12-.12-.08-.02.02.09.1.12.08ZM17.96,9.02s-.11,0-.11.03c.04.02.16,0,.11-.03ZM25.26,8.88c.08.27,1.12-.12,1.56.14-.33-.14-1.73.26-1.56-.14ZM18.9,9.02s-.12-.03-.1,0c0,0,.1.04.1,0ZM15.77,8.79c-.09,0-.19.22-.08.19.01,0,.09-.16.08-.19ZM16.51,8.91c-.07-.09-.19-.08-.16.03.13,0-.01-.1.16-.03ZM23.53,8.83s-.12,0-.16,0c0-.04.12,0,.16,0ZM1.65,8.8s-.12.04-.13.04c-.07-.04.09-.05.13-.04ZM16.7,8.58c.04-.2.3-.02.2.09-.15-.13-.23-.13-.18.05.59,0-.15.06-.32-.09-.3.06.34-.16.3-.05ZM19.43,8.71c.06.08-.25.02-.1-.02,0,0,.1.02.1.02ZM15.43,8.72c.06-.07-.22-.07-.25.02.04.01.24-.01.25-.02ZM21.83,8.69c.01.08-.15.02-.21.03-.01-.08.15-.02.21-.03ZM17.17,8.53c-.03.05.52.13.58.04.37.18-1.13.15-.58-.04ZM21.47,8.66c-.03.05-.1.04-.16.03.01-.04.12-.02.16-.03ZM20.57,8.64c.71-.05.55.12-.04.04,0-.05,0-.04.04-.04ZM22.82,8.63c-.03.05-.15.03-.21.03.04-.06.14-.03.21-.03ZM22.23,8.61c.08.06-.19.04-.1,0,0,0,.09,0,.1,0ZM19.39,8.62c-.01-.08.19-.04.21-.02.06.07-.19,0-.21.02ZM1.68,8.37c.23.17.24-.07.34.16-.04.14-.81-.12-.34-.16ZM15.15,8.53s-.06.03-.06,0c0,0,.06,0,.06,0ZM15.28,8.54s0,0,0,0c0,0,0-.01,0,0ZM1.88,8.33c-.02-.08.12-.06.13-.04,0,0-.1.15-.13.04ZM6.88,8c-.03.07.22.09.16.03-.02-.01-.12-.03-.16-.03ZM8.03,8.05s-.1-.07-.1-.02c0,.02.09.02.1.02ZM9.8,7.96s.15.06.17,0c-.03,0-.17-.02-.17,0ZM6.58,7.89c.04-.07.24.02.2.04-.01,0-.22,0-.2-.04ZM1.64,7.77c.06.06-.15.05-.08,0,0,0,.07,0,.08,0ZM2.47,5.98s.11.01.14,0c-.04.08-.22.02-.14,0ZM2.78,5.79c-.27.04-.14.02,0,0-.12-.03-.51.31,0,0ZM9.06.06c1.77.24,3.58.18,5.14.04.09-.09.09.2-.22.18.27.2.38.1.64-.11-.2.31-.02.4.11.02.09-.18.35.17.25-.06.48.15.21.12.85.05-.84.07.38.35.04.19.29-.31.17-.08.46.06-.02-.46-.05.08.66.03,2.13-.33,2.01.07,3.33-.2,3.99-.07,3.61.43,9.28.29.31-.02.72.39.51.33-1.39-.14,2.11.44.62.33.55.04,1.81.42,1.67.13.57.09.26-.24.88-.09-.27.21-.08.39-.74.29.9.23.19.36.23.76-.14.15-.09.21-.25.49-.31-.17-.25.35-.13.53-.38.58-.43,1.1-.62,1.65-.97.54-2.82-.26-3.66.19.1.17-.33-.05-.55.15.01.21.25.03.26-.03.15.38-.3.07.58.18.32-.06-1.72.29-2.48-.01-.08.28-1.62.28-1.85.1-.1.14-1.18-.04-.68-.1.11-.32.4.13.15-.23-1.01-.14-5.59.06-4.79-.15-2.42-.17-2.36.49-4.77.05-.85.09-.81.23-1.83.13-.48-.06-.36.06.15.04.09.07-.37.1-.32.02-.51.33-.26-.33-.49-.37-.29-.08-.85.12-.5.07,1.22.31-1.72.38-2.05.37-.58.68-.43.4-2.94.54-1.38.16.2-.24-.62-.08-.43-.2-2.19-.23-1.62.03-.36.13-.67-.22-.88-.29-.53-.06-1.54.26-1.8-.33.57.06-.3-.23-.32-.34.08-.23.27-.74-.02-.39.14-.33-.32-1,.12-1.04-.65-.56-.24-.21.05-.59-.99-.06-.24,0-.2-.15.36-.08-.19-.36.38-.44-.53-.08-.41.31-.78.27.09-.32-.25-.21.48-.29.16-.13-.12-.1-.4-.16-.1-.32.69-.17.58-.43C.89.05,6.2.19,9.06.06ZM4.8,5.76s.07.18-.05.13c-.09-.04-.02-.19.05-.13ZM3.88,5.83c.07.06-.16.05-.08,0,0,0,.08,0,.08,0ZM4.57,5.82s-.1,0-.14.01c.01-.05.1-.03.14-.01ZM6.71,5.78s-.31-.03-.32.02c.05-.02.32.01.32-.02ZM3.04,5.74s-.09.08-.15.03c0-.04.13-.04.15-.03ZM8.22,5.69c-.09,0-.03.14.03.09,0,0-.03-.08-.03-.09ZM8.15,5.68c-.07-.12-.22.13-.1.1.01,0,.1-.09.1-.1ZM7.5,5.72s-.12,0-.11.04c.05.04.15,0,.11-.04ZM5.59,5.77s-.02-.04-.01-.04c0,0,0,.02.01.04ZM5.88,5.76c.1-.07-.11-.06-.11-.01,0,.02.1.02.11.01ZM9.07,5.71c-.11-.16.22-.15.05,0,.09.09-.3,0-.05,0ZM10.06,5.55c.05.12.04-.04.21.11-.17.16-.59-.16-.21-.11ZM9.28,5.63c.13.03.03.07-.08.09.04-.02.04-.1.08-.09ZM8.36,5.66c.08-.18-.08-.02-.1.04.16.05.37.01.1-.04ZM23.09,5.53c.14.28-.09-.14-.17.07-.04-.1.08-.11.17-.07ZM30.73,5.57s-.13.11-.17.07c-.08-.07.16-.08.17-.07ZM11.4,5.6c-.03.05-.11.04-.17.03.03-.05.11-.04.17-.03ZM26.22,5.54s.11.06.09.08c-.39.06-.45-.16-.09-.08ZM25.01,5.52s-.07.08-.06.08c.03.03.11-.04.06-.08ZM24.34,5.56s-.13,0-.14.03c-.01.04.12.03.14-.03ZM30.03,5.52c-.03-.09.43,0,.41.08-.09-.02-.33-.02-.41-.08ZM9.58,5.56c-.04.05-.16.03-.22,0,.04-.06.16-.02.22,0ZM8.98,5.56s.15-.08.16.02c-.03,0-.16,0-.16-.02ZM11.43,5.53s-.12.05-.14.04c-.02-.02.1-.05.14-.04ZM25.4,5.48c.12.08-.01,0,0,.09.24.03.21-.11,0-.09ZM25.29,5.45s-.1.11-.02.11c.03,0,.09-.1.02-.11ZM22.04,5.47c.07,0,0,.1-.05.06-.01-.01.03-.06.05-.06ZM22.78,5.38c.19.18.15,0-.1.08-.18.26-.36-.21.1-.08ZM29.99,5.49c.06.07-.17.03-.09-.01,0,0,.08.01.09.01ZM21.64,5.46c-.25-.22.23-.08.37-.1-.27.23-.19.14-.37.1ZM22.3,5.46s.12.04.16.03c-.05.07-.26.01-.16-.03ZM25.24,5.47s-.44-.06-.42.05c.04-.01.52.03.42-.05ZM2.7,5.48c-.06,0-.18-.03-.14.03,0,0,.14,0,.14-.03ZM29.4,5.39c.09-.06.09.1.08.1-.06.04-.1-.09-.08-.1ZM23.99,5.44s-.34,0-.23.05c.04.02.33,0,.23-.05ZM10.53,5.42c.07.02,0,.09-.05.06,0,0-.02-.08.05-.06ZM25.68,5.42s-.14.01-.14.03c0,.05.13.02.14-.03ZM2.39,5.42s-.19,0-.17.03c.04.05.2,0,.17-.03ZM2.54,5.4c.02.07.13.02.19.03-.03-.08-.13-.03-.19-.03ZM28.75,5.36s-.08.05-.11.08c0-.06.03-.1.11-.08ZM25.06,5.22c-.08.34.66.05,1.21.09-.34-.15-.94-.06-1.21-.09ZM10.79,5.28c.56.16-.03.12-.24.09.03-.1.2.05.24-.09ZM23,5.35s-.13.03-.17.03c.03-.05.11-.04.17-.03ZM2.06,5.35c-.05-.08-.28-.03-.23.03.01,0,.2-.03.23-.03ZM29.03,5.34s-.12.04-.13.03c-.06-.04.08-.05.13-.03ZM16.81,5.31s-.18.08-.19.02c-.01-.08.16-.03.19-.02ZM27.39,5.32s.13.05.13,0c-.03,0-.13-.02-.13,0ZM14.13,5.32c.06,0,.11-.03.13.03-.04,0-.14.01-.13-.03ZM12.41,5.31c.07.06-.16.05-.08,0,0,0,.08,0,.08,0ZM16.13,5.29c.08.06-.2.05-.11,0,0,0,.1,0,.11,0ZM2.66,5.33c-.02-.07-.13-.02-.19-.03.02.05.15.04.19.03ZM9.62,5.32c.09-.06-.1-.08-.16-.02.03,0,.15.02.16.02ZM21.37,5.32c-.08-.07.25-.16.31-.11,0,.05-.3.12-.31.11ZM21.85,5.24s.1.04.08.07c-.03.04-.08-.06-.08-.07ZM28.77,5.12s.04.26-.07.17c0-.04-.07-.2.07-.17ZM13.54,5.22s.27,0,.32.04c-.05.07-.37.02-.32-.04ZM24.6,5.18c-.12-.05-.19.23-.05.06.01,0,.3.09.05-.06ZM19.56,5.26c.07-.02.15,0,.22,0-.03.03-.19.04-.22,0ZM26.56,5.22c-.06-.01-.05.06-.04.06.05.02.12-.05.04-.06ZM31.1,5.25c.02-.08.18,0,.22,0-.06.05-.16.02-.22,0ZM28.22,5.22c.07,0,.14.01.21.03-.01.04-.2,0-.21-.03ZM9.33,5.22c0-.05-.14.01-.11.04.02.02.12,0,.11-.04ZM9.85,5.21s-.46-.03-.21.03c.01,0,.26.03.21-.03ZM19.78,5.21s.11,0,.16,0c-.01.04-.15.04-.16,0ZM27.35,5.16s.13.03.13.03c.02-.04-.1-.05-.13-.03ZM16.94,5.15c.19.03.16-.04.32,0-.09.19-.5-.12-.32,0ZM13.22,5.12c-.05-.05-.17.01-.14.03.02.01.19.02.14-.03ZM30.45,5.1s.1.01.1.06c-.03-.01-.11-.03-.1-.06ZM14.97,5.09s-.14.03-.14.06c.07.03.2-.01.14-.06ZM30.2,5.09c-.03.06-.05.07-.12.04.11,0,.02-.07.12-.04ZM12.87,5.05s-.06.08-.06.08c.03.03.11-.03.06-.08ZM15.22,5.09s-.1,0-.11.04c.04.02.17,0,.11-.04ZM29.65,5.12s.01-.12.05-.06c.01.02-.03.07-.05.06ZM9.84,5.06c-.05-.03-.18.03-.14.06.02.02.2-.02.14-.06ZM28.43,4.95c.08.03-1.42.02-.63.12.1-.08.59.17.63-.12ZM1.48,5.02s.09.1.11.05c0-.03-.08-.06-.11-.05ZM12.59,5.07c-.04-.05-.14-.05-.11,0,0,0,.09.04.11,0ZM8.81,5s.05.11.08.07c.02-.03-.05-.08-.08-.07ZM13.14,5.03s.15.06.16.05c.09-.07-.09-.06-.16-.05ZM9.05,5.06c.05-.04-.07-.15-.13-.06-.03.04.12.07.13.06ZM12.27,5c-.07.03.11.08.13.03-.03,0-.11-.04-.13-.03ZM28.55,4.98s-.12-.03-.11.03c.02.08.14,0,.11-.03ZM11.61,4.79c.22.23.4,0,.12.18.73.22.44-.17-.12-.18ZM14.28,4.97s.05.07.06.06c.03-.07.01-.08-.06-.06ZM13.07,4.98s-.16-.02-.16.01c.04.03.25.04.16-.01ZM11.48,4.95s-.13.09-.17.03c-.04-.07.16-.04.17-.03ZM9.24,4.89c-.1-.13-.05.03.04.08.03-.06-.02-.05-.04-.08ZM31.89,4.93c-.04-.07.09-.04.09-.03,0,.04-.07.06-.09.03ZM8.91,4.79c-.19-.07-.45.15-.09.04-.03.14.09.02.09-.04ZM9.15,4.8c-.1-.1-.12.08-.05.08.03,0,.06-.07.05-.08ZM9.57,4.82s-.13-.04-.2.02c.08,0,.38.03.2-.02ZM.8,3.31c.06.13.28.15.09.06-.02-.02-.03-.09-.09-.06ZM.71,2.94s-.02-.18.06-.06c0,.21-.68.01-.06.06ZM31.79,2c-.22.04-.03.34.18.16-.26-.01-.14-.11-.18-.16ZM.66,2.18s-.11.04-.11.03c-.06-.04.08-.05.11-.03ZM.28,2.15c.08.05-.12.1-.15.02,0-.01.13-.03.15-.02ZM31.33,2.09c-.09.02.12.11.17.04-.04,0-.15-.04-.17-.04ZM.26,2c.06.04-.08.05-.12.03,0-.03.11-.04.12-.03ZM31.74,1.67c-.37.14.11.2.6.3-.14-.14-.61-.2-.6-.3ZM30.82,1.92s-.18-.06-.21-.01c.05,0,.18.06.21.01ZM32.44,1.89c-.08-.02-.2-.09-.26-.04.08.02.2.08.26.04ZM31.95,1.52c-.07.27.59.19.69.23-.39-.24-.36-.09-.69-.23ZM30.32,1.66c-.04-.07-.11.09-.04.1.02,0,.04-.1.04-.1ZM31.43,1.71s-.24-.02-.23.02c.03.03.34.05.23-.02ZM30.87,1.47c-.32-.09-.04.04.22.2-.51-.1.31.26,0-.11.58-.02.1-.18-.22-.08ZM.08,1.47c.14.17.4,0,.4.15-.04.07-.72.03-.4-.15ZM31.98,1.62c-.09-.06.16,0,.17,0,.05.06-.13.02-.17,0ZM31.72,1.49s-.2-.06-.23,0c.08.08.27.04.23,0ZM.56,1.44s-.32.06-.32,0c.01-.05.27,0,.32,0ZM31.95,1.22c.07-.01.29.08.26.13-.12-.05-.4-.03-.26-.13ZM29.57,1.25c-.19,0,.11.07.12.01-.03,0-.07,0-.12-.01ZM31.99,1.18s.43.04.44.06c.1.1-.42-.04-.44-.06ZM32.14,1.05c.06-.05.43.1.32.12-.02,0-.41-.06-.32-.12ZM30.74,1.03c.05-.05.63.07.73.09-.19.04-.57-.01-.73-.09ZM32.01,1.12s.06-.12.09-.06c.01.03-.03.08-.09.06ZM29.97,1.02c.1.01.73.16.7.02-.03-.02-.61-.04-.7-.02ZM1.27,1.05s-.13.03-.14.03c-.07-.04.09-.05.14-.03ZM29.66.96c-.2.02.18.1.13.03,0,0-.11-.03-.13-.03ZM30.69.93c.08-.11.36,0,.15.04-.02,0-.09-.06-.15-.04ZM29.59.84c-.32-.02.18.08.1.01,0,0-.05,0-.1-.01ZM1.3.61c.23.18.25-.06.34.17-.04.14-.83-.15-.34-.17ZM29.8.73c.01.17-.05-.03-.21,0-.21.21.55,0,.21,0ZM28.79.74s.25.06.26.06c.12-.06-.24-.08-.26-.06ZM17.18.67c.08-.05-.1-.11-.13-.07-.01.02.1.09.13.07ZM21.78.59c-.09-.08-.09.07-.02.06.02,0,.02-.06.02-.06ZM21.81.57c-.06.03.04.13.11.03-.03,0-.1-.03-.11-.03ZM15.96.44c-.09.01-.18.22-.07.19.01,0,.08-.16.07-.19ZM18.26.59s-.11,0-.11.04c.04.02.17,0,.11-.04ZM30.5.6c-.06.05-.21.02-.3.03,0-.08.23-.02.3-.03ZM21.19.58s-.17,0-.19.03c.06,0,.21.05.19-.03ZM1.51.58c-.02-.08.12-.06.14-.04,0,0-.11.14-.14.04ZM25.57.56s-.24,0-.17.04c.01,0,.16,0,.17-.04ZM22.12.48s-.07.1-.06.1c.04.05.1-.06.06-.1ZM19.25.55s-.13-.03-.11,0c0,0,.11.03.11,0ZM16.72.53c-.07-.08-.2-.08-.17.03.14,0-.02-.1.17-.03ZM23.17.51c0-.07-.19-.03-.11.03.02.01.11,0,.11-.03ZM28.67.49c-.06-.04.13-.08.18-.03.03.07-.17.04-.18.03ZM24.99.41c-.13.08.41.13.27.03,0,0-.26-.04-.27-.03ZM25.95.3c.11.27,1.19-.15,1.67.12-.37-.14-1.82.3-1.67-.12ZM15.61.38c.05-.08-.23-.06-.25.03.04.01.24-.02.25-.03ZM16.91.2c.04-.2.32-.03.21.08-.16-.12-.25-.12-.18.05.62-.02-.15.07-.34-.07-.3.08.34-.18.31-.06ZM24.13.29s-.12,0-.16.01c0-.04.12,0,.16-.01ZM17.4.12c-.03.06.54.11.62.02.39.16-1.19.19-.62-.02ZM6.64.22c-.03.07.23.09.16.03-.02-.01-.13-.03-.16-.03ZM19.8.23c.07.08-.26.03-.11-.02,0,0,.11.01.11.02ZM7.85.25s-.11-.07-.11-.01c0,.02.1.02.11.01ZM22.36.17c.01.08-.16.02-.22.03-.01-.08.16-.02.22-.03ZM21.05.14c.73-.06.57.12-.04.04,0-.05,0-.04.04-.04ZM21.98.15c-.03.05-.11.04-.17.03.01-.04.13-.02.17-.03ZM9.69.14s.15.06.17,0c-.03,0-.16-.02-.17,0ZM6.31.11c.04-.07.26.01.22.04,0,0-.24,0-.22-.04ZM19.76.14c-.01-.08.2-.05.22-.03.07.07-.2.01-.22.03ZM23.39.1c-.03.05-.16.03-.22.03.04-.06.15-.03.22-.03ZM22.77.09c.08.06-.2.05-.11,0,0,0,.1,0,.11,0ZM1.28,0c.06.06-.16.04-.08,0,0,0,.08,0,.08,0Z" fill="currentColor"/>
</svg>
