<svg xmlns="http://www.w3.org/2000/svg" width="53" height="33" fill="currentColor" viewBox="0 0 53 33">
  <path d="M3.609 3.924c-.1-.1-.198-.198-.1-.299.307-.317 1.095-.4 7.136-.55 5.644-.14 16.53-.05 22.334-.001 7.996.068 11.399.448 13.893.6 1.002.148 2.102.25 3.003.349.208.099-.089.296-.394.5M3 15.003c.198 0 5.445 0 13.388.05 4.003.024 5.794.448 8.586.799 1.891.05 3.208.15 7.12.3 3.616.05 10.542.05 17.378-.25M6.206 28.29c-.123.122-.359.207-.616.255m0 0c-.16.03-.328.044-.482.044-.256 0-.042-.016.482-.044Zm0 0c1.721-.093 6.79-.314 9.504-.504 2.296-.162 5.875.249 11.462.497 3.563.16 10.393.051 14.058.002 5.06-.25 7.062-.152 7.81.147.352.2.65.496.955.502"/>
</svg>
