<svg xmlns="http://www.w3.org/2000/svg" width="21" height="21" fill="currentColor" viewBox="0 0 21 21">
  <path d="M9.576.007c1.333.161 2.547.38 3.583.595l.976.212.102.029c.74.253 1.616.592 2.27.957.605.338 1.507 1.018 2.224 1.843.865.993 1.967 2.51 2.099 4.402.052.736.052 1.297.026 1.835-.002.053.004.14.025.363l.022.269a1 1 0 0 1 .025.796c-.019.706-.154 1.579-.594 2.638-.171.412-.347.93-.66 1.475-.329.57-.805 1.18-1.613 1.988-.639.64-1.77 1.934-4.098 2.745-.283.1-.526.205-.82.327a7.698 7.698 0 0 1-.968.341c-.763.204-1.625.255-2.832.034-2.011-.37-2.994-.576-3.831-1.048-.705-.398-2.06-1.07-2.897-2.082C1.84 16.787.737 15.07.243 13.134c-.358-1.402-.292-3.064.012-5.059.08-.521.163-1.066.273-1.553.108-.476.259-.989.514-1.412.383-.634.839-1.347 1.46-1.992.36-.372.83-.956 1.406-1.391C4.551 1.24 5.353.885 6.544.67A13.8 13.8 0 0 1 7.77.505a.997.997 0 0 1 .69-.427c.265-.036.58-.08 1.002-.078l.114.007ZM2.313 13.095c.448 1.392 1.257 2.648 1.843 3.357.539.652 1.453 1.114 2.338 1.613.456.257 1.023.413 2.832.75-.392-.316-.698-.678-.94-.978a1.054 1.054 0 0 1-.02-.026c-.221-.293-.519-.595-.87-.982a8.724 8.724 0 0 1-.485-.57 2.86 2.86 0 0 1-.409-.697 18.3 18.3 0 0 1-.311-.899c-.03-.091-.06-.176-.086-.258a7.075 7.075 0 0 1-1.476-.248 11.181 11.181 0 0 1-2.416-1.062Zm15.998.517c-.344.176-.79.359-1.297.395-.202.014-.42.057-.751.118-.303.056-.67.12-1.083.149a89.66 89.66 0 0 1-1.146 2.521c-.3.639-.627 1.144-.903 1.536.057-.021.114-.045.173-.065 1.845-.644 2.688-1.616 3.343-2.272.732-.731 1.08-1.201 1.293-1.57.162-.28.25-.504.371-.812Zm-5.34.708a14.54 14.54 0 0 0-.667.107c-.349.062-.8.143-1.255.114-.225-.014-.396.01-.944.028-.428.015-.978.014-1.749-.04.036.103.074.21.117.322a1.75 1.75 0 0 0 .129.196c.094.124.22.267.373.435.273.3.672.715.965 1.1h.001c.406.502.697.782 1.024.908l.057.01c.046.003.113.005.233.007.317-.43.612-.801.969-1.562.297-.634.543-1.17.748-1.625Zm-2.26-5.909c-.779.077-1.296.106-1.78.167-.213.027-.43.07-.73.131-.179.036-.38.074-.606.114l-.037.228c-.084.478-.077.858-.078 1.327 0 .197.02.416.048.68.028.25.067.56.09.865.014.18.039.361.082.558.152.008.306.017.46.03.884.075 1.46.075 1.878.06.364-.012.785-.048 1.137-.026.177.011.393-.018.78-.087.354-.063.823-.151 1.354-.173.172-.007.347-.007.515-.006.141-.4.172-.575.21-.764.051-.268.165-.694.2-.848.054-.243.058-.354.051-.403-.046-.352-.07-.707-.087-1.053-.691-.232-1.423-.476-1.991-.599-.668-.143-.925-.257-1.496-.2Zm-5.192.791c-.43.102-.85.225-1.182.37a3.396 3.396 0 0 0-1.086.728c-.137.133-.31.305-.468.448-.047.043-.105.09-.169.143.084.064.175.133.277.203a9.104 9.104 0 0 0 2.407 1.146c.114.034.231.061.352.084a6.821 6.821 0 0 1-.027-.25c-.02-.26-.05-.503-.083-.796a9.846 9.846 0 0 1-.055-.667l-.005-.234c0-.323-.006-.715.04-1.175Zm10.748.8c.056.417-.018.816-.082 1.104-.085.377-.133.505-.189.79-.016.084-.034.166-.053.253.274-.05.605-.114.928-.137.128-.01.303-.062.542-.185.221-.113.403-.232.639-.376.109-.108.211-.207.308-.298a2.951 2.951 0 0 1-.462-.338l-.191-.17-.094-.083a12.773 12.773 0 0 0-1.352-.622l.006.062ZM13.84 2.824a20.298 20.298 0 0 1 1.628 2.365c.444.752.802 1.467.942 1.907a.995.995 0 0 1-.054.738c.722.266 1.649.644 2.331 1.035.058.033.113.072.163.115l.02.019a14.85 14.85 0 0 0-.035-.818c-.085-1.215-.815-2.313-1.612-3.23-.561-.644-1.28-1.18-1.69-1.409-.436-.243-1.063-.497-1.693-.722ZM9.308 2.5c-.586-.076-1.41-.043-2.409.138-.948.171-1.44.424-1.785.684-.411.311-.62.614-1.172 1.185-.458.475-.82 1.026-1.188 1.637-.085.14-.18.4-.275.818-.091.406-.165.878-.247 1.414l-.024.173a5.39 5.39 0 0 1 1.33-.812c.762-.331 1.753-.549 2.506-.684l.007-.013a30.97 30.97 0 0 1 .952-1.579c.208-.32.36-.608.615-1.031.228-.376.51-.804.87-1.17.305-.308.579-.561.82-.76Zm2.177.85a.998.998 0 0 1-.62.484c-.028.017-.08.048-.154.105a7.74 7.74 0 0 0-.8.727c-.191.193-.375.458-.582.8-.178.295-.43.748-.65 1.086l-.03.046.03-.004c.503-.064 1.18-.108 1.835-.173.972-.096 1.653.137 2.115.236.305.066.648.163.998.269a2.802 2.802 0 0 1-.189-.559c-.054-.235-.061-.308-.104-.466-.058-.211-.118-.309-.257-.4a5.878 5.878 0 0 0-.802-.455 1 1 0 0 1-.443-1.438 3.684 3.684 0 0 0-.347-.258Z"/>
</svg>
