<svg xmlns="http://www.w3.org/2000/svg" width="65" height="64" fill="currentColor" viewBox="0 0 65 64">
  <path d="M29.343.12a21.666 21.666 0 0 1 4.411-.014l.387.042.247.01c.846.046 1.7.122 2.467.25.598.1 1.272.255 1.873.52 1.628.378 3.34.886 5.126 1.566 1.83.696 3.395 1.475 5.485 2.974a64.203 64.203 0 0 1 5.32 4.287c1.554 1.391 2.137 2.048 3.26 3.545.528.704 1.267 1.59 2.155 2.735.805 1.037 1.706 2.255 2.224 3.27 1.324 2.59 2.238 4.704 2.446 7.082.213 2.434.474 5.727-.055 9.229-.456 3.013-.979 6.425-2.7 9.497-1.67 2.98-3.232 5.434-5.923 7.715-1.799 1.523-4.754 3.882-7.086 5.453-2.393 1.611-4.103 2.387-5.915 3.008a31.343 31.343 0 0 1-5.556 1.352c-1.889.285-4.048.545-6.169.401-3.67-.248-7.782-.725-11.13-2.266-2.164-.997-4.078-2.165-6.416-4.359a53.281 53.281 0 0 1-4.82-5.184 47.854 47.854 0 0 1-4.494-6.596c-1.244-2.217-2.29-4.413-2.886-6.187-.877-2.608-1.628-4.962-1.593-7.578.037-2.732.16-5.637 1.279-8.62.655-1.748 1.712-4.072 3.306-6.37 1.587-2.287 3.617-4.442 5.671-6.168a35.001 35.001 0 0 1 3.632-2.695c.41-.343.874-.576 1.215-.726a17.608 17.608 0 0 1 1.185-.604 23.988 23.988 0 0 1 1.968-1.378l.037-.028c1.045-.79 2.373-1.5 3.735-2.096.427-.213.841-.41 1.23-.585.038-.017.078-.034.117-.049A25.056 25.056 0 0 1 27.542.381c.665-.14 1.279-.233 1.801-.261Zm4.441 4.015c-1.426-.06-2.941-.045-4.132-.026-.469.052-.927.12-1.373.204a24.14 24.14 0 0 0-2.811.814c-.603.213-1.2.448-1.769.696a40.402 40.402 0 0 0-3.109 1.744 5.322 5.322 0 0 0-.14.112c-.346.582-.883.854-1.04.94-.227.123-.56.283-1.037.507-.538.375-1.114.602-1.41.725l-.102.044c-1.176.672-2.564 1.649-4.032 2.882-1.813 1.523-3.593 3.42-4.956 5.386-1.356 1.954-2.273 3.962-2.847 5.493-.856 2.283-.989 4.58-1.025 7.27-.024 1.843.49 3.586 1.385 6.25.486 1.444 1.4 3.396 2.583 5.503a43.858 43.858 0 0 0 4.114 6.037 49.272 49.272 0 0 0 4.448 4.784c1.998 1.875 3.545 2.81 5.352 3.643 2.621 1.207 6.078 1.661 9.727 1.908 1.663.113 3.463-.087 5.302-.365a27.338 27.338 0 0 0 4.856-1.18c1.484-.509 2.878-1.13 4.977-2.544 2.16-1.454 4.989-3.707 6.735-5.186 2.135-1.81 3.416-3.757 5.02-6.618 1.31-2.34 1.764-5.032 2.234-8.14.451-2.985.238-5.856.026-8.282-.136-1.552-.728-3.074-2.024-5.612-.325-.634-1-1.577-1.822-2.636-.738-.951-1.676-2.097-2.195-2.788-.97-1.293-1.375-1.754-2.728-2.964a60.224 60.224 0 0 0-4.984-4.018c-1.792-1.286-3.05-1.905-4.577-2.486a35.555 35.555 0 0 0-4.565-1.4 1.98 1.98 0 0 1-.388-.088 34.846 34.846 0 0 0-3.693-.609Zm8.217 25.324c0-1.276.08-2.255.114-2.921.036-.692.02-1.039-.058-1.367-.07-.288-.327-.794-.812-1.508a30.508 30.508 0 0 0-.705-.985c-.23-.313-.483-.652-.687-.95-.715-1.04-.882-1.447-1.659-2.117-.774-.669-1.16-.709-2.675-1.302-2.347-.92-3.475-1.239-5.332-.655-1.171.368-1.934.71-2.554 1.255-1.024.9-1.657 1.5-1.981 2.05-.501.853-.574.914-1.4 2.542-.406.8-.622 1.294-.745 1.98-.131.731-.173 1.79-.013 3.674.079.92.256 1.89.448 2.792.172.81.403 1.76.498 2.308.153.89.37 1.757 1.188 4.4.282.908.583 1.539 1.164 2.203.56.64.98 1.265 1.39 1.888.416.628.848 1.296 1.49 2.154 1.845 2.472 2.4 3.449 3.427 4.562.206.223.399.419.59.613.148-.292.304-.605.48-.97.497-1.028.814-1.78 1.183-2.615.37-.837.769-1.7 1.392-2.849 1.145-2.107 1.764-3.776 2.444-5.237.985-2.118 1.273-2.951 1.974-4.593.555-1.297.84-2.985.84-4.352Zm-9.546-7.107c.86-.039 1.581.284 2.106.646.13.042.259.09.386.15l.155.08.175.101c.15.094.287.199.416.31.184.145.348.299.489.46l.164.201.144.202c.636.957.692 2.009.614 2.77-.012 1.787-.88 3.129-1.234 3.765-.56 1.009-1.58 1.421-2.33 1.51-.989.117-1.832-.29-2.31-.626-.623-.436-.979-1.007-1.193-1.542-.875-.77-1.097-1.84-1.185-2.246-.168-.774-.03-1.549.12-2.114a11.23 11.23 0 0 1 .696-1.839c.611-1.3 1.797-1.728 2.595-1.813l.192-.015Zm13.546 7.107c0 1.805-.358 4.043-1.161 5.923-.629 1.472-1.01 2.525-2.025 4.708-.525 1.128-1.344 3.229-2.557 5.461a32.328 32.328 0 0 0-1.248 2.555c-.343.777-.703 1.63-1.238 2.738-.718 1.486-1.13 2.238-2.055 3.78a2.001 2.001 0 0 1-3.38.081c-.883-1.325-1.062-1.321-2.178-2.53-1.206-1.309-2.12-2.777-3.693-4.883-.721-.966-1.217-1.73-1.621-2.341-.408-.618-.699-1.042-1.064-1.46-1.055-1.207-1.583-2.389-1.974-3.653-.823-2.657-1.108-3.737-1.309-4.901-.08-.466-.245-1.11-.469-2.158-.203-.959-.422-2.118-.521-3.285-.172-2.025-.159-3.485.063-4.718.229-1.277.662-2.194 1.114-3.084.89-1.754 1.022-1.915 1.517-2.758.711-1.21 1.886-2.235 2.79-3.03 1.26-1.108 2.675-1.65 3.996-2.066 3.245-1.02 5.494-.231 7.99.746 1.108.434 2.392.758 3.83 1.998 1.284 1.108 1.844 2.158 2.342 2.882.155.226.354.495.609.84.243.33.524.713.795 1.111.504.743 1.138 1.767 1.392 2.82.219.911.204 1.734.165 2.506-.041.796-.11 1.577-.11 2.718Z"/>
</svg>
