<svg xmlns="http://www.w3.org/2000/svg" width="27" height="19" fill="currentColor" viewBox="0 0 27 19">
  <path d="M10.01.68a1 1 0 0 1 1.266-.627c.063.021.368.107.636.326l.112.103.124.148c.183.253.253.535.284.786l.024.283.002.036c.022.94.022 1.61.022 1.788 0 .183-.05.353-.135.5.003.233.004.424.004.563a.994.994 0 0 1-.219.622c-.031.187-.061.37-.087.548a1 1 0 0 1 .044.29c0 .403-.002.788-.138 2.14-.131 1.297-.397 3.592-.523 4.802-.17 1.907-.233 2.735-.42 3.451-.124.478-.283.908-.416 1.242l-.09.222a1 1 0 0 1-.163.398l-.003.01a1 1 0 0 1-1.498.525 2.58 2.58 0 0 1-.578-.11c-1.088-.358-2.419-1.432-3.733-3.157a.998.998 0 0 1-.106-.173c-.298-.62-.481-1.373-.59-2.01l-.027-.174a5.16 5.16 0 0 1-1.139-.045 3.883 3.883 0 0 1-.698-.168 1 1 0 0 1-1.703-.71v-.57a1 1 0 0 1 0-.987V7.25a1 1 0 0 1 .059-1.405 1 1 0 0 1 1.874-.026c.438.06 1.056.108 1.923.127.146-.477.37-1.037.655-1.504a1 1 0 0 1 .153-.192 14.056 14.056 0 0 1 2.73-2.132c.029-.017.058-.032.088-.047.442-.212.986-.442 1.513-.665a.996.996 0 0 1 .779 0c0-.003.003-.006.004-.01a.995.995 0 0 1-.03-.717Zm.26 2.427a.996.996 0 0 1-.234.142c-.523.22-1.001.424-1.383.606a11.929 11.929 0 0 0-2.229 1.73 3.556 3.556 0 0 0-.067.127 1 1 0 0 1 .26 1.969c-.168.042-.401.103-.649.134l-.06.005c-.324.02-.686.061-1.367.13a1 1 0 0 1-.11.004 23.144 23.144 0 0 1-2.169-.113v3.089c.185.127.406.216.692.258l.007.002c.285.043.55.048.874.013a1 1 0 0 1 1.394-.272c.147-.04.303-.086.47-.134a1 1 0 0 1 .557 1.922c-.157.045-.32.091-.485.136.01.063.018.127.03.192.089.522.22 1.026.382 1.397 1.117 1.444 2.066 2.13 2.604 2.347.1-.26.204-.55.284-.855.133-.511.185-1.112.364-3.123v-.015c.124-1.194.344-3.114.485-4.466a.997.997 0 0 1-.093-.487 27.596 27.596 0 0 1 .393-3.322 4.24 4.24 0 0 0 .108-.748c.004-.055.003-.113.005-.172-.001-.058-.001-.116-.004-.176a7.721 7.721 0 0 0-.06-.32Zm13.393.312a1.31 1.31 0 0 1 .628.022l.107.037.115.05c.563.263.899.745 1.1 1.092.114.198.21.399.289.567.085.182.14.308.2.424.44.859.691 2.127.889 3.737a1 1 0 0 1 .007.11c.023 1.795-.154 3.873-.476 5.436l-.006.027c-.063.268-.142.58-.282.836a1.347 1.347 0 0 1-.918.697 1 1 0 0 1-.802-1.785c.015-.053.032-.118.052-.2.283-1.386.449-3.282.431-4.938-.196-1.58-.418-2.506-.675-3.008-.083-.161-.168-.35-.234-.493a5.27 5.27 0 0 0-.206-.408c-.011-.02-.024-.037-.035-.055a1 1 0 0 1-1.185-.981 1.13 1.13 0 0 1 .499-.957c.146-.1.32-.173.502-.21Zm-5.776 1.858a1 1 0 0 1 1.3-.557c.17.068.297.167.361.22.078.063.15.133.213.198.127.13.26.287.39.45.26.327.547.73.79 1.108.516.797.73 1.623.933 2.754a1 1 0 0 1 .015.211c-.055 1.558-.172 2.67-.308 3.44a7.174 7.174 0 0 1-.223.947c-.067.207-.178.497-.373.718a1 1 0 0 1-.114.11c-.274.224-.582.317-.687.353a1 1 0 0 1-.711-1.869c.04-.135.09-.332.139-.606.112-.634.218-1.618.272-3.06-.184-1.002-.342-1.48-.622-1.912a12.57 12.57 0 0 0-.677-.949 4.318 4.318 0 0 0-.289-.332.999.999 0 0 1-.409-1.224Zm-3.443 1.28a1 1 0 0 1 1.261.64c-.009-.028-.006-.013.057.106.061.114.12.218.222.405.14.257.31.582.492.98l.184.422.05.154c.012.052.02.105.024.159.071.992-.009 1.96-.255 2.616a1.033 1.033 0 0 1-.02.049c-.111.256-.25.48-.434.815a1 1 0 0 1-1.754-.963c.243-.443.285-.501.344-.631.091-.268.17-.832.131-1.581a12.91 12.91 0 0 0-.52-1.064c-.074-.138-.169-.308-.228-.418a2.769 2.769 0 0 1-.194-.428 1 1 0 0 1 .64-1.26Z"/>
</svg>
