<svg xmlns="http://www.w3.org/2000/svg" width="64" height="63" fill="currentColor" viewBox="0 0 64 63">
  <path d="M30.623.002c.848-.008 1.616.013 2.358.056 2.294.089 4.425.297 6.487.812l.055.015c.146.036.292.073.437.113 1.86.512 4.701 1.368 7.259 2.41 2.517 1.026 4.771 2.158 6.275 3.157 2.136 1.42 4.347 3.13 5.967 5.773 1.111 1.814 2.587 4.551 3.472 8.299.685 2.898 1.12 5.079 1.062 8.066-.04 2.082-.191 5.479-.507 8.129-.322 2.7-.808 4.633-1.661 6.612-.806 1.87-1.862 3.834-3.252 5.568-2.457 3.065-5.125 6.036-7.897 7.967-1.899 1.324-4.45 2.944-8.58 4.132-2.276.655-4.951 1.13-8.035 1.326-3.06.195-6.451.119-9.09-.166-2.693-.29-4.573-.783-6.547-1.538-1.843-.704-3.911-1.6-5.444-2.594-2.457-1.596-5.344-3.958-7.666-7.93-2.04-3.49-3.645-6.706-4.37-9.454-.611-2.317-1.13-5.619-.883-9.87a29.205 29.205 0 0 1 1.056-6.338 33.725 33.725 0 0 1 2.686-6.692A41.13 41.13 0 0 1 8.082 11.4c1.605-1.989 3.296-3.705 5.704-5.437 1.853-1.333 4.072-2.636 6.22-3.695.016-.01.033-.018.05-.027l.088-.044c.233-.11.66-.333 1.273-.596.11-.05.22-.1.33-.148C24.225.37 26.468.114 28.724.04c.599-.03 1.232-.044 1.9-.037Zm-.006 4a72.81 72.81 0 0 0-1.775.035c-1.847.098-3.252.38-4.296.684-.575.167-1.044.34-1.437.505-.416.186-.84.385-1.267.595-1.787.957-2.84 1.53-4.238 2.385-.516.331-1.015.666-1.483 1.003-2.07 1.488-3.507 2.943-4.927 4.703a37.13 37.13 0 0 0-3.854 5.816 29.729 29.729 0 0 0-2.37 5.9 25.207 25.207 0 0 0-.914 5.49c-.221 3.796.245 6.675.757 8.617.58 2.195 1.948 5.02 3.956 8.455 1.915 3.277 4.28 5.223 6.392 6.594 1.163.755 2.904 1.529 4.691 2.212 1.656.633 3.2 1.045 5.548 1.298 2.4.258 5.563.332 8.41.151 2.823-.18 5.21-.61 7.181-1.178 3.556-1.023 5.703-2.386 7.4-3.569 2.272-1.583 4.642-4.167 7.063-7.187 1.098-1.37 1.986-2.993 2.7-4.65.667-1.547 1.075-3.09 1.362-5.502.294-2.462.441-5.712.48-7.733.047-2.476-.294-4.264-.956-7.07-.753-3.188-2.005-5.521-2.99-7.128-1.16-1.896-2.79-3.216-4.77-4.532-1.198-.796-3.186-1.812-5.571-2.784-2.346-.956-5.014-1.763-6.81-2.258l-.305-.079c-2.538-.376-4.14-.623-5.845-.723a83.778 83.778 0 0 0-2.132-.05Zm5.106 7.426c1.299-.109 3.762-.34 5.931 1.05 1.234.791 2.242 1.44 3.522 2.809 2.945 3.152 4.654 6.09 5.134 8.406.19.917.867 2.596.439 5.907-.063.485-.107.919-.15 1.337-.043.409-.085.825-.14 1.223-.115.824-.295 1.652-.707 2.552a21.62 21.62 0 0 1-1.44 2.585c-.578.894-1.31 1.886-2.09 2.598-.4.366-1.145 1.12-1.977 1.596-.994.569-2.23.843-3.658.378-1.119-.364-2.187-1.214-2.993-2.09a9.882 9.882 0 0 1-1.42-1.973 9.481 9.481 0 0 1-1.172 1.205c-.908.754-2.237 1.441-3.95 1.188l-.062-.009c-.48-.07-1.056-.154-1.556-.282-.45-.116-1.223-.355-1.811-.983-.635-.679-2.396-2.12-3.06-4.28-.527-1.716-.92-3.406-1.027-4.868-.097-1.312-.019-3.072 1.12-4.271l.432-.47c1.034-1.149 2.306-2.605 4.487-2.99a15.177 15.177 0 0 1 3.045-.222c.89.029 1.949.153 2.77.544.245.117.687.314 1.146.554a1.996 1.996 0 0 1 2.272.76c.192.275.266.535.278.575.027.09.043.165.05.205.041.206.057.48.068.646.03.473.047 1.301.036 2.042.003.129.005.226.005.283 0 .089-.008.177-.02.263-.006.162-.013.32-.023.467-.02.276-.031.539-.04.795.027 1.42.07 2.96.127 4.214.029.637.06 1.186.094 1.6.034.425.061.56.051.535.167.525.56 1.175 1.101 1.761.575.624 1.086.93 1.29.997.143.047.209.04.228.037a.588.588 0 0 0 .207-.083c.127-.073.287-.191.507-.383.247-.216.431-.397.755-.693.405-.37.919-1.025 1.432-1.818.5-.772.92-1.553 1.161-2.08.194-.423.298-.836.382-1.436.044-.314.078-.655.122-1.082.043-.417.093-.898.163-1.44.32-2.472-.127-3.322-.389-4.582-.266-1.287-1.421-3.58-4.14-6.486-.921-.987-1.576-1.415-2.758-2.172-.883-.566-2.008-.553-3.439-.433-1.41.118-3.128.263-5.65.78-3.656.748-5.243 1.974-7.03 2.777-.895.401-2.016 1.212-3.084 2.605-1.53 1.994-2.298 3.384-2.701 4.496-.39 1.076-.48 2.002-.482 3.175-.002 2.071.685 4.17 1.38 6.237l.026.077.188.511c.22.557.532 1.253.913 2.082.49 1.064 1.073 2.306 1.6 3.547.798 1.882 2.044 3.007 3.255 4.485.49.597 1.542 1.275 3.01 1.808 1.424.517 2.973.802 4.201.804 3.91.006 7.012-2.447 9.073-3.98a45.6 45.6 0 0 1 .672-.546c.26-.207.494-.395.682-.552.344-.29.514-.464.729-.684a2 2 0 0 1 2.866 2.79 12.47 12.47 0 0 1-1.023.958c-.233.195-.508.415-.755.613-.26.208-.492.393-.676.548a2.23 2.23 0 0 1-.095.075c-1.824 1.356-6.005 4.786-11.48 4.778-1.753-.003-3.762-.391-5.56-1.044-1.753-.637-3.587-1.629-4.737-3.033-.827-1.01-2.75-2.876-3.845-5.458-.496-1.17-1.042-2.33-1.55-3.437-.43-.932-.851-1.866-1.143-2.66l-.117-.331-.027-.077c-.66-1.966-1.59-4.682-1.587-7.515.001-1.422.113-2.858.72-4.535.596-1.64 1.625-3.397 3.289-5.566 1.426-1.86 3.055-3.119 4.62-3.82 1.163-.523 3.634-2.181 7.866-3.048 2.757-.564 4.661-.724 6.12-.846Zm-3.232 14.394a11.18 11.18 0 0 0-2.22.162c-.402.071-.685.22-1.046.532-.47.41-.833.861-1.635 1.709.035-.035-.14.232-.065 1.26.076 1.032.375 2.397.863 3.986.293.954.91 1.416 1.988 2.547l.052.015c.255.065.6.12 1.147.2l.063.01.086.008c.203.01.41-.059.721-.316.438-.364.736-.798 1.25-1.423.712-.87 1.101-1.862 1.322-2.995.143-.73.107-1.33.145-2.619a191.72 191.72 0 0 1-.027-2.165c-.035-.024-.074-.053-.121-.083-.373-.232-.772-.398-1.345-.672.01.005-.081-.035-.322-.077a6.29 6.29 0 0 0-.856-.079Z"/>
</svg>
