<svg xmlns="http://www.w3.org/2000/svg" width="75" height="75" fill="currentColor" viewBox="0 0 75 75">
  <g clip-path="url(#a)">
    <path d="M29.65 48.83a.529.529 0 0 0-.35-.15c-1.4-.08-4.69-.56-6.77-3.28-1.41-1.86-2.53-5.15-1.01-8.34 1.66-3.47 5.41-4.44 7.37-4.47 1.25-.02 2.19.29 2.8.5 2.63.87 4.36 2.66 7.45 6.02.02.02.04.04.06.07.82.89 2.19.98 3.1.18.94-.82 1.03-2.25.19-3.16-.03-.03-.05-.06-.08-.09-3.06-3.33-5.48-5.96-9.32-7.23-.73-.24-2.26-.75-4.26-.72-3.71.05-8.89 1.91-11.32 6.99-1.96 4.11-1.38 9.19 1.48 12.94 3.5 4.59 9 5.02 10.6 5.04h.17c.92 0 1.85-.1 2.75-.29h.03c.42-.09.56-.64.25-.94l-3.16-3.06.02-.01Z"/>
    <path d="M51.12 23.93c-2.96-1.38-6.35-1.71-9.81-.98-1.84.39-4.65 2.17-5.86 2.98-.31.21-.33.65-.04.89.73.6 2 1.6 2.61 2.08.2.15.47.16.67.01 1.06-.8 2.27-1.35 3.55-1.62 2.55-.54 4.91-.32 7.02.66 4.98 2.32 7.68 8.42 6.01 13.6-1.62 5.02-6.6 7.5-10.54 7.67-5.27.22-9.3-3.86-11.45-6.05a21.947 21.947 0 0 1-3.22-4.18 2.218 2.218 0 0 0-3.81 2.27c1.09 1.83 2.39 3.52 3.87 5.02 2.38 2.42 7.26 7.38 14.18 7.38.21 0 .42 0 .63-.01 5.43-.24 12.3-3.7 14.57-10.74 1.15-3.55.9-7.48-.7-11.07-1.58-3.54-4.3-6.36-7.66-7.92l-.02.01Z"/>
    <path d="M59.2 7H16.71C11.35 7 7 11.35 7 16.71V59.2c0 5.36 4.35 9.71 9.71 9.71H59.2c5.36 0 9.71-4.35 9.71-9.71V16.71c0-5.36-4.35-9.71-9.71-9.71Zm1.97 36.88c-2.17 6.36-7.38 9.45-10.6 10.8-1.44.6-2.99.9-4.56.9H27.74c-1.54 0-3.07-.28-4.48-.87-6.64-2.77-10.62-9.98-9.12-17.11 1.65-7.87 9.46-13.19 17.56-11.78.95-.97 5.48-5.41 12.48-5.5 6.69-.08 12.55 3.83 15.56 9.13.55.97 3.91 7.13 1.43 14.42v.01Z"/>
  </g>
  <defs>
    <clipPath id="a">
      <path d="M7 7h61.91v61.91H7z"/>
    </clipPath>
  </defs>
</svg>
