<svg xmlns="http://www.w3.org/2000/svg" width="75" height="75" fill="currentColor" viewBox="0 0 75 75">
  <path fill-rule="evenodd" d="M30.51 31.576a6.018 6.018 0 1 0 0 12.035h6.182V31.576H30.51Zm15.13-2.927h.162a6.018 6.018 0 1 0 0-12.034H39.62v12.034h6.02Zm5.07 1.464a8.936 8.936 0 0 0 4.04-7.481c0-4.94-4.006-8.945-8.948-8.945H30.51c-4.942 0-8.948 4.005-8.948 8.945a8.936 8.936 0 0 0 4.041 7.48 8.936 8.936 0 0 0-4.04 7.482 8.936 8.936 0 0 0 4.04 7.48 8.936 8.936 0 0 0-4.04 7.482c0 4.95 4.056 8.944 8.988 8.944 4.976 0 9.07-4.03 9.07-9.026v-8.262a8.917 8.917 0 0 0 6.019 2.326h.162c4.942 0 8.948-4.004 8.948-8.944a8.936 8.936 0 0 0-4.04-7.481Zm-4.908 1.463h-.162a6.018 6.018 0 1 0 0 12.035h.162a6.018 6.018 0 1 0 0-12.034Zm-21.311 20.98a6.018 6.018 0 0 1 6.02-6.018h6.181v5.936c0 3.358-2.762 6.099-6.141 6.099-3.335 0-6.06-2.705-6.06-6.017Zm12.201-23.907H30.51a6.018 6.018 0 1 1 0-12.034h6.182v12.034Z" clip-rule="evenodd"/>
</svg>
