<svg xmlns="http://www.w3.org/2000/svg" width="75" height="75" fill="currentColor" viewBox="0 0 75 75">
  <path d="M38 7C20.879 7 7 20.879 7 38c0 17.121 13.879 31 31 31 17.121 0 31-13.879 31-31C69 20.879 55.121 7 38 7Zm11.33 36.883c-1.402 3.33-4 6.38-8.81 6.38 0 0-2.039-14.21-2.07-14.535-.125.342-3.004 7.813-3.004 7.813-1.355 3.454-3.938 6.707-8.747 6.723L22.932 27.29c3.128 0 6.988 2.568 7.268 6.802 0 0 .483 8.42.5 9.09.263-.716 3.532-9.183 3.532-9.183 1.292-3.471 3.736-6.723 8.327-6.723 0 0 1.96 15.159 2.039 15.874.202-.715 2.895-9.151 2.895-9.151 1.291-3.471 3.797-6.723 8.559-6.723L49.33 43.883Z"/>
</svg>
