<svg xmlns="http://www.w3.org/2000/svg" width="75" height="75" fill="currentColor" viewBox="0 0 75 75">
  <path d="M38 8.86c3.934 0 7.748.772 11.347 2.288a29.246 29.246 0 0 1 9.264 6.25 29.285 29.285 0 0 1 3.562 4.316 29.607 29.607 0 0 1 2.688 4.948A28.996 28.996 0 0 1 67.15 38.01a29.03 29.03 0 0 1-2.288 11.347 29.246 29.246 0 0 1-6.25 9.264 29.285 29.285 0 0 1-4.316 3.562 29.607 29.607 0 0 1-4.948 2.688A28.996 28.996 0 0 1 38 67.158c-3.934 0-7.748-.772-11.347-2.288a29.246 29.246 0 0 1-9.264-6.25 29.285 29.285 0 0 1-3.562-4.316 29.607 29.607 0 0 1-2.688-4.948A29.268 29.268 0 0 1 8.86 38c0-3.934.772-7.748 2.288-11.347a29.246 29.246 0 0 1 6.25-9.264 29.285 29.285 0 0 1 4.316-3.562 29.607 29.607 0 0 1 4.948-2.688A29.143 29.143 0 0 1 38 8.86ZM38 7C20.877 7 7 20.877 7 38c0 17.123 13.877 31 31 31 17.123 0 31-13.877 31-31 .01-17.123-13.877-31-31-31Z"/>
  <path d="M12.172 38c0 10.222 5.943 19.067 14.565 23.252L14.413 27.49A25.597 25.597 0 0 0 12.172 38Zm43.277-1.302c0-3.19-1.144-5.404-2.13-7.125-1.311-2.13-2.539-3.934-2.539-6.054 0-2.372 1.804-4.586 4.334-4.586.112 0 .224.01.335.019a25.733 25.733 0 0 0-17.448-6.78c-9.022 0-16.965 4.631-21.588 11.644.605.019 1.181.028 1.665.028 2.697 0 6.883-.325 6.883-.325 1.395-.084 1.553 1.962.167 2.13 0 0-1.404.167-2.958.241l9.413 27.987 5.655-16.956-4.027-11.03c-1.396-.084-2.707-.242-2.707-.242-1.395-.084-1.228-2.214.167-2.13 0 0 4.27.325 6.809.325 2.697 0 6.882-.325 6.882-.325 1.395-.084 1.554 1.962.168 2.13 0 0-1.405.167-2.958.241l9.329 27.773 2.67-8.445c1.18-3.693 1.878-6.306 1.878-8.52ZM38.456 40.26 30.7 62.787a25.897 25.897 0 0 0 15.877-.41 4.234 4.234 0 0 1-.186-.352L38.456 40.26Zm22.22-14.649c.112.819.177 1.702.177 2.66 0 2.623-.493 5.572-1.963 9.255l-7.896 22.806C58.676 55.858 63.839 47.534 63.839 38a25.65 25.65 0 0 0-3.163-12.389Z"/>
</svg>
